<svg id="canvas" height="auto" xmlns="http://www.w3.org/2000/svg" version="1.1" xmlns:xlink="http://www.w3.org/1999/xlink" xmlns:svgjs="http://svgjs.dev/svgjs" viewBox="0 0 800 400" width="auto" style="width: auto; height: auto;"><rect width="800" height="400" fill="#ffffff"/><defs><linearGradient gradientTransform="matrix(1,0,0,1,0,0)" id="SvgjsLinearGradient2263"><stop stop-color="#0066cc" offset="0"/><stop stop-color="#6600cc" offset="1"/></linearGradient><linearGradient gradientTransform="matrix(1,0,0,1,0,0)" id="SvgjsLinearGradient2264"><stop stop-color="#0099ff" offset="0"/><stop stop-color="#6600ff" offset="1"/></linearGradient><linearGradient gradientTransform="matrix(1,0,0,1,0,0)" id="SvgjsLinearGradient2265"><stop stop-color="#003366" offset="0"/><stop stop-color="#330066" offset="1"/></linearGradient><linearGradient gradientTransform="matrix(1,0,0,1,0,0)"><stop stop-color="#006699" offset="0"/><stop stop-color="#330099" offset="1"/></linearGradient><linearGradient gradientTransform="matrix(1,0,0,1,0,0)"><stop stop-color="#99ccff" offset="0"/><stop stop-color="#cc99ff" offset="1"/></linearGradient></defs><rect width="187.46835390100108" height="187.46835390100108" stroke-width="4" stroke="url(#SvgjsLinearGradient2263)" fill="none" x="396.65032326484277" y="-6.290580389625106"/><polygon points="323.6578789859283,108.41216825995903 573.0287859259581,540.3352490096208 74.28697204589844,540.3352490096208" stroke-width="4" stroke="url(#SvgjsLinearGradient2264)" fill="none"/><circle r="145.47771875427765" cx="391.1539782850601" cy="118.44631329987021" stroke-width="4" stroke="url(#SvgjsLinearGradient2265)" fill="none"/><circle r="0.5" cx="33" cy="33" fill="#000000"/><circle r="0.5" cx="98" cy="33" fill="#000000"/><circle r="0.5" cx="163" cy="33" fill="#000000"/><circle r="0.5" cx="228" cy="33" fill="#000000"/><circle r="0.5" cx="293" cy="33" fill="#000000"/><circle r="0.5" cx="358" cy="33" fill="#000000"/><circle r="0.5" cx="423" cy="33" fill="#000000"/><circle r="0.5" cx="488" cy="33" fill="#000000"/><circle r="0.5" cx="553" cy="33" fill="#000000"/><circle r="0.5" cx="618" cy="33" fill="#000000"/><circle r="0.5" cx="683" cy="33" fill="#000000"/><circle r="0.5" cx="748" cy="33" fill="#000000"/><circle r="0.5" cx="813" cy="33" fill="#000000"/><circle r="0.5" cx="878" cy="33" fill="#000000"/><circle r="0.5" cx="33" cy="98" fill="#000000"/><circle r="0.5" cx="98" cy="98" fill="#000000"/><circle r="0.5" cx="163" cy="98" fill="#000000"/><circle r="0.5" cx="228" cy="98" fill="#000000"/><circle r="0.5" cx="293" cy="98" fill="#000000"/><circle r="0.5" cx="358" cy="98" fill="#000000"/><circle r="0.5" cx="423" cy="98" fill="#000000"/><circle r="0.5" cx="488" cy="98" fill="#000000"/><circle r="0.5" cx="553" cy="98" fill="#000000"/><circle r="0.5" cx="618" cy="98" fill="#000000"/><circle r="0.5" cx="683" cy="98" fill="#000000"/><circle r="0.5" cx="748" cy="98" fill="#000000"/><circle r="0.5" cx="813" cy="98" fill="#000000"/><circle r="0.5" cx="878" cy="98" fill="#000000"/><circle r="0.5" cx="33" cy="163" fill="#000000"/><circle r="0.5" cx="98" cy="163" fill="#000000"/><circle r="0.5" cx="163" cy="163" fill="#000000"/><circle r="0.5" cx="228" cy="163" fill="#000000"/><circle r="0.5" cx="293" cy="163" fill="#000000"/><circle r="0.5" cx="358" cy="163" fill="#000000"/><circle r="0.5" cx="423" cy="163" fill="#000000"/><circle r="0.5" cx="488" cy="163" fill="#000000"/><circle r="0.5" cx="553" cy="163" fill="#000000"/><circle r="0.5" cx="618" cy="163" fill="#000000"/><circle r="0.5" cx="683" cy="163" fill="#000000"/><circle r="0.5" cx="748" cy="163" fill="#000000"/><circle r="0.5" cx="813" cy="163" fill="#000000"/><circle r="0.5" cx="878" cy="163" fill="#000000"/><circle r="0.5" cx="33" cy="228" fill="#000000"/><circle r="0.5" cx="98" cy="228" fill="#000000"/><circle r="0.5" cx="163" cy="228" fill="#000000"/><circle r="0.5" cx="228" cy="228" fill="#000000"/><circle r="0.5" cx="293" cy="228" fill="#000000"/><circle r="0.5" cx="358" cy="228" fill="#000000"/><circle r="0.5" cx="423" cy="228" fill="#000000"/><circle r="0.5" cx="488" cy="228" fill="#000000"/><circle r="0.5" cx="553" cy="228" fill="#000000"/><circle r="0.5" cx="618" cy="228" fill="#000000"/><circle r="0.5" cx="683" cy="228" fill="#000000"/><circle r="0.5" cx="748" cy="228" fill="#000000"/><circle r="0.5" cx="813" cy="228" fill="#000000"/><circle r="0.5" cx="878" cy="228" fill="#000000"/><circle r="0.5" cx="33" cy="293" fill="#000000"/><circle r="0.5" cx="98" cy="293" fill="#000000"/><circle r="0.5" cx="163" cy="293" fill="#000000"/><circle r="0.5" cx="228" cy="293" fill="#000000"/><circle r="0.5" cx="293" cy="293" fill="#000000"/><circle r="0.5" cx="358" cy="293" fill="#000000"/><circle r="0.5" cx="423" cy="293" fill="#000000"/><circle r="0.5" cx="488" cy="293" fill="#000000"/><circle r="0.5" cx="553" cy="293" fill="#000000"/><circle r="0.5" cx="618" cy="293" fill="#000000"/><circle r="0.5" cx="683" cy="293" fill="#000000"/><circle r="0.5" cx="748" cy="293" fill="#000000"/><circle r="0.5" cx="813" cy="293" fill="#000000"/><circle r="0.5" cx="878" cy="293" fill="#000000"/><circle r="0.5" cx="33" cy="358" fill="#000000"/><circle r="0.5" cx="98" cy="358" fill="#000000"/><circle r="0.5" cx="163" cy="358" fill="#000000"/><circle r="0.5" cx="228" cy="358" fill="#000000"/><circle r="0.5" cx="293" cy="358" fill="#000000"/><circle r="0.5" cx="358" cy="358" fill="#000000"/><circle r="0.5" cx="423" cy="358" fill="#000000"/><circle r="0.5" cx="488" cy="358" fill="#000000"/><circle r="0.5" cx="553" cy="358" fill="#000000"/><circle r="0.5" cx="618" cy="358" fill="#000000"/><circle r="0.5" cx="683" cy="358" fill="#000000"/><circle r="0.5" cx="748" cy="358" fill="#000000"/><circle r="0.5" cx="813" cy="358" fill="#000000"/><circle r="0.5" cx="878" cy="358" fill="#000000"/><circle r="0.5" cx="33" cy="423" fill="#000000"/><circle r="0.5" cx="98" cy="423" fill="#000000"/><circle r="0.5" cx="163" cy="423" fill="#000000"/><circle r="0.5" cx="228" cy="423" fill="#000000"/><circle r="0.5" cx="293" cy="423" fill="#000000"/><circle r="0.5" cx="358" cy="423" fill="#000000"/><circle r="0.5" cx="423" cy="423" fill="#000000"/><circle r="0.5" cx="488" cy="423" fill="#000000"/><circle r="0.5" cx="553" cy="423" fill="#000000"/><circle r="0.5" cx="618" cy="423" fill="#000000"/><circle r="0.5" cx="683" cy="423" fill="#000000"/><circle r="0.5" cx="748" cy="423" fill="#000000"/><circle r="0.5" cx="813" cy="423" fill="#000000"/><circle r="0.5" cx="878" cy="423" fill="#000000"/><circle r="0.5" cx="33" cy="488" fill="#000000"/><circle r="0.5" cx="98" cy="488" fill="#000000"/><circle r="0.5" cx="163" cy="488" fill="#000000"/><circle r="0.5" cx="228" cy="488" fill="#000000"/><circle r="0.5" cx="293" cy="488" fill="#000000"/><circle r="0.5" cx="358" cy="488" fill="#000000"/><circle r="0.5" cx="423" cy="488" fill="#000000"/><circle r="0.5" cx="488" cy="488" fill="#000000"/><circle r="0.5" cx="553" cy="488" fill="#000000"/><circle r="0.5" cx="618" cy="488" fill="#000000"/><circle r="0.5" cx="683" cy="488" fill="#000000"/><circle r="0.5" cx="748" cy="488" fill="#000000"/><circle r="0.5" cx="813" cy="488" fill="#000000"/><circle r="0.5" cx="878" cy="488" fill="#000000"/></svg>