<?xml version="1.0" encoding="UTF-8" standalone="no"?>
<svg
   version="1.1"
   id="Contours"
   x="0px"
   y="0px"
   width="507.58017"
   height="507.58017"
   viewBox="0 -1e-06 507.58017 661.95557"
   enable-background="new 0 0 507.580170 507.580170"
   xml:space="preserve"
   stroke="#000000"
   fill="none"
   stroke-linecap="round"
   stroke-linejoin="round"
   sodipodi:docname="favicon.svg"
   xmlns:inkscape="http://www.inkscape.org/namespaces/inkscape"
   xmlns:sodipodi="http://sodipodi.sourceforge.net/DTD/sodipodi-0.dtd"
   xmlns="http://www.w3.org/2000/svg"
   xmlns:svg="http://www.w3.org/2000/svg"><defs
     id="defs71" /><sodipodi:namedview
     id="namedview71"
     pagecolor="#ffffff"
     bordercolor="#000000"
     borderopacity="0.25"
     inkscape:showpageshadow="2"
     inkscape:pageopacity="0.0"
     inkscape:pagecheckerboard="0"
     inkscape:deskcolor="#d1d1d1" /><path
     class="selected"
     fill="#000000"
     opacity="1"
     stroke="none"
     d="m 72.810196,661.76645 c -0.287907,-2.27982 3.368534,-2.27955 5.430283,-1.26483 -1.230747,1.42218 -3.45462,1.87 -5.139891,1.03501 z"
     id="path1" /><path
     class="selected"
     fill="#000000"
     opacity="1"
     stroke="none"
     d="m 357.96194,597.38449 c 1.70145,-7.34329 4.64723,-14.66418 3.79201,-22.15333 -3.70974,-32.48551 30.27077,-61.61964 23.31846,-93.56861 25.33452,-9.58089 38.25423,-37.07853 48.68553,-62.07493 -4.54993,21.85839 -12.733,42.95605 -24.11197,62.16568 -13.28209,22.42241 -31.00854,42.56599 -39.64458,67.15455 -4.8392,13.77817 -6.6122,28.41256 -8.35441,42.91154 -2.17277,18.08205 -4.25032,37.01297 2.2699,54.01791 1.90724,4.97414 1.87007,10.66524 -0.10199,15.61404 -5.36034,-20.98984 -10.74287,-42.96246 -5.85295,-64.06685 z"
     id="path2" /><path
     class="selected"
     fill="#000000"
     opacity="1"
     stroke="none"
     d="M 4.434218,508.31193 C 3.984484,510.90866 2.61585,514.20795 0,513.88765 c 0.466383,-17.42318 1.020019,-34.84401 1.660879,-52.26164 2.939413,0.21179 5.878825,0.42357 8.818238,0.63536 -2.209366,3.84181 -3.844679,8.0131 -4.834974,12.33284 -0.447052,1.95007 -0.712327,4.17358 0.456905,5.79701 1.169233,1.62344 4.299171,1.64567 4.768105,-0.29926 1.009997,-4.18902 2.183282,-8.65699 5.426211,-11.49449 3.242928,-2.8375 9.25796,-2.83009 11.106811,1.06218 0.845045,1.77902 3.280219,2.19798 5.16788,1.63608 1.887662,-0.56191 3.487152,-1.81856 5.298877,-2.59099 4.499583,-1.91841 9.651312,-0.66113 14.372288,0.61908 14.618755,3.96422 29.237511,7.92843 43.856266,11.89265 2.598778,0.70472 5.607634,1.34434 7.795734,-0.22489 2.48365,-1.78119 5.06823,2.21333 5.38271,5.25344 0.31447,3.04011 1.94283,7.24397 4.83653,6.2603 2.95396,-1.00415 1.52579,-5.46651 -0.39897,-7.92202 1.62934,-2.31249 5.31224,0.47646 5.68744,3.28032 0.37521,2.80385 -0.32069,6.11767 1.69102,8.1065 -8.03929,-2.16735 -16.47876,-2.84062 -24.759982,-1.97526 -3.497198,0.36545 -7.024129,1.00243 -10.50535,0.50741 -3.95309,-0.56212 -7.540447,-2.53817 -11.297161,-3.89094 -16.708286,-6.01656 -35.559136,0.54275 -52.875772,-3.39424 -4.98844,-1.13414 -10.127523,2.15046 -12.826723,6.49616 -2.6992,4.3457 -3.519732,9.55798 -4.392743,14.59868 m 11.922319,-28.2782 c 0.317614,0.50797 1.000836,0.61106 1.597604,0.66373 5.340857,0.47143 10.681711,0.94287 16.022566,1.4143 1.043392,0.0921 2.381993,0.009 2.741882,-0.97424 0.298202,-0.81508 -0.325273,-1.65323 -0.906101,-2.29814 -1.538148,-1.70786 -3.076296,-3.41572 -4.614444,-5.12358 0.219904,1.91245 -2.372794,2.90972 -4.249707,2.48188 -1.876913,-0.42784 -3.662221,-1.58519 -5.568882,-1.31969 -1.751081,0.24384 -3.09413,1.62335 -4.291938,2.92373 -0.572457,0.62148 -1.17894,1.51558 -0.730981,2.23201 m 34.168224,-0.37744 c 1.468996,0.711 3.302116,-0.73014 3.422388,-2.35772 -2.957674,-1.16959 -6.45591,-0.87175 -9.173286,0.78102 1.331394,1.59556 3.696446,2.23466 5.650273,1.52685 m 8.707954,-1.19079 c -0.345574,0.52218 -0.691149,1.04436 -1.036723,1.56654 2.098364,1.97302 5.617538,2.20422 7.955992,0.52269 -1.321231,-2.20048 -4.376934,-3.15892 -6.718231,-2.10723 z"
     id="path3" /><path
     class="selected"
     fill="#000000"
     opacity="1"
     stroke="none"
     d="m 96.63061,312.01828 c -13.33068,-0.70653 -26.144252,-8.06565 -33.47228,-19.22388 5.454507,-1.44466 11.723302,1.19986 14.494994,6.11477 11.407627,-7.84081 24.994696,-12.47481 38.816026,-13.23856 -1.98545,0.0629 -2.19853,-3.48674 -0.31967,-4.13157 1.87886,-0.64484 3.88908,1.18153 4.14111,3.15191 4.28791,7.50104 13.95902,11.45155 22.2724,9.09795 -2.04772,1.12722 -0.59238,4.37648 1.39111,5.61322 1.9835,1.23675 4.64054,2.32042 4.86542,4.64706 0.39213,4.05706 -5.86536,4.04879 -9.87171,3.29865 -7.08596,-1.32674 -14.73087,0.74129 -20.18164,5.45936 10.42973,-0.31596 20.89753,0.64478 31.0955,2.85398 8.30781,1.79973 16.4126,4.41806 24.50124,7.03199 14.37899,4.64674 28.75799,9.29347 43.13699,13.94021 1.0896,0.35212 2.2657,0.76883 2.88117,1.73444 1.50507,2.3613 -1.56477,5.04466 -4.26515,5.78554 -7.95002,2.18117 -16.3506,0.0123 -24.41672,-1.69003 -7.64176,-1.61279 -15.36622,-2.80487 -23.10331,-3.87022 -20.32029,-2.79799 -40.76016,-4.72729 -61.2451,-5.78087 20.01716,14.92108 47.10677,14.77643 72.0611,13.99775 2.18933,-0.0683 3.17148,3.14561 1.92955,4.9499 -1.24192,1.80428 -3.594,2.41067 -5.75335,2.77812 -19.18265,3.26425 -38.69578,-1.79513 -57.49571,-6.81424 -7.61759,-2.0337 -15.68426,-4.33423 -20.953164,-10.19957 -3.189777,2.261 -6.449215,4.42373 -9.772132,6.48409 -1.804755,1.11903 -5.054618,1.57362 -5.248725,-0.54102 -0.05121,-0.55792 0.193685,-1.0956 0.432714,-1.60232 4.693113,-9.94889 9.386225,-19.89777 14.079337,-29.84666 m 32.51354,7.0337 c 10.4691,3.69366 21.47981,5.84814 32.56898,6.37282 -9.04642,-7.06812 -21.52567,-9.50996 -32.56898,-6.37282 M 87.682426,301.79867 c 0.128629,-0.84138 0.257259,-1.68277 0.385888,-2.52415 -1.497627,-1.06995 -3.844966,-0.64622 -4.873976,0.87983 0.403371,1.84791 2.838489,2.90289 4.462497,1.9333 z"
     id="path4" /><path
     class="selected"
     fill="#000000"
     opacity="1"
     stroke="none"
     d="m 36.949829,291.12499 c 2.349344,-0.003 3.380543,-2.85927 4.240281,-5.04566 0.859738,-2.18638 3.597964,-4.42202 5.222425,-2.7248 -1.388253,6.07718 -1.675622,12.40409 -0.844001,18.58209 0.748326,5.55921 2.391003,11.20785 1.148443,16.67785 -1.812687,7.97981 -9.11359,13.26253 -14.314942,19.57989 -3.859153,4.68719 -6.68922,10.21715 -8.233791,16.08887 -1.619207,-9.83636 -4.673261,-19.43534 -9.035534,-28.39896 -0.971623,-1.9965 -1.037447,-4.29659 -1.084754,-6.51646 -0.13616,-6.38921 -0.27232,-12.77843 -0.408479,-19.16764 -0.02884,-1.35327 -0.02294,-2.82039 0.791431,-3.90159 2.23325,-2.96497 2.785789,-6.81734 3.926026,-10.34981 1.140237,-3.53247 3.386152,-7.21567 7.025028,-7.9485 -0.835573,6.54371 4.971034,13.13179 11.567867,13.12472 M 19.316555,306.4468 c -1.979881,-0.45711 -3.110116,2.68642 -1.836762,4.26991 1.273354,1.58349 3.543952,1.84366 5.571144,1.98284 5.732728,0.39357 12.055468,0.61624 16.567928,-2.94139 -6.829828,-0.66084 -13.616462,-1.76776 -20.30231,-3.31136 m 5.114301,8.25815 c -1.547588,1.1844 -3.095177,2.3688 -4.642765,3.5532 1.364968,0.95596 2.904505,1.81573 4.570931,1.82048 1.666427,0.005 3.43575,-1.12714 3.611421,-2.78429 0.175671,-1.65715 -1.947845,-3.20922 -3.272901,-2.19866 z"
     id="path5" /><path
     class="selected"
     fill="#000000"
     opacity="1"
     stroke="none"
     d="m 387.73032,406.10311 c -2.37623,-2.39522 -3.43857,-6.96012 -6.81192,-6.89658 -1.75347,0.033 -3.24526,-1.40016 -3.93479,-3.01269 -2.54109,-5.9426 3.26474,-12.09118 3.96673,-18.51604 0.1161,-1.06257 0.11746,-2.22036 0.77387,-3.06396 1.14176,-1.46736 3.57395,-1.03635 4.96672,0.1953 1.39276,1.23165 2.17869,3.00558 3.41216,4.39674 2.21144,2.49414 5.59378,3.51176 8.50571,5.13406 2.91193,1.6223 5.68374,4.60405 5.01334,7.86928 -0.57888,2.81946 2.18631,5.17443 4.81009,6.35774 2.62378,1.1833 5.70857,2.16379 6.97975,4.74613 -0.1066,6.00602 -1.47275,12.25309 -5.36248,16.8306 -6.38138,7.50975 -19.28244,8.10878 -26.33227,1.22269 -2.75198,-2.68807 -7.5837,-1.90092 -10.4648,0.64828 -2.88108,2.5492 -4.29498,6.32566 -5.60363,9.94319 -0.38849,1.07393 -0.77658,2.2699 -0.34349,3.32663 0.84765,2.06827 4.01127,1.81001 5.74899,0.40409 1.73772,-1.40591 2.87331,-3.53118 4.83074,-4.61041 1.95743,-1.07923 5.25103,-0.0204 4.93886,2.19289 -5.60775,5.86129 -13.29504,9.69141 -21.35143,10.63812 -1.13033,0.13283 -2.42278,0.1577 -3.23212,-0.64247 -0.44379,-0.43876 -0.65879,-1.05608 -0.80742,-1.6622 -1.92244,-7.83994 4.84658,-14.8764 7.41763,-22.5282 4.19082,-12.47249 -2.97099,-26.93729 2.22284,-39.02654 1.03486,-2.40875 2.53766,-4.61544 4.39988,-6.46073 3.20294,7.49858 -3.81327,16.59235 -0.40798,24.00123 0.74332,1.61724 1.93089,2.98384 3.13749,4.29232 5.22955,5.67111 11.13221,10.72097 17.54444,15.00968 2.32468,1.55481 4.81462,3.04572 7.59122,3.38046 2.7766,0.33475 5.91117,-0.78457 7.13672,-3.29845 1.97306,-3.66377 -2.75779,-7.50688 -6.88809,-8.01363 -4.1303,-0.50674 -8.92603,0.0966 -11.85676,-2.85754 m -11.90379,3.22386 c -0.29337,-1.13232 -1.83744,-1.71407 -2.80505,-1.05683 -0.88973,1.90567 -1.27997,4.04192 -1.12144,6.13907 0.94547,0.87342 2.61618,0.17583 3.16675,-0.98764 0.55058,-1.16346 0.32788,-2.52803 0.0938,-3.79373 m 16.49314,-7.93281 c 0.50274,1.43171 2.18234,2.33441 3.65378,1.96373 1.19611,-1.24741 0.68651,-3.65327 -0.91263,-4.3086 -1.59913,-0.65533 -3.65051,0.70104 -3.67376,2.42909 z"
     id="path6" /><path
     class="selected"
     fill="#000000"
     opacity="1"
     stroke="none"
     d="m 104.66555,621.87381 c -1.7643,-0.64192 -4.51761,-0.72501 -4.714048,1.14213 -1.178104,11.19824 -6.708153,21.88183 -15.171097,29.30927 9.691264,-14.93194 14.75601,-36.3907 2.632744,-49.42565 -6.791826,-7.30258 -17.139613,-9.84632 -26.867028,-12.04495 -6.987798,-1.57941 -13.975595,-3.15883 -20.963393,-4.73824 -13.611226,-3.07647 -23.921727,-14.91825 -28.786478,-27.9974 2.238696,-0.14954 4.477389,-0.29908 6.716082,-0.44861 0.08628,1.44565 -0.694949,2.90971 -1.943866,3.6429 4.487071,4.06363 8.974142,8.12726 13.461213,12.19089 1.08197,0.97986 2.591271,2.02235 3.869051,1.3166 2.10363,-1.16188 0.144618,-4.24965 -1.569096,-5.9344 -1.713715,-1.68476 -1.919351,-5.82216 0.423614,-5.28761 1.00902,-1.8943 3.958059,0.13988 4.333459,2.25307 0.375401,2.11319 0.268324,4.84671 2.231048,5.71517 3.604318,1.59482 7.485702,-5.99317 10.364112,-3.30071 -2.433214,4.00481 -0.640482,9.94397 3.602175,11.93367 4.242656,1.98971 9.955309,-0.42961 11.478552,-4.86117 2.870553,4.4425 5.741106,8.88501 8.611659,13.32751 3.876014,0.68166 7.022664,-2.83074 10.231007,-5.10992 3.208343,-2.27918 9.176408,-2.34554 9.62863,1.56389 0.481596,4.16336 6.982736,3.16412 10.18087,0.45534 3.19813,-2.70878 7.98765,-6.02125 10.91804,-3.02486 3.01114,3.07896 7.74668,-3.45741 5.0152,-6.78697 -2.73147,-3.32956 -7.8159,-3.051 -12.0837,-2.47408 -1.89976,-3.03549 3.52017,-5.43952 6.95814,-4.43771 7.28196,2.12191 13.20694,8.36722 14.94286,15.75072 0.50166,2.13374 0.77148,4.52431 2.3844,6.00856 1.61291,1.48426 5.07291,0.73352 4.8893,-1.4507 1.27658,-3.03907 -1.34588,-6.1697 -2.38857,-9.29674 -1.04269,-3.12704 2.37001,-7.79589 4.59997,-5.36836 2.24144,2.44003 -2.01505,7.55896 0.82657,9.2628 3.8006,-1.56653 8.43755,-2.97136 11.76098,-0.55197 3.32343,2.41939 0.82113,9.57773 -2.853,7.73398 -2.24131,-1.12472 -5.32437,0.0292 -6.2764,2.34915 6.39274,2.20142 14.06248,-0.0554 18.24413,-5.36835 -1.43432,-3.43793 -4.82388,-5.97821 -8.5262,-6.38987 -0.84035,-3.79101 4.96677,-5.52197 8.51296,-3.94003 3.54618,1.58193 6.79468,4.70393 10.64459,4.19781 5.08488,-0.66848 7.05615,-6.90258 7.661,-11.99541 3.28953,1.90354 6.04465,4.71972 7.87563,8.05018 3.03402,0.0661 5.93658,-2.31067 6.47027,-5.29811 1.93078,2.40515 0.95911,6.52894 -1.84237,7.81905 15.10081,2.12431 30.85439,-0.67614 44.29791,-7.87466 2.17273,2.68429 2.86309,6.49711 1.7695,9.77282 3.70934,-1.2062 6.96102,3.80267 5.77329,7.51797 -1.18774,3.7153 -4.81644,6.00351 -8.18216,7.97482 -4.6912,2.74763 -11.19212,5.31434 -15.00758,1.44148 -5.63783,-5.72263 -15.24406,-2.06469 -22.24368,1.87728 -5.78785,3.25954 -11.5757,6.51908 -17.36355,9.77861 2.16878,0.96934 3.5571,3.44495 3.25316,5.80097 -1.81227,2.05793 -5.06837,0.036 -7.14025,-1.76029 -2.07187,-1.7963 -6.07623,-2.88415 -6.87965,-0.26234 -3.294,10.74942 -16.73685,13.86863 -27.90162,15.19081 6.50069,1.57187 13.00139,3.14374 19.50209,4.7156 0.63738,2.21822 1.27477,4.43644 1.91216,6.65465 -10.67858,-2.36833 -20.99326,-6.11874 -31.2721,-9.85858 -8.66684,-3.15334 -17.33368,-6.30667 -26.00053,-9.46001 m 118.90892,-23.11886 c 3.73214,-0.99193 5.88522,-5.77944 4.15092,-9.2298 -0.88078,-1.75229 -2.51854,-3.02718 -4.29277,-3.86288 -0.51648,0.84665 -1.03295,1.6933 -1.54943,2.53995 3.53126,1.67972 2.89073,6.83083 1.69128,10.55273 m -94.47765,23.37084 c 1.85434,1.57662 5.20455,0.60996 5.93394,-1.71218 -1.31458,-0.535 -2.71015,-1.08059 -4.11308,-0.8658 -1.40292,0.21479 -2.74442,1.50707 -2.46749,2.89906 m -26.35625,-23.23889 c 0.7962,1.81863 3.87122,1.89893 4.76126,0.12433 -0.60863,-1.04122 -1.41366,-2.12803 -2.59937,-2.3486 -1.18571,-0.22058 -2.55289,1.09492 -1.925,2.12463 m 11.48132,-3.82403 c 0.15604,1.16451 1.59569,1.95058 2.65968,1.45223 0.51234,-1.17986 1.02469,-2.35972 1.53704,-3.53959 -1.54547,-0.45605 -3.36559,0.57838 -3.76461,2.13954 z"
     id="path7" /><path
     class="selected"
     fill="#000000"
     opacity="1"
     stroke="none"
     d="m 23.675978,528.2293 c 0.305625,-1.60194 -1.373348,-3.02317 -3.002795,-3.09045 -1.629447,-0.0673 -3.137925,0.78628 -4.543856,1.61271 -2.133172,-0.26897 -2.619644,-3.44516 -1.323703,-5.16077 1.295941,-1.7156 3.490322,-2.41861 5.402459,-3.40172 1.912138,-0.9831 3.827356,-2.72658 3.615963,-4.86622 -0.490116,-1.16966 -2.304965,-0.57899 -3.15703,0.36032 -0.852064,0.9393 -1.887445,2.19439 -3.089907,1.79142 -0.436427,-0.14626 -0.772878,-0.49948 -1.032606,-0.87948 -1.275065,-1.86551 -0.87943,-4.67651 0.861024,-6.1176 4.687067,-3.88088 12.512318,3.52021 17.490144,0.0201 4.114668,7.10239 11.397966,12.28786 19.455772,13.85187 3.346495,0.64955 7.324751,1.0227 9.059897,3.95702 -3.867398,1.02963 -8.717578,3.59098 -7.746953,7.47361 0.624388,2.49763 -2.551295,4.11216 -5.070344,4.64357 -7.946216,1.67631 -17.054208,2.36324 -23.388644,-2.71882 -2.259776,-1.81299 -4.07236,-4.62967 -3.529421,-7.47551 m 8.243341,-7.94037 c 0.507047,2.35867 2.788038,4.209 5.200568,4.21868 -0.262739,-3.07435 -2.043873,-5.9821 -4.663259,-7.61289 -1.33596,0.46933 -1.638266,2.59557 -0.486062,3.41866 m 3.505347,12.442 c 1.080251,0.51727 1.662757,-1.30659 1.475298,-2.48955 -0.764725,-0.7579 -2.152306,-0.74742 -2.905507,0.0219 -0.5544,1.00285 0.286868,2.45788 1.432592,2.47777 z"
     id="path8" /><path
     class="selected"
     fill="#000000"
     opacity="1"
     stroke="none"
     d="m 49.702938,437.55994 c -6.189183,1.35064 -12.75577,0.92407 -18.718194,-1.21596 -0.24349,1.31533 -0.472965,2.63325 -0.688373,3.95347 -2.814918,-1.94972 -6.400611,1.65137 -6.977536,5.02662 -0.576925,3.37525 -0.0067,7.23211 -2.186228,9.8731 -3.213435,3.89379 -9.43345,2.08522 -14.0123,-0.0413 1.127058,-1.14219 2.254116,-2.28438 3.381173,-3.42657 1.790596,0.60815 3.338918,1.90146 4.256161,3.55517 2.280964,-1.50863 2.841417,-4.61094 2.755412,-7.34432 -0.08601,-2.73338 -0.594009,-5.56652 0.340047,-8.1368 0.934057,-2.57027 4.100972,-4.59685 6.424182,-3.15412 2.634027,1.63575 5.29607,-2.07053 6.210657,-5.03317 1.160781,-3.76015 2.321561,-7.5203 3.482342,-11.28045 11.979503,-3.30547 24.478179,-4.72197 36.893581,-4.18122 3.224473,0.14045 6.512762,0.40562 9.632511,-0.42149 8.81881,-2.33806 13.156803,-14.5545 7.787469,-21.93069 -2.026697,-2.7842 -4.991149,-4.72808 -7.337045,-7.2492 -2.345896,-2.52111 -4.107292,-6.13354 -2.909597,-9.36228 5.604216,3.69677 11.27951,7.45451 15.723272,12.48703 4.443763,5.03253 7.584988,11.57914 7.117898,18.27654 -4.95211,6.47352 -11.26421,11.90164 -18.406276,15.82857 -2.594309,1.42644 -5.707756,2.67393 -8.433898,1.51924 -11.770511,-4.98551 -26.084684,-3.39831 -36.477079,4.0447 3.079846,0.30434 6.061784,1.53801 8.456435,3.49855 2.055555,1.68292 3.944387,4.00528 6.593606,4.20317 2.649219,0.19789 4.834666,-4.03476 2.360708,-5.00277 4.485227,-4.35373 12.37875,-4.51697 17.040133,-0.35239 -3.564147,2.56413 -7.128295,5.12826 -10.692442,7.69239 -2.119562,1.52486 -4.429267,3.11421 -7.040349,3.11552 -2.611083,10e-4 -5.343221,-2.44547 -4.576273,-4.94137 z"
     id="path9" /><path
     class="selected"
     fill="#000000"
     opacity="1"
     stroke="none"
     d="m 6.524182,440.56527 c -1.649738,3.65077 -3.299476,7.30154 -4.949214,10.95232 -2.149444,-4.51041 -0.200854,-9.78173 1.312281,-14.54348 2.913881,-9.16982 4.136243,-18.8742 3.587362,-28.48019 -0.086688,-1.51712 -0.191934,-3.1447 0.592477,-4.44618 0.784412,-1.30149 2.859328,-1.90494 3.82135,-0.72864 -3.240232,8.87307 2.822613,19.91233 12.048895,21.93869 1.889999,0.4151 4.061597,0.61572 5.255447,2.13859 1.193849,1.52286 -0.371411,4.5542 -2.039099,3.57277 -6.723062,0.71115 -13.695696,-3.12657 -16.691653,-9.18707 -2.868714,2.24121 -0.84711,6.71884 -0.649146,10.35385 0.159952,2.93702 -1.077458,5.74894 -2.288698,8.42934 z"
     id="path10" /><path
     class="selected"
     fill="#000000"
     opacity="1"
     stroke="none"
     d="m 386.99728,361.49931 c -0.87758,-3.95681 2.40948,-7.5045 5.41126,-10.22771 7.29549,-6.61846 15.99622,-13.70264 25.75202,-12.34152 7.31256,1.02024 13.26453,6.84013 16.33873,13.55307 3.07421,6.71295 3.7302,14.25378 4.06921,21.62938 0.40419,8.79353 0.29295,18.1079 -4.19442,25.68108 -4.808,8.1143 -5.19237,18.36538 -10.48138,26.17469 -3.76016,5.55195 -9.60322,9.27851 -15.27997,12.84748 -1.92932,1.21297 -4.18553,2.47597 -6.36362,1.80552 -2.17809,-0.67045 -2.93331,-4.43872 -0.73295,-5.03203 8.04175,-2.16839 14.58527,-8.23643 19.05526,-15.26429 4.46998,-7.02787 7.12918,-15.02718 9.74542,-22.93457 2.43426,-7.35735 4.53515,-16.42412 -0.7832,-22.06073 1.78331,0.0553 3.56662,0.11052 5.34993,0.16579 -2.73964,-8.22138 -1.19731,-18.31979 -7.17267,-24.59606 -4.88246,-5.12835 -12.80591,-5.48364 -19.88675,-5.49599 -9.18182,-0.016 -11.64963,16.38629 -20.82687,16.09589 z"
     id="path11" /><path
     class="selected"
     fill="#000000"
     opacity="1"
     stroke="none"
     d="m 51.742824,205.05605 c 0.671125,-1.63598 1.366401,-3.31045 2.569602,-4.60627 2.100208,-2.26187 3.738958,-4.95039 4.787027,-7.85357 1.242869,-3.44279 1.671111,-7.19179 3.396362,-10.41994 1.725251,-3.22816 5.414225,-5.8967 8.904062,-4.79284 0.684697,0.63905 0.103807,1.85675 -0.736177,2.27102 -0.839985,0.41428 -1.836309,0.39109 -2.698166,0.75769 -3.806327,1.61907 -1.525817,7.99488 -4.225704,11.12859 -1.032741,1.19868 -2.896231,2.29293 -2.383761,3.78985 0.508485,1.48527 -0.639692,2.97371 -1.653166,4.17266 -5.796665,6.85747 -9.67648,15.3184 -11.090468,24.18558 -2.322338,-4.56101 -0.394849,-10.03943 1.547689,-14.77468 0.527567,-1.28603 1.055133,-2.57206 1.5827,-3.85809 z"
     id="path12" /><path
     class="selected"
     fill="#000000"
     opacity="1"
     stroke="none"
     d="m 57.135222,453.42331 c 1.948124,0.28794 3.393936,2.44991 2.915951,4.36031 4.215578,-0.83857 8.764446,0.16437 12.236524,2.69794 -9.290581,0.6866 -18.720612,-0.57479 -27.504116,-3.67904 1.949306,-1.85151 3.206238,-4.41576 3.475685,-7.0907 3.891741,-0.34977 7.783481,-0.69954 11.675221,-1.04931 -0.933089,1.58693 -1.866177,3.17386 -2.799266,4.7608 z"
     id="path13" /><path
     class="selected"
     fill="#000000"
     opacity="1"
     stroke="none"
     d="m 108.18789,500.25503 c 4.06341,-0.62355 7.44426,3.00383 9.69779,6.44211 2.25353,3.43828 4.72785,7.41955 8.77818,8.12307 2.19009,0.3804 5.42617,0.49596 5.38648,2.71848 -6.29395,0.67603 -12.84705,-1.74798 -17.18601,-6.35713 -1.8512,-3.38517 -4.68657,-6.22461 -8.06908,-8.08067 0.46421,-0.94862 0.92842,-1.89724 1.39264,-2.84586 z"
     id="path14" /><path
     class="selected"
     fill="#000000"
     opacity="1"
     stroke="none"
     d="m 60.432075,496.1341 c 2.056351,0.18367 4.112703,0.36734 6.169054,0.551 0.802206,0.0717 1.854815,0.42141 1.780925,1.22342 -7.548581,4.72101 -17.921266,4.42844 -25.191734,-0.71056 5.430611,-2.06785 11.45381,-1.58082 17.241755,-1.06386 z"
     id="path15" /><path
     class="selected"
     fill="#000000"
     opacity="1"
     stroke="none"
     d="m 427.58179,369.77549 c -3.32095,-0.10619 -4.99719,-3.96465 -5.88724,-7.16587 -1.13736,-4.0907 -2.27472,-8.1814 -3.41208,-12.2721 6.50553,3.93436 10.31821,11.90385 9.29932,19.43797 z"
     id="path16" /><path
     class="selected"
     fill="#000000"
     opacity="1"
     stroke="none"
     d="m 132.78081,535.31772 c -0.2376,1.96032 -3.29905,1.81662 -4.76991,0.49911 -1.47086,-1.31751 -2.64694,-3.31484 -4.61228,-3.50646 -1.07065,-2.89947 -2.1413,-5.79895 -3.21195,-8.69842 4.71927,3.28553 8.97278,7.23901 12.59414,11.70577 z"
     id="path17" /><path
     class="selected"
     fill="#000000"
     opacity="1"
     stroke="none"
     d="m 374.41097,485.07876 c -5.44241,0.56461 -11.57114,0.60252 -15.6016,-3.09801 5.56202,-2.05441 11.88444,-1.96922 17.38909,0.2343 0.85593,0.0362 1.11733,1.33657 0.55918,1.9865 -0.55815,0.64992 -1.49455,0.7888 -2.34667,0.87721 z"
     id="path18" /><path
     class="selected"
     fill="#000000"
     opacity="1"
     stroke="none"
     d="m 6.603282,524.2666 c 3.791887,6.57259 4.620071,14.7829 2.217187,21.98037 C 6.4327,539.21378 5.668216,531.63497 6.603281,524.2666 Z"
     id="path19" /><path
     class="selected"
     fill="#000000"
     opacity="1"
     stroke="none"
     d="m 351.88073,478.6405 c -2.26191,-2.27603 -5.45787,-3.75126 -6.87849,-6.62848 -1.42063,-2.87722 1.2403,-7.51881 4.07001,-6.00577 0.69902,0.37376 1.19139,1.03385 1.66018,1.67304 2.89441,3.94651 5.78882,7.89302 8.68323,11.83954 0.66347,1.68301 -1.7387,3.18105 -3.4541,2.60649 -1.7154,-0.57456 -2.80561,-2.20164 -4.08083,-3.48481 z"
     id="path20" /><path
     class="selected"
     fill="#000000"
     opacity="1"
     stroke="none"
     d="m 82.467313,462.32534 c 2.518736,2.68997 5.037471,5.37994 7.556207,8.06991 -5.679819,-0.82155 -10.972406,-4.04558 -14.307811,-8.71574 0.150691,-1.42833 1.923768,-2.20233 3.31634,-1.85079 1.392571,0.35155 2.453595,1.44821 3.435266,2.49662 z"
     id="path21" /><path
     class="selected"
     fill="#000000"
     opacity="1"
     stroke="none"
     d="m 237.18553,551.3098 c -2.50014,1.16365 -5.57719,-0.56623 -6.86503,-3.00473 -1.28784,-2.43849 -1.26086,-5.33292 -1.20312,-8.08999 1.58648,-1.10764 4.18607,0.32762 4.09394,2.26031 0.79767,3.14593 2.14933,6.15058 3.97421,8.83441 z"
     id="path22" /><path
     class="selected"
     fill="#000000"
     opacity="1"
     stroke="none"
     d="m 184.53087,319.15252 c 6.73862,-0.22521 13.5205,0.93423 19.80158,3.38532 -6.60585,2.26419 -14.32311,0.94483 -19.80158,-3.38532 z"
     id="path23" /><path
     class="selected"
     fill="#000000"
     opacity="1"
     stroke="none"
     d="m 37.783543,458.20061 c -0.884877,2.24721 -3.970845,3.2815 -6.031221,2.02143 1.585979,-3.63882 3.257476,-7.24036 5.012647,-10.80065 1.989375,2.41597 2.490623,5.96488 1.24818,8.83732 z"
     id="path24" /><path
     class="selected"
     fill="#000000"
     opacity="1"
     stroke="none"
     d="m 345.93594,429.27358 c -0.54283,-3.07703 2.2764,-5.61158 4.79734,-7.45756 0.93578,4.64948 -0.0997,9.66295 -2.80092,13.56126 -0.64104,-2.03584 -1.28208,-4.07167 -1.92312,-6.1075 z"
     id="path25" /><path
     class="selected"
     fill="#000000"
     opacity="1"
     stroke="none"
     d="m 249.94109,547.95652 c 0.95291,-3.01356 3.90508,-4.86672 6.6664,-6.4045 2.76131,-1.53778 5.75591,-3.24523 6.93286,-6.17855 1.17695,-2.93333 -0.94371,-7.17787 -4.06077,-6.65485 -2.96912,0.49819 -3.7997,4.29119 -5.68688,6.63691 -2.2668,2.81756 -6.78751,3.47047 -9.75891,1.40943 3.11525,0.24852 6.24373,-2.00324 6.99709,-5.03621 1.15019,-4.63061 5.8178,-8.1239 10.58483,-7.92182 0.42836,1.23454 0.6124,2.55333 0.53838,3.85798 3.01026,-1.35532 6.60214,1.26024 7.52686,4.42938 0.92473,3.16913 -0.01,6.54897 -0.94154,9.7161 -3.2216,0.75849 -6.58003,1.58489 -9.08343,3.74985 -2.5034,2.16495 -3.80182,6.11144 -1.96698,8.86597 0.80769,1.21252 -1.14229,2.42245 -2.59861,2.38081 -1.45631,-0.0416 -3.4286,-0.0476 -3.76228,1.37054 0.92916,2.25483 4.4133,2.05399 6.22328,0.41952 1.80998,-1.63448 2.64708,-4.07663 4.16038,-5.98909 1.51329,-1.91246 4.44157,-3.24004 6.33909,-1.70806 1.09073,0.8806 2.72431,0.41256 4.06197,0.83188 2.97841,0.93365 2.72393,5.57272 0.4948,7.75758 -2.22913,2.18487 -5.46863,2.97868 -7.99701,4.80896 -2.52839,1.83028 -4.14945,5.83258 -1.86592,7.96052 -3.77762,-0.15389 -7.55524,-0.30778 -11.33287,-0.46167 0.2944,2.40998 -2.27393,4.69738 -4.63387,4.12702 -1.22387,-0.29579 -1.44721,1.95818 -0.35616,2.58662 1.09105,0.62843 2.46447,0.29522 3.70749,0.49578 1.24302,0.20056 2.50055,1.65412 1.67023,2.60063 -3.80086,-0.11792 -7.56524,-1.25738 -10.79344,-3.26713 -0.28206,-1.02115 1.00689,-1.71245 2.03136,-1.98216 -1.64155,-0.40794 -2.62962,-2.47426 -1.91658,-4.00811 -2.19186,-0.77834 -4.50078,-1.63774 -5.95272,-3.45486 -1.45195,-1.81712 -1.56463,-4.9094 0.38266,-6.18146 0.1254,1.69591 2.63475,2.10107 4.05844,1.17106 1.42369,-0.93002 2.24563,-2.55652 3.5739,-3.61837 1.66732,-1.3329 4.11018,-1.61052 6.03408,-0.68574 -3.12763,-2.72971 -0.52773,-7.66582 0.72387,-11.62396 z"
     id="path26" /><path
     class="selected"
     fill="#000000"
     opacity="1"
     stroke="none"
     d="m 36.074293,251.60619 c 0.980643,2.73797 -0.258282,6.09314 -2.783005,7.53673 -0.841681,-5.83545 1.766067,-12.03963 6.523994,-15.52144 -0.898404,2.56344 -1.79681,5.12688 -2.695215,7.69032 z"
     id="path27" /><path
     class="selected"
     fill="#000000"
     opacity="1"
     stroke="none"
     d="m 122.47985,635.01796 c 3.16587,0.16861 6.27019,1.34862 8.74869,3.32554 -3.741,2.88262 -10.1715,0.51873 -11.15474,-4.10056 0.70295,-0.63291 2.01093,-0.31053 2.33924,0.57656 z"
     id="path28" /><path
     class="selected"
     fill="#000000"
     opacity="1"
     stroke="none"
     d="m 115.26744,548.68382 c -0.60261,1.72465 -1.86851,3.20808 -3.47694,4.07441 -0.59298,-1.71109 -1.1942,-3.52195 -0.84513,-5.29891 0.34908,-1.77697 2.02994,-3.42834 3.80262,-3.05809 1.77268,0.37025 2.31178,3.41303 0.58056,3.94442 z"
     id="path29" /><path
     class="selected"
     fill="#000000"
     opacity="1"
     stroke="none"
     d="m 242.62193,570.47971 c 1.39883,-1.515 2.9932,-3.1306 5.04689,-3.31587 2.05369,-0.18527 4.25808,2.08753 3.18898,3.85076 -2.41587,2.22778 -6.2672,2.72533 -9.16991,1.18465 -0.84642,-0.33522 -0.58057,-1.89727 0.32909,-1.93362 z"
     id="path30" /><path
     class="selected"
     fill="#000000"
     opacity="1"
     stroke="none"
     d="m 142.8426,571.17222 c -0.0969,1.48257 -2.25302,1.95549 -3.51063,1.16443 -1.25762,-0.79106 -1.90023,-2.24161 -2.77477,-3.44267 -1.42136,-1.95203 -3.60352,-3.33447 -5.97566,-3.7857 1.5609,-1.77039 4.42913,-1.83152 6.53001,-0.75585 2.10088,1.07566 3.59868,3.02324 4.96562,4.94735 0.39869,0.5612 0.81031,1.1855 0.76543,1.87244 z"
     id="path32" /><path
     class="selected"
     fill="#000000"
     opacity="1"
     stroke="none"
     d="m 174.87181,620.62183 c -1.24831,2.92511 -5.80387,3.65416 -7.9027,1.26471 1.51849,-1.3668 3.03697,-2.7336 4.55546,-4.1004 0.91094,0.72241 1.82188,1.44481 2.73283,2.16722 z"
     id="path33" /><path
     class="selected"
     fill="#000000"
     opacity="1"
     stroke="none"
     d="m 211.55317,567.00291 c -0.50144,1.08002 -2.08025,1.46637 -3.02374,0.73994 0.54032,-2.38191 2.72963,-4.29206 5.16281,-4.50448 2.43318,-0.21243 4.92037,1.28943 5.86528,3.54168 -2.65106,-0.0505 -5.30245,-0.0838 -7.95394,-0.0997 z"
     id="path34" /><path
     class="selected"
     fill="#000000"
     opacity="1"
     stroke="none"
     d="m 216.10154,551.69331 c -5.0811,0.397 -10.12411,3.59075 -14.66616,9.28788 2.81314,3.51038 5.81563,7.11592 8.94743,6.39007 3.13181,-0.7258 6.24775,-7.70568 5.65131,-15.41173 z"
     id="path35"
     style="stroke-width:2.5593" /><path
     class="selected"
     fill="#000000"
     opacity="1"
     stroke="none"
     d="m 203.63031,560.51512 c 3.13616,0.0982 6.24881,0.88818 9.05226,2.29738 -1.73633,0.8683 -3.58953,1.76014 -5.52254,1.5806 -1.93302,-0.17953 -3.85624,-1.90602 -3.48812,-3.81213 z"
     id="path35-3" /><path
     class="selected"
     fill="#000000"
     opacity="1"
     stroke="none"
     d="m 192.29895,567.79621 c -2.50014,1.16365 -5.57719,-0.56623 -6.86503,-3.00473 -1.28784,-2.43849 -1.26086,-5.33292 -1.20312,-8.08999 1.58648,-1.10764 4.18607,0.32762 4.09394,2.26031 0.79767,3.14593 2.14933,6.15058 3.97421,8.83441 z"
     id="path22-6" /><path
     class="selected"
     fill="#000000"
     opacity="1"
     stroke="none"
     d="m 212.27982,549.99118 c 3.13616,0.0982 6.24881,0.88818 9.05226,2.29738 -1.73633,0.8683 -3.58953,1.76014 -5.52254,1.5806 -1.93302,-0.17953 -3.85624,-1.90602 -3.48812,-3.81213 z"
     id="path35-7" /><path
     class="selected"
     fill="#000000"
     opacity="1"
     stroke="none"
     d="m 196.35172,569.00421 c 3.13616,0.0982 6.24881,0.88818 9.05226,2.29738 -1.73633,0.8683 -3.58953,1.76014 -5.52254,1.5806 -1.93302,-0.17953 -3.85624,-1.90602 -3.48812,-3.81213 z"
     id="path35-3-5" /><path
     class="selected"
     fill="#000000"
     opacity="1"
     stroke="none"
     d="m 139.05204,644.09408 c 1.3261,0.94864 0.55027,3.38915 -1.04442,3.72888 -1.59469,0.33974 -3.19179,-1.03713 -3.52468,-2.63326 -0.33289,-1.59614 0.32873,-3.25368 1.29437,-4.56745 1.07201,1.2143 2.14402,2.42859 3.21603,3.64289 z"
     id="path36" /><path
     class="selected"
     fill="#000000"
     opacity="1"
     stroke="none"
     d="m 204.09075,321.78747 c 0.39812,-3.49338 -2.82305,-6.46143 -6.1878,-7.48155 -3.36475,-1.02013 -6.98058,-0.74105 -10.4422,-1.35702 -1.67767,-0.29853 -3.44227,-0.8952 -4.42014,-2.29073 -0.97786,-1.39552 -0.65231,-3.74879 0.95801,-4.30609 -1.7727,-0.68244 -3.93104,1.2243 -3.47242,3.06763 -11.78362,-0.91651 -21.10924,-9.85726 -31.54009,-15.41523 -5.357,-2.85443 -11.16457,-4.86119 -17.14101,-5.92295 6.31487,-4.39612 14.91179,-1.99529 22.1707,0.55654 12.48515,4.3891 24.97029,8.7782 37.45544,13.1673 8.60247,3.02415 17.22659,6.05727 25.43166,10.0353 2.91339,1.41249 5.76989,2.94233 8.56023,4.58457 -1.76049,2.0783 -5.02475,2.2847 -7.53134,1.21902 -2.50658,-1.06568 -4.433,-3.12375 -6.28053,-5.12507 -1.33175,-1.4426 -3.94358,0.46032 -3.77954,2.41678 0.16404,1.95646 1.84464,3.39028 3.39498,4.59489 -2.39198,0.7522 -4.78397,1.50441 -7.17595,2.25661 z"
     id="path37" /><path
     class="selected"
     fill="#000000"
     opacity="1"
     stroke="none"
     d="m 103.61553,468.21775 c -0.40737,1.34274 -0.87057,2.77028 -1.96875,3.64373 -1.09817,0.87344 -3.038491,0.80979 -3.623067,-0.46582 1.918842,-2.09062 3.837687,-4.18125 5.756527,-6.27188 1.21739,0.36047 1.45372,2.34752 0.35485,2.98348 z"
     id="path38" /><path
     class="selected"
     fill="#000000"
     opacity="1"
     stroke="none"
     d="m 31.20185,418.33951 c -0.914368,2.3767 -3.772252,3.81084 -6.224245,3.12343 -0.343275,-0.71095 -0.06966,-1.57595 0.374591,-2.22858 1.265897,-1.85968 3.965274,-2.57127 5.983427,-1.5773 z"
     id="path39" /><path
     class="selected"
     fill="#000000"
     opacity="1"
     stroke="none"
     d="m 163.32219,570.41554 c 0.65371,2.71804 -2.86614,5.3613 -5.29412,3.97567 2.02124,-2.31933 4.04247,-4.63865 6.06371,-6.95797 0.94703,0.54965 0.93108,2.17776 -0.0265,2.70875 z"
     id="path40" /><path
     class="selected"
     fill="#000000"
     opacity="1"
     stroke="none"
     d="m 99.975465,349.17387 c 1.583605,0.80701 0.434975,3.66641 -1.341374,3.60602 -1.776349,-0.0604 -2.962534,-2.07421 -2.8103,-3.84505 0.152233,-1.77085 1.231727,-3.30682 2.273986,-4.74653 1.652455,1.00882 2.420113,3.25765 1.729428,5.06632 z"
     id="path41" /><path
     class="selected"
     fill="#000000"
     opacity="1"
     stroke="none"
     d="m 190.42968,171.58477 c -1.49413,1.19297 -3.77266,-1.23514 -2.8919,-2.93216 0.88075,-1.69702 3.39424,-1.90172 5.03226,-0.91555 1.63801,0.98616 2.60425,2.76121 3.49428,4.45338 -1.7334,0.99036 -4.04133,0.86681 -5.6591,-0.30295 z"
     id="path42" /><path
     class="selected"
     fill="#000000"
     opacity="1"
     stroke="none"
     d="m 142.78671,525.84581 c 0.29798,-1.40384 1.88971,-2.38515 3.2778,-2.02079 1.38809,0.36437 2.29265,2.00093 1.86273,3.37014 -1.80634,1.32107 -4.7024,0.72047 -5.83444,-1.20996 z"
     id="path43" /><path
     class="selected"
     fill="#000000"
     opacity="1"
     stroke="none"
     d="m 105.03053,414.42275 c -1.01796,0.3042 -2.03592,0.60839 -3.05387,0.91259 -0.0151,-2.08167 0.90612,-4.15252 2.46243,-5.53508 1.62349,0.78322 1.96901,3.34464 0.61108,4.53003 z"
     id="path44" /><path
     class="selected"
     fill="#000000"
     opacity="1"
     stroke="none"
     d="m 93.144387,459.53012 c 0.693323,2.66446 -2.940056,5.22612 -5.216756,3.678 0.379279,-2.06351 2.472753,-3.66041 4.563124,-3.48076 z"
     id="path45" /><path
     class="selected"
     fill="#000000"
     opacity="1"
     stroke="none"
     d="m 126.42391,501.94224 c 1.11904,0.25139 1.71395,1.77546 1.06115,2.71848 -1.90861,0.61731 -4.14131,0.0864 -5.56778,-1.32391 0.99431,-1.37651 2.91982,-1.99708 4.53078,-1.46022 z"
     id="path46" /><path
     class="selected"
     fill="#000000"
     opacity="1"
     stroke="none"
     d="m 195.68243,612.74035 c 0.12862,0.84138 0.25725,1.68276 0.38588,2.52415 -1.49762,1.06995 -3.84496,0.64622 -4.87397,-0.87983 0.40337,-1.84791 2.83849,-2.90289 4.46249,-1.93331 z"
     id="path47" /><path
     class="selected"
     fill="#000000"
     opacity="1"
     stroke="none"
     d="m 107.86721,424.25635 c 0.16174,-1.49026 0.32348,-2.98052 0.48522,-4.47078 2.27722,1.39019 2.85029,4.91911 1.13001,6.95848 -1.05546,0.55282 -1.64097,-1.28886 -1.41867,-2.45942 z"
     id="path48" /><path
     class="selected"
     fill="#000000"
     opacity="1"
     stroke="none"
     d="m 80.513642,326.69479 c -1.121788,0.23574 -2.913038,-0.35625 -2.331642,-1.34416 0.987359,-2.17145 4.30666,-2.78102 6.001121,-1.10207 -1.225281,0.8487 -2.450562,1.69739 -3.675843,2.54608 z"
     id="path49" /><path
     class="selected"
     fill="#000000"
     opacity="1"
     stroke="none"
     d="m 110.28621,472.13683 c 0.66735,-1.39138 2.95372,-1.06808 3.8086,0.21662 0.85488,1.2847 0.7101,2.96436 0.53263,4.49726 -2.1442,-0.27336 -3.86996,-2.42029 -3.67602,-4.57312 z"
     id="path51" /><path
     class="selected"
     fill="#000000"
     opacity="1"
     stroke="none"
     d="m 108.97996,527.07622 c 1.41177,-0.32214 2.20304,1.92871 1.28262,3.04661 -0.92042,1.1179 -2.54219,1.28059 -3.98814,1.35875 0.0169,-1.73214 1.17693,-3.39776 2.79576,-4.01418 z"
     id="path52" /><path
     class="selected"
     fill="#000000"
     opacity="1"
     stroke="none"
     d="m 74.532888,575.66362 c -1.217985,-0.16677 -1.121116,-2.21463 -0.02627,-2.77374 1.09485,-0.55911 2.412064,-0.11703 3.557191,0.33017 -0.05227,1.66585 -1.957011,2.98966 -3.536596,2.45796 z"
     id="path54" /><path
     class="selected"
     fill="#000000"
     opacity="1"
     stroke="none"
     d="m 196.64666,546.05339 c 1.62145,0.5369 2.58915,2.52705 2.0101,4.13393 -1.14827,0.28405 -2.53081,-0.006 -3.16654,-1.00399 -0.63573,-0.99752 -0.0228,-2.64818 1.15934,-2.68897 z"
     id="path55" /><path
     class="selected"
     fill="#000000"
     opacity="1"
     stroke="none"
     d="m 178.25113,548.67629 c -2.50014,1.16365 -5.57719,-0.56623 -6.86503,-3.00473 -1.28784,-2.43849 -1.26086,-5.33292 -1.20312,-8.08999 1.58648,-1.10764 4.18607,0.32762 4.09394,2.26031 0.79767,3.14593 2.14933,6.15058 3.97421,8.83441 z"
     id="path22-3" /><path
     class="selected"
     fill="#000000"
     opacity="1"
     stroke="none"
     d="m 168.17043,557.88161 c 3.13616,0.0982 6.24881,0.88818 9.05226,2.29738 -1.73633,0.8683 -3.58953,1.76014 -5.52254,1.5806 -1.93302,-0.17953 -3.85624,-1.90602 -3.48812,-3.81213 z"
     id="path35-3-56" /><path
     class="selected"
     fill="#000000"
     opacity="1"
     stroke="none"
     d="m 153.34542,547.35767 c 3.13616,0.0982 6.24881,0.88818 9.05226,2.29738 -1.73633,0.8683 -3.58953,1.76014 -5.52254,1.5806 -1.93302,-0.17953 -3.85624,-1.90602 -3.48812,-3.81213 z"
     id="path35-7-2" /><path
     class="selected"
     fill="#000000"
     opacity="1"
     stroke="none"
     d="m 137.71226,543.41988 c 1.62145,0.5369 2.58915,2.52705 2.0101,4.13393 -1.14827,0.28405 -2.53081,-0.006 -3.16654,-1.00399 -0.63573,-0.99752 -0.0228,-2.64818 1.15934,-2.68897 z"
     id="path55-9" /><path
     class="selected"
     fill="#000000"
     opacity="1"
     stroke="none"
     d="m 31.148151,263.84384 c 0.410642,1.73474 -0.905768,3.67692 -2.669223,3.93806 -0.907321,-2.07329 0.926014,-4.79083 3.188211,-4.72588 z"
     id="path56" /><path
     class="selected"
     fill="#000000"
     opacity="1"
     stroke="none"
     d="m 134.02459,168.0344 c 0.27973,1.41367 0.55946,2.82734 0.83919,4.24101 -0.98627,0.9548 -2.87923,0.62213 -3.48086,-0.61173 -0.60162,-1.23386 0.30204,-2.93015 1.66168,-3.1192 z"
     id="path57" /><path
     class="selected"
     fill="#000000"
     opacity="1"
     stroke="none"
     d="m 1.071195,456.2775 c -0.344712,-1.097 0.276263,-2.77059 1.375911,-2.43443 0.448048,1.1566 0.896092,2.31319 1.344137,3.46979 -0.834525,1.00917 -2.843948,0.24064 -2.792056,-1.06786 z"
     id="path58" /><path
     class="selected"
     fill="#000000"
     opacity="1"
     stroke="none"
     d="m 127.93988,551.28712 c 0.23384,0.87236 0.0705,1.84307 -0.43601,2.59083 -0.86049,-0.13665 -1.72097,-0.2733 -2.58145,-0.40995 -0.36152,-1.38223 1.60537,-2.08032 3.0335,-2.12146 z"
     id="path60" /><path
     class="selected"
     fill="#000000"
     opacity="1"
     stroke="none"
     d="m 8.169201,521.30576 c -0.199351,1.40792 -2.349552,2.00943 -3.250516,0.90933 0.512954,-1.14861 1.025906,-2.29722 1.538858,-3.44582 1.073835,-0.53791 1.665835,1.30071 1.466443,2.48507 z"
     id="path61" /><path
     class="selected"
     fill="#000000"
     opacity="1"
     stroke="none"
     d="m 144.50005,556.8223 c 0.83373,-0.24971 1.77919,-0.093 2.48779,0.41229 0.17425,0.88108 0.0131,1.82429 -0.44382,2.59753 -1.53117,-0.0639 -3.05691,-1.90278 -2.05022,-3.05826 z"
     id="path63" /><path
     class="selected"
     fill="#000000"
     opacity="1"
     stroke="none"
     d="m 293.53088,279.76697 c -1.28897,0.51138 -1.83284,-1.74027 -1.14535,-2.94455 1.13775,0.40151 1.73015,1.89951 1.17475,2.9706 z"
     id="path64" /><path
     class="selected"
     fill="#000000"
     opacity="1"
     stroke="none"
     d="m 50.994166,570.31852 c 0.723249,-0.70998 1.973095,-0.79558 2.786384,-0.19083 -0.02391,1.49362 -2.771048,1.67943 -2.995874,0.20264 z"
     id="path66" /><path
     class="selected"
     fill="#000000"
     opacity="1"
     stroke="none"
     d="m 206.37529,613.74127 c -0.29753,0.97442 -1.77064,1.31089 -2.46173,0.56229 -0.0286,-1.4755 2.78329,-1.94575 2.7176,-0.47143 z"
     id="path68" /><path
     class="selected"
     fill="#000000"
     opacity="1"
     stroke="none"
     d="m 228.97323,543.42619 c 1.4116,9.35858 10.82938,2.82567 8.75914,-6.076 -2.89658,-4.06274 -7.75989,-0.26331 -8.32995,6.50766 z"
     id="path69"
     style="stroke-width:4.36288" /><path
     class="selected"
     fill="#000000"
     opacity="1"
     stroke="none"
     d="m 79.023192,566.17262 c -0.741629,0.19193 -0.894964,-1.22094 -0.186503,-1.51237 0.708461,-0.29143 1.484237,0.16829 2.111583,0.60794 0.408593,0.95107 -1.309604,1.82019 -1.833634,0.92751 z"
     id="path70" /><path
     class="selected"
     fill="#000000"
     opacity="1"
     stroke="none"
     d="m 228.22135,235.02654 c 1.41757,-6.76177 7.52024,-14.11275 3.19408,-19.49935 4.27731,0.44154 8.21199,-4.26105 7.02277,-8.39337 4.69804,1.39022 4.33574,9.7631 -0.46483,10.74231 2.36677,1.47984 5.68336,1.23089 7.80269,-0.58567 -0.34463,-10.88167 1.44618,-21.8269 5.24082,-32.03132 -14.42368,-0.49961 -28.81122,-2.03981 -43.01381,-4.60467 6.35733,-0.22305 12.65025,-2.08667 18.10385,-5.36138 -5.31671,-9.31827 -21.95415,-0.57361 -29.7252,-7.97011 -11.94466,-11.36895 -33.84042,3.10652 -47.57272,-6.02321 -1.65993,-1.10358 -2.26303,-4.58213 -0.30096,-4.2306 -11.41489,3.57359 -24.364,1.88394 -34.47972,-4.49905 2.76665,3.36309 -0.63016,8.87239 -4.91847,9.63073 -4.28832,0.75833 -8.47402,-1.569 -12.083679,-4.0052 4.331629,-1.38128 8.663269,-2.76256 12.994899,-4.14384 -9.90672,-2.3945 -20.471438,-2.00216 -30.17327,1.12054 -2.865349,5.97452 -5.730698,11.94904 -8.596047,17.92356 C 76.847684,156.25174 67.54458,135.8666 51.153634,129.05652 40.308788,124.55072 34.490474,111.94293 34.940647,100.20793 35.39082,88.472929 40.951991,77.539958 47.416522,67.735739 55.480648,55.505546 65.148958,44.334443 76.095569,34.598969 92.355329,20.138194 113.07791,8.474571 134.753,10.394009 c 17.86198,1.58177 35.07226,-6.264321 52.76904,-9.158558 21.67399,-3.544694 44.5277,0.608747 63.56847,11.552962 0.83682,5.354725 -0.43617,11.010583 -3.48651,15.490407 8.26044,5.075669 16.52088,10.151338 24.78131,15.227008 -1.44055,-9.552552 -9.60465,-17.694004 -19.16116,-19.10802 2.33067,-5.394023 10.79182,-3.403337 14.77461,0.916953 3.98279,4.320289 6.96545,10.38026 12.675,11.768992 22.20683,5.401364 44.41366,10.802728 66.62049,16.204092 13.76561,3.348208 28.05946,6.955609 38.93575,16.033542 3.16859,2.644681 7.25258,3.859191 11.18363,5.116645 15.40365,4.927277 30.28568,11.483519 44.31777,19.524092 22.87606,13.108276 45.08717,33.032926 47.67613,59.271026 1.08926,11.03919 13.09839,18.25612 15.27181,29.13391 1.19104,5.96106 -0.77728,12.03541 -1.51922,18.06883 -1.69887,13.81527 3.06341,27.53724 4.23101,41.40751 1.1676,13.87027 -2.95321,30.20694 -15.71787,35.75772 -4.253,1.84944 -5.97665,6.85001 -7.2913,11.2975 -10.24506,34.65942 -23.24004,68.5056 -38.82259,101.11574 0.9005,-13.78932 1.72571,-28.1005 -3.3053,-40.97082 -5.03102,-12.87032 -17.70059,-23.86412 -31.42739,-22.27314 -9.08675,1.05318 -17.02275,7.26622 -26.1429,7.97405 -5.94459,0.46137 -12.36403,-1.39236 -17.63609,1.39268 -1.92659,1.01775 -3.63035,2.63416 -5.78961,2.92603 -2.15927,0.29187 -4.71267,-1.93537 -3.60098,-3.80933 -18.54561,19.36405 -30.1915,45.20616 -32.414,71.92631 -3.95564,-0.11444 -4.61927,-5.71121 -3.9972,-9.6193 2.12162,-13.3287 4.24324,-26.6574 6.36486,-39.98609 -8.83176,5.73424 -15.26242,15.04987 -17.49304,25.34093 1.38059,-12.64302 2.76119,-25.28604 4.14178,-37.92906 2.2643,-0.47186 4.5286,-0.94371 6.79291,-1.41557 -1.41157,-2.55932 -2.82314,-5.11864 -4.2347,-7.67797 -2.22211,1.11793 -4.44422,2.23585 -6.66633,3.35377 2.95031,-10.66641 -4.05823,-21.20511 -9.7356,-30.7048 -5.67736,-9.49968 -10.05349,-22.43418 -2.91486,-30.89092 -2.04328,-3.62217 -4.08656,-7.24434 -6.12984,-10.86651 -0.97523,9.1628 -1.95047,18.32561 -2.9257,27.48842 -11.36135,-9.09464 -24.22706,-16.30549 -37.91447,-21.24994 -8.09862,-2.92555 -16.67744,-5.16437 -23.52317,-10.38763 -6.84573,-5.22327 -11.53353,-14.56487 -8.30035,-22.54566 3.90245,9.236 12.1591,16.51954 21.80978,19.23932 -6.82528,-6.60933 -14.24526,-15.00379 -12.29582,-24.30259 M 143.98556,56.950036 c 6.98066,-11.5605 23.77342,-13.159707 32.3974,-23.552094 -0.27028,2.182102 2.3852,3.79128 4.54216,3.364501 2.15696,-0.42678 3.79813,-2.128658 5.28992,-3.743954 2.6338,-2.851855 5.2676,-5.70371 7.9014,-8.555565 1.29009,-1.396901 2.17652,-4.272195 0.30833,-4.626514 -1.77247,1.801966 -4.27951,2.628816 -6.66535,3.463387 -15.83288,5.538371 -30.61641,14.060287 -43.34405,24.985518 -1.48196,1.272097 -3.01836,2.713582 -3.4091,4.627155 -0.39074,1.913574 1.04052,4.27338 2.97929,4.037566 M 135.01925,29.57171 c -1.68679,0.221026 -3.52864,0.394018 -4.7594,1.568464 -1.05385,1.005619 -1.40762,2.514346 -1.97991,3.853875 -1.57772,3.692908 -4.931,6.252569 -7.70496,9.156347 -2.77396,2.903778 -5.16859,6.88262 -4.08926,10.750672 3.42648,-2.836582 6.85296,-5.673164 10.27945,-8.509746 4.35363,-3.604122 9.18294,-8.858457 7.09402,-14.11015 0.66246,-1.298546 2.70271,-0.917737 3.75624,0.0898 1.05353,1.007541 1.74314,2.44454 3.04951,3.09143 1.95472,0.96794 4.24832,-0.265654 6.01498,-1.544999 4.58636,-3.321248 8.74249,-7.235891 12.33202,-11.615467 -0.88072,-0.878463 -1.76143,-1.756926 -2.64215,-2.635388 -5.89211,5.363451 -13.45041,8.869973 -21.35054,9.905158 m 177.61092,24.897098 c -0.36212,1.318518 -1.99879,1.831836 -3.36144,1.718729 -4.34271,-0.360465 -7.22056,-4.450167 -10.0867,-7.732587 -2.86614,-3.282419 -7.68676,-6.21138 -11.31347,-3.795589 3.53377,3.95016 7.06754,7.900321 10.60131,11.850482 1.63708,1.829986 3.32481,3.750408 3.97773,6.117387 0.33992,1.232293 0.38972,2.55977 0.97217,3.697683 0.58245,1.137912 1.99518,2.0237 3.13289,1.440866 1.88127,-2.688341 1.21364,-6.855951 3.74662,-8.941693 1.41517,-1.165301 3.39643,-1.271087 5.22887,-1.323727 4.56414,-0.131112 9.12828,-0.262223 13.69242,-0.393335 2.08076,-0.705789 0.17917,-4.169009 -2.01657,-4.088908 -2.19573,0.0801 -4.10559,1.700321 -6.30008,1.809333 -3.08011,0.153006 -5.42941,-2.595546 -7.25596,-5.080347 -1.82741,-0.139034 -0.53243,2.954447 -1.01779,4.721706 M 237.39148,34.184145 c -2.10038,-0.939351 -4.29197,-1.897735 -6.59175,-1.827338 -2.29978,0.0704 -4.73248,1.498978 -5.15967,3.759833 -0.25813,1.366105 -2.08782,1.562387 -3.47548,1.647617 -9.55409,0.586808 -15.44729,10.3821 -19.64755,18.983425 -0.73875,1.512808 -1.49601,3.113716 -1.38735,4.793754 0.10867,1.680038 1.43089,3.407649 3.11231,3.322899 2.6254,-5.478334 5.54581,-10.815276 8.74435,-15.979986 0.78938,-1.274628 1.70056,-2.624402 3.11882,-3.110567 1.41825,-0.486165 3.36763,0.496792 3.21192,1.987951 4.19559,-0.688241 5.01876,-6.667682 8.58467,-8.983057 3.03871,-1.97306 8.01046,-1.28719 9.48973,-4.594531 M 102.7378,36.148386 c 5.04529,-4.724958 11.38252,-8.056537 18.13511,-9.533905 8.26543,-1.808352 16.13996,-5.382767 22.94243,-10.414055 -11.63344,-1.599911 -22.89688,9.091517 -34.19953,5.906131 -2.41702,1.642052 -4.89919,3.349364 -6.49079,5.799895 -1.59161,2.450531 -2.08044,5.860483 -0.38722,8.241933 m 134.93932,6.482869 c -2.19594,0.09921 -3.53264,2.414723 -4.31363,4.469485 -2.0924,5.505031 -3.24519,11.365835 -3.39362,17.253234 2.49707,1.786226 5.4872,-1.688635 6.17586,-4.680579 0.68866,-2.991944 1.59576,-6.890515 4.65068,-7.19622 -0.18949,2.224797 -0.24716,4.667138 1.09773,6.449529 1.34488,1.78239 4.63244,2.095677 5.56422,0.06653 0.37715,-0.821319 0.27432,-1.776244 0.11034,-2.66502 -0.80855,-4.382281 -2.95175,-8.509123 -6.07156,-11.691089 -1.03832,-1.058999 -2.33843,-2.07281 -3.82002,-2.005873 M 179.11753,6.735218 c -4.93902,2.119146 -6.3826,8.302505 -7.18744,13.616352 0.87953,0.174451 1.75906,0.348903 2.63859,0.523354 1.73739,-4.335269 6.49707,-6.682392 11.07638,-7.600535 4.57932,-0.918144 9.35672,-0.813164 13.82405,-2.175525 2.15122,-0.656037 4.40587,-3.552104 2.45702,-4.674654 -0.45583,-0.262563 -1.00781,-0.277527 -1.53379,-0.28566 -4.89862,-0.075741 -9.79724,-0.151485 -14.69586,-0.227228 -2.22732,-0.034439 -4.53183,-0.054443 -6.57895,0.823896 m 16.48026,28.067446 c -1.95022,-0.316849 -3.21913,1.995803 -3.62582,3.929291 -0.40668,1.933487 -0.90004,4.300423 -2.78567,4.890507 -1.07603,0.336735 -2.24335,-0.07358 -3.36441,0.04663 -2.177,0.23343 -3.60911,2.311709 -4.73856,4.187386 -3.18682,5.292372 -6.37364,10.584744 -9.56046,15.877115 4.6689,-1.275686 8.86591,-4.211634 11.66509,-8.160119 2.20482,-3.110094 4.41518,-7.323206 8.2235,-7.148256 2.67821,0.123034 4.44378,-2.928781 4.55195,-5.607629 0.10816,-2.678847 -0.76493,-5.363795 -0.36561,-8.014921 m 9.68715,-2.631742 c 1.14155,1.174584 3.02522,-0.249407 3.96567,-1.590421 3.60453,-5.139795 6.75593,-10.597242 9.40571,-16.288356 1.03157,-2.215578 1.30003,-5.82783 -1.12195,-6.154835 -1.33941,-0.18084 -2.44886,0.96838 -3.30759,2.012065 -4.87685,5.927187 -10.03315,12.675783 -9.50519,20.333229 0.0417,0.604774 0.14085,1.253592 0.56335,1.688317 m 247.92686,83.176415 c -2.15022,0.57073 -2.45746,3.6582 -1.40903,5.62034 1.04844,1.96213 2.91604,3.41459 3.83696,5.4397 3.08216,6.77767 9.36637,12.01365 16.58902,13.82192 2.63843,-0.68911 5.5316,-1.55955 6.96269,-3.88079 1.43109,-2.32124 -0.14895,-6.2963 -2.83873,-5.84769 -0.12836,3.08241 -2.02065,6.03021 -4.76975,7.43027 -7.26505,-6.49464 -13.49142,-14.14874 -18.37116,-22.58375 M 76.109672,43.400276 c 4.523959,-1.227023 9.047918,-2.454046 13.571878,-3.681068 3.292606,-0.893046 7.375189,-2.913146 6.852639,-6.284456 -0.260264,-2.059804 -3.357232,-1.734172 -5.219567,-0.816439 -3.925297,1.93434 -7.850595,3.868678 -11.775893,5.803015 -2.018582,0.994731 -4.409821,2.95354 -3.42906,4.978947 m 185.632251,2.614326 c -1.08857,0.27523 -1.7705,1.421196 -1.88477,2.538186 -0.3687,3.603748 3.77522,6.057675 7.38839,6.318243 1.87943,0.135539 3.92805,-0.113901 5.31646,-1.387849 1.38841,-1.273948 1.66651,-3.823522 0.15173,-4.944271 -2.9831,-0.781527 -5.96619,-1.563053 -8.94929,-2.344578 -0.66218,-0.173481 -1.35888,-0.347524 -2.02252,-0.179732 m -48.51594,18.949214 c -0.235,1.245695 -0.41636,2.564504 0.0182,3.75535 0.36236,0.992919 1.15604,1.819818 2.13328,2.222555 3.95863,-6.45507 5.35359,-14.43573 3.81937,-21.850906 -2.88743,4.892919 -4.91767,10.29011 -5.97088,15.873001 m 73.00518,-6.57702 c -0.0189,1.679353 -0.003,3.478348 0.94561,4.864018 0.94894,1.38567 3.21058,1.976155 4.30019,0.698138 0.86386,-1.013234 0.56163,-2.554977 0.0782,-3.795624 -1.37707,-3.534089 -3.86682,-6.625211 -7.0264,-8.723573 -1.85611,1.923175 -0.96604,5.678854 1.55574,6.564504 M 126.93036,56.616558 c -3.73158,1.1484 -7.09227,3.471359 -9.48525,6.556342 -1.56111,2.012546 -2.74411,4.65076 -1.94847,7.070338 5.03616,-3.290139 9.06828,-8.095609 11.43372,-13.626679 m -46.753502,2.950274 c -0.99592,1.152198 -2.031901,2.387353 -2.275552,3.890699 -0.243651,1.503346 0.676073,3.302586 2.194735,3.416963 1.785728,-2.53432 3.571456,-5.068641 5.357184,-7.602961 1.072166,-1.521627 1.706157,-4.304601 -0.121518,-4.657436 -1.815441,1.513078 -3.630878,3.026155 -5.446315,4.539231 M 222.07846,13.953855 c 3.96626,1.599895 8.87933,0.452244 11.72637,-2.739181 -0.92732,-2.259712 -4.01093,-2.929873 -6.28445,-2.036943 -2.27353,0.89293 -3.90981,2.873789 -5.44192,4.776125 m -82.53133,51.909413 c -2.36237,1.71768 -3.97733,4.428787 -4.36283,7.324056 5.05318,-1.781983 8.81364,-6.221649 10.98376,-11.120689 -2.65959,-0.419894 -5.49936,1.264764 -6.40577,3.800148 m 105.45918,-0.655266 c 1.44429,3.903125 3.36985,7.627896 5.71921,11.063135 1.7776,-2.001012 2.16797,-5.117579 0.93883,-7.49521 -1.22914,-2.37763 -3.9976,-3.861202 -6.65804,-3.567926 m -3.29101,195.434703 c -1.30507,-0.5107 -2.49544,1.74429 -1.33753,2.53375 2.56321,0.91694 5.69185,-0.15082 7.15968,-2.44349 1.46783,-2.29268 1.12807,-5.581 -0.77752,-7.52511 -1.76918,1.39345 -2.55364,3.91793 -1.88579,6.06867 -1.02978,0.34254 -2.05956,0.68507 -3.08934,1.0276 M 427.43856,107.8007 c -2.36731,1.98518 -1.15039,6.61027 1.88739,7.17331 2.04074,-3.37193 2.06197,-7.86764 0.0532,-11.25868 -1.3604,0.58476 -2.27953,2.06729 -2.19831,3.54582 m -112.62396,206.6719 c 2.15422,-0.93132 4.68623,-0.94924 6.85341,-0.0485 0.74457,-0.39309 0.2905,-1.52571 -0.24016,-2.17938 -1.49881,-1.84622 -3.41489,-3.87713 -5.78028,-3.63251 -2.3654,0.24463 -3.20964,4.54779 -0.8363,4.69685 m -37.78916,-47.45624 c 0.0706,-3.20239 -1.22005,-6.41265 -3.48758,-8.67509 -1.6852,2.46776 -1.69458,5.96582 -0.0226,8.44258 0.52377,0.93724 2.07033,1.03315 2.7059,0.16782 m 218.39033,-82.53709 c -0.82795,1.93208 1.98242,3.89779 3.84696,2.92728 1.86455,-0.97051 2.34762,-3.5448 1.68879,-5.54089 -2.05698,-0.63228 -4.50357,0.69654 -5.09305,2.76619 M 247.02963,20.422823 c 1.80701,-1.104719 -0.46326,-4.238087 -2.4602,-3.53245 -1.99693,0.705637 -2.68108,3.205452 -2.61041,5.322218 1.69254,1.38695 4.72536,0.23822 5.07436,-1.921998 m 79.46847,335.370687 c 1.15327,0.39205 2.42294,-0.81692 2.32092,-2.03072 -0.10202,-1.21381 -1.2573,-2.15665 -2.46606,-2.30706 -1.70883,-0.44317 -3.84369,0.62146 -3.99751,2.3801 -0.15382,1.75864 2.54121,3.07885 3.54551,1.62701 M 357.45087,58.889741 c -2.55422,-0.658975 -5.37065,-0.228863 -7.61176,1.162431 2.38993,1.931079 6.28383,1.605711 8.32014,-0.695215 M 203.97213,70.234098 c 0.40034,-2.016696 -3.36963,-2.927869 -3.88907,-0.938518 -0.51945,1.989351 3.33375,2.935711 3.75085,0.922415 m -3.21922,-43.189041 c -1.29786,1.400479 -2.59571,2.800959 -3.89357,4.201438 1.88524,0.7269 4.24835,-0.922546 4.21608,-2.942813 m -27.52052,15.373663 c 1.36233,-0.573752 1.97806,-2.448821 1.22108,-3.718508 -0.89887,0.421121 -1.86678,0.909442 -2.28206,1.811025 -0.41529,0.901582 0.17549,2.262601 1.1631,2.162912 M 325.73939,190.28612 c 0.16552,1.48218 2.89755,1.4442 3.0218,-0.042 -0.3282,-1.16023 -2.39174,-1.09129 -2.64179,0.0882 m -90.70794,72.21535 c 0.85796,-0.18538 0.38053,-1.71281 -0.4972,-1.71827 -0.87774,-0.005 -1.50804,0.82856 -1.90507,1.61138 0.81991,0.15054 1.63983,0.30108 2.45974,0.45162 M 113.52317,35.841056 c -1.10515,0.601507 -1.9138,1.720847 -2.1377,2.959001 1.54078,0.02079 3.08979,-1.833718 2.10405,-3.018099 z"
     id="path71" /></svg>
