<?xml version="1.0" encoding="utf-8"?><!DOCTYPE svg PUBLIC "-//W3C//DTD SVG 1.1//EN" "http://www.w3.org/Graphics/SVG/1.1/DTD/svg11.dtd"><svg version="1.1" id="Contours" xmlns="http://www.w3.org/2000/svg" xmlns:xlink="http://www.w3.org/1999/xlink" x="0px" y="0px" width="878.000549px" height="878.000549px" viewBox="0.000000 0.000000 878.000549 804.444092" enable-background="new 0 0 878.000549 878.000549" xml:space="preserve" stroke="black" fill="none" stroke-linecap='round' stroke-linejoin='round'><path class="selected"  fill="#000000" opacity="1.000000" stroke="none" 
 	d="
M836.711574 772.160801 C838.847299 773.891405 839.746140 776.999892 838.863609 779.603245 C837.538260 779.524957 836.212910 779.446669 834.887561 779.368380 C834.746246 782.251519 834.604932 785.134657 834.463618 788.017796 C834.400196 789.311763 834.300355 790.704328 833.476470 791.704121 C832.256733 793.184282 829.975864 793.211568 828.431599 794.349057 C826.887334 795.486545 827.755167 798.969276 829.395535 797.975382 C830.521389 798.585534 830.289447 800.425700 829.278406 801.211589 C828.267364 801.997478 826.881442 802.030888 825.600885 802.030053 C814.419058 802.022755 803.237230 802.015458 792.055402 802.008161 C802.284359 788.565595 815.619540 777.501753 830.719214 769.929833 C831.389724 772.319147 834.641799 773.529901 836.711574 772.160801 z"/><path class="selected"  fill="#000000" opacity="1.000000" stroke="none" 
 	d="
M723.911190 718.440277 C725.792574 719.160571 724.534401 721.937202 724.407582 723.947761 C724.290255 725.807825 725.471000 727.473511 726.617000 728.943303 C727.763001 730.413094 728.989399 732.022881 728.986624 733.886640 C728.983850 735.750398 726.981940 737.635219 725.331717 736.768979 C725.118205 742.146046 723.537972 747.463372 720.780214 752.084326 C714.257632 767.396319 707.735050 782.708313 701.212467 798.020307 C700.244742 800.292076 698.228708 803.031084 695.959911 802.056412 C695.964270 795.874931 697.002334 789.695420 699.018003 783.851811 C702.959076 772.426284 705.283981 760.444606 705.902004 748.374280 C710.669434 744.934773 712.966272 739.103422 715.022947 733.596274 C718.582576 724.064677 722.142205 714.533080 725.701834 705.001482 C728.641295 705.176558 730.262080 708.897177 729.428002 711.721250 C728.593923 714.545324 726.193239 716.579274 723.911190 718.440277 z"/><path class="selected"  fill="#000000" opacity="1.000000" stroke="none" 
 	d="
M645.000549 801.998202 C644.994524 801.154908 644.988498 800.311615 644.982473 799.468322 C646.453337 798.686385 648.485308 800.405231 647.958077 801.985388 C646.971720 801.990262 645.985363 801.995136 644.999006 802.000009 z"/><path class="selected"  fill="#000000" opacity="1.000000" stroke="none" 
 	d="
M115.855189 801.708946 C112.236654 802.089013 108.585010 802.153333 104.955335 801.900935 C106.910054 800.645932 107.141725 797.428128 105.386945 795.906055 C103.825956 796.524622 102.458022 797.620909 101.514283 799.009673 C100.674677 798.172467 99.835071 797.335261 98.995466 796.498055 C99.802412 794.462731 101.684570 793.025847 102.619720 791.046149 C103.554870 789.066452 102.689688 785.913296 100.503077 786.024832 C99.852491 786.058018 99.255087 786.389782 98.724882 786.768260 C94.037827 790.114029 93.778064 798.064625 98.236730 801.709204 C95.780442 801.823636 93.324155 801.938067 90.867868 802.052498 C79.731178 777.678271 67.834726 752.321955 46.655673 735.903170 C46.989264 733.943023 49.966006 734.414230 51.640471 735.486436 C69.395162 746.855284 78.898356 767.092476 89.293738 785.434116 C90.193230 787.021182 91.346439 788.771712 93.152867 789.026039 C97.769769 783.786410 97.128231 774.785127 91.814896 770.253244 C90.090927 771.328070 88.524927 772.655810 87.182598 774.180759 C85.458331 770.375265 91.323604 765.645967 88.776429 762.334354 C86.330737 762.629467 84.155040 764.519329 83.520624 766.899669 C82.418907 767.396585 81.173885 766.156554 81.178767 764.947967 C81.183648 763.739379 81.971054 762.692698 82.721787 761.745541 C84.265325 759.798148 85.808863 757.850754 87.352401 755.903361 C97.510123 770.749892 107.022988 786.037602 115.855189 801.708946 z"/><path class="selected"  fill="#000000" opacity="1.000000" stroke="none" 
 	d="
M685.460386 781.857563 C684.254433 783.215500 685.780496 785.223709 687.141839 786.425816 C688.503183 787.627923 689.782241 789.918288 688.322347 790.998577 C687.071376 791.924268 687.521231 793.835330 687.642617 795.386812 C687.764004 796.938295 686.435440 799.000424 685.125495 798.160259 C685.426942 799.437866 685.728388 800.715473 686.029834 801.993080 C684.493213 802.019932 682.956591 802.046784 681.419969 802.073635 C682.229105 797.262491 683.038241 792.451348 683.847377 787.640204 C684.060070 786.375531 684.252903 784.990586 683.607880 783.882173 C680.087080 777.832009 682.500421 769.098661 688.628198 765.714749 C688.611944 767.769210 687.987265 769.815125 686.853156 771.528271 C687.863631 771.761290 688.874106 771.994310 689.884582 772.227329 C689.105715 775.285856 688.326849 778.344382 687.547982 781.402909 C687.133449 782.082654 686.120050 782.303360 685.460387 781.857562 z"/><path class="selected"  fill="#000000" opacity="1.000000" stroke="none" 
 	d="
M143.787394 802.017874 C143.029686 790.810211 142.271978 779.602547 141.514270 768.394884 C141.078473 761.948781 140.642670 755.476917 141.118575 749.033651 C142.254805 733.650296 148.503068 719.170270 154.664683 705.029084 C156.015709 701.928416 157.444756 698.719184 160.000453 696.503823 C162.556150 694.288461 166.585876 693.384130 169.332885 695.357287 C167.794225 696.737510 167.731895 699.440629 169.205301 700.890305 C172.586206 693.756070 182.174057 692.805887 190.068694 692.856193 C185.925637 699.328106 181.358824 705.528702 176.407205 711.405099 C169.697193 719.368292 168.511385 730.464840 167.612856 740.839297 C167.086998 746.910880 166.561140 752.982463 166.035282 759.054046 C165.650969 763.491329 165.580073 768.708987 169.061583 771.486803 C170.222619 772.413162 171.694483 772.942741 173.179568 772.968458 C170.899732 757.431689 172.952066 741.282103 179.045586 726.809446 C182.615590 729.843081 180.400903 735.496352 179.417589 740.076850 C178.083261 746.292451 179.671234 752.705228 180.316122 759.029645 C180.961009 765.354062 180.354439 772.471541 175.746740 776.851408 C169.305224 782.974419 172.031585 793.604319 175.215896 801.901581 C164.739729 801.940345 154.263561 801.979110 143.787394 802.017874 M167.329692 776.080991 C167.276839 775.176257 165.908698 774.713065 165.317105 775.399617 C165.554918 776.290113 165.940797 777.330895 166.839526 777.535395 C167.738254 777.739896 168.398498 776.068470 167.482072 775.969992 z"/><path class="selected"  fill="#000000" opacity="1.000000" stroke="none" 
 	d="
M247.498281 625.762208 C248.886910 626.024767 249.506045 628.041918 248.552691 629.085157 C247.599338 630.128395 245.610033 629.772553 245.011578 628.492287 C245.841243 627.661525 246.670909 626.830761 247.500574 625.999997 z"/><path class="selected"  fill="#000000" opacity="1.000000" stroke="none" 
 	d="
M689.346472 722.022438 C690.725355 718.596786 693.382616 715.703127 696.678633 714.037989 C696.393322 717.925797 693.195947 721.407620 689.346473 722.022440 z"/><path class="selected"  fill="#000000" opacity="1.000000" stroke="none" 
 	d="
M809.425248 723.956342 C810.379266 722.491823 813.223793 723.724813 812.807211 725.422289 C811.355601 727.607978 808.013717 728.235521 805.868088 726.725327 C806.733735 725.448127 808.019861 724.461057 809.477496 723.955197 z"/><path class="selected"  fill="#000000" opacity="1.000000" stroke="none" 
 	d="
M833.412014 768.898167 C834.518844 767.970373 836.103439 767.647295 837.485150 768.067707 C838.006016 768.719839 838.176341 769.636242 837.924582 770.431976 C836.479396 771.734286 833.758895 770.945689 833.234233 769.072376 z"/><path class="selected"  fill="#000000" opacity="1.000000" stroke="none" 
 	d="
M261.881699 762.707385 C261.931679 757.823374 262.186601 752.416884 265.600307 748.923653 C266.623641 760.437390 266.032084 772.093494 263.848345 783.444469 C263.428745 784.768236 261.674395 782.964876 261.688604 781.576273 C261.752970 775.286643 261.817334 768.997014 261.881699 762.707385 z"/><path class="selected"  fill="#000000" opacity="1.000000" stroke="none" 
 	d="
M247.000459 799.500043 C245.840219 799.987450 244.679978 800.474857 243.519738 800.962263 C241.737038 800.110864 241.676968 797.093382 243.424372 796.171708 C245.077254 796.604495 246.494185 797.856063 247.127733 799.442867 z"/><path class="selected"  fill="#000000" opacity="1.000000" stroke="none" 
 	d="
M266.689725 742.990718 C266.830154 744.515189 266.970584 746.039659 267.111013 747.564130 C265.829316 748.130676 264.132411 747.195800 263.926493 745.809679 C263.720574 744.423558 265.072429 743.035766 266.463474 743.205255 z"/><path class="selected"  fill="#000000" opacity="1.000000" stroke="none" 
 	d="
M239.708427 659.909034 C253.830556 654.891742 260.482157 637.196482 274.713115 632.496738 C275.088969 632.372613 275.490144 632.257522 275.875402 632.348346 C277.532802 632.739071 276.421400 635.275409 275.072931 636.315252 C263.734408 645.058706 252.395888 653.802158 241.057367 662.545609 C240.607720 661.666751 240.158073 660.787892 239.708427 659.909034 z"/><path class="selected"  fill="#000000" opacity="1.000000" stroke="none" 
 	d="
M807.488353 736.070115 C807.156381 734.649760 809.523755 733.892091 810.510731 734.966098 C811.497706 736.040106 811.244667 737.766457 810.611491 739.080497 C809.978314 740.394537 809.024800 741.583078 808.727202 743.011030 C808.382763 744.663729 808.971710 746.352801 809.088296 748.036980 C809.204883 749.721159 808.551057 751.748877 806.910483 752.147080 C803.660093 752.936019 802.645966 758.029831 805.346347 760.003509 C804.211074 760.814842 803.075802 761.626174 801.940529 762.437506 C802.926108 762.740109 803.106603 764.184304 802.511561 765.026243 C801.916520 765.868181 800.874358 766.245893 799.897729 766.576240 C801.918684 771.584739 798.264740 776.939211 794.826162 781.104004 C789.745078 787.258186 784.663996 793.412369 779.582914 799.566553 C778.910290 800.381233 778.205211 801.221591 777.248000 801.668664 C776.281163 802.120233 775.172365 802.116860 774.105339 802.104924 C767.001816 802.025463 759.898293 801.946003 752.794770 801.866542 C762.737017 788.806243 765.581657 770.696893 777.908597 759.858709 C780.708448 757.397003 781.082919 753.275852 781.988200 749.659275 C782.893481 746.042697 785.402401 742.028348 789.123710 742.254243 C790.057354 744.566602 793.873954 744.846587 795.135056 742.695234 C796.396157 740.543881 794.287379 737.350468 791.813619 737.665441 C790.781044 737.796914 789.525031 738.329466 788.849905 737.537190 C792.359979 734.683574 795.572841 731.464596 798.419773 727.949101 C799.629424 728.800420 800.549032 730.056324 800.995361 731.466569 C800.290599 732.693611 798.661263 733.297244 797.327160 732.825555 C796.141384 733.818416 797.417120 735.912643 798.951658 736.105074 C800.486197 736.297505 801.928471 735.441439 803.403605 734.976876 C804.878738 734.512313 806.863637 734.655348 807.488353 736.070115 M802.367992 754.659208 C800.883395 751.871843 796.847997 750.842888 794.209979 752.579059 C795.493528 755.126657 798.966986 756.288651 801.525123 755.026234 z"/><path class="selected"  fill="#000000" opacity="1.000000" stroke="none" 
 	d="
M220.846240 650.470722 C228.410906 644.099477 235.975572 637.728231 243.540238 631.356985 C245.548071 635.348701 243.404600 640.151803 240.834220 643.806710 C232.850846 655.158528 220.258907 663.166106 206.592803 665.581817 C201.874700 666.415820 195.496915 665.883941 193.918862 670.407856 C207.449733 671.188818 221.134749 669.194740 233.880127 664.585001 C235.203566 664.106341 236.265988 666.143003 235.556617 667.358485 C234.847245 668.573968 233.323917 668.995148 231.950486 669.302218 C214.465164 673.211558 196.711564 675.920485 178.856039 677.403614 C177.538887 677.513021 176.044549 677.556413 175.094128 676.637958 C176.518060 673.252240 181.311880 673.667078 184.879173 672.792401 C194.062260 670.540770 198.197562 657.099839 207.652638 657.121050 C212.687067 657.132345 216.995590 653.713884 220.846240 650.470722 z"/><path class="selected"  fill="#000000" opacity="1.000000" stroke="none" 
 	d="
M215.497520 692.087607 C211.697842 693.724487 211.950332 699.040725 211.966195 703.177955 C212.020214 717.267039 202.207315 729.219895 192.926561 739.820499 C192.681879 740.099978 192.424631 740.388677 192.081415 740.530734 C190.532227 741.171946 189.721450 738.651020 190.040239 737.004962 C191.244357 730.787547 194.319297 725.113623 196.406568 719.134539 C198.493840 713.155456 199.529267 706.316781 196.701096 700.650425 C195.449646 698.143093 196.891668 694.963760 199.175945 693.340515 C201.460221 691.717270 204.348477 691.265067 207.121020 690.857822 C210.011588 690.433243 213.329992 690.128659 215.497520 692.087604 z"/><path class="selected"  fill="#000000" opacity="1.000000" stroke="none" 
 	d="
M354.382330 431.122291 C344.624786 434.404525 334.151518 430.243154 324.263535 427.377752 C315.036227 424.703805 305.486795 423.143358 295.888288 422.741031 C293.661282 422.647684 292.915390 419.716158 293.003864 417.488953 C293.092339 415.261748 293.033975 412.432683 290.975415 411.577930 C294.088037 408.059162 299.755688 409.302635 304.197659 410.832023 C314.737136 414.460813 325.276613 418.089601 335.816090 421.718389 C342.425317 423.993975 349.238982 426.388777 354.382331 431.122289 M303.920129 416.586939 C302.388241 415.311385 299.748089 415.775300 298.742808 417.496675 C300.436958 418.287118 302.633699 417.801464 303.836744 416.370514 z"/><path class="selected"  fill="#000000" opacity="1.000000" stroke="none" 
 	d="
M555.610862 376.247144 C557.176583 373.712043 558.742304 371.176942 560.308025 368.641841 C568.754276 374.401546 573.933808 383.731133 578.809542 392.716708 C579.900891 394.727973 580.524319 398.004959 578.324097 398.633646 C577.503394 398.868149 576.638594 398.538863 575.849355 398.213835 C567.293292 394.690234 557.921793 390.145517 554.824301 381.426141 C554.559046 380.679454 554.344336 379.893356 554.411597 379.103813 C554.500119 378.064718 555.062866 377.134419 555.610862 376.247144 z"/><path class="selected"  fill="#000000" opacity="1.000000" stroke="none" 
 	d="
M301.111044 377.868843 C303.074385 378.736853 305.037727 379.604863 307.001069 380.472872 C307.247522 381.674438 307.085913 382.955926 306.548861 384.058683 C304.476058 380.513221 298.269174 381.625677 296.116336 378.128235 C294.770385 375.941645 295.869099 372.903735 297.891467 371.321713 C299.913835 369.739692 302.578031 369.281636 305.132382 369.020767 C313.430737 368.173279 321.884831 368.876084 329.929334 371.082183 C335.465223 372.600327 341.886792 369.491357 344.129422 364.207283 C347.222254 369.414150 342.064031 376.270504 336.146489 377.558823 C330.228947 378.847142 324.198970 376.628007 318.300903 375.253280 C312.402835 373.878553 305.430448 373.623868 301.111044 377.868843 z"/><path class="selected"  fill="#000000" opacity="1.000000" stroke="none" 
 	d="
M348.839087 288.227331 C347.844186 285.254921 349.515797 281.912698 352.005591 280.008499 C354.495385 278.104299 357.639615 277.320161 360.688915 276.594338 C366.530679 275.203827 373.534929 274.156704 377.802335 278.381509 C383.263247 283.787905 389.615993 288.291393 396.525464 291.654413 C392.491991 295.743402 384.395456 290.618569 380.131301 294.466388 C374.668935 299.395428 367.472735 302.363425 360.123793 302.718274 C359.875679 304.620301 362.044290 306.073836 363.961113 306.002736 C365.877935 305.931635 367.601827 304.894379 369.393086 304.208339 C376.249759 301.582274 383.887815 304.131850 390.776347 306.673168 C402.982843 311.176389 415.189339 315.679611 427.395835 320.182832 C430.971335 321.501906 434.817324 322.839444 438.513910 321.912400 C439.992096 323.200270 437.796892 325.381765 435.903918 325.891953 C430.051979 327.469137 423.682509 327.055585 418.083647 324.734930 C413.183508 322.703886 408.167640 319.182179 403.079958 320.682842 C401.685355 321.094193 400.118329 321.857499 398.888932 321.081156 C390.171488 315.576229 379.957047 312.468053 369.650860 312.184234 C366.008264 312.083921 361.961954 312.191430 359.240857 309.767754 C357.502700 308.219580 354.828635 305.760173 353.568579 307.717286 C352.312701 309.667911 348.942308 308.256982 348.316829 306.022939 C347.691351 303.788896 348.681541 301.469385 349.259046 299.222463 C350.184951 295.620004 350.037085 291.748668 348.839087 288.227331 z"/><path class="selected"  fill="#000000" opacity="1.000000" stroke="none" 
 	d="
M309.283964 292.800834 C311.208565 290.711320 309.915912 287.087879 307.556597 285.505542 C305.197282 283.923205 302.216515 283.719137 299.417837 283.231735 C296.619159 282.744333 293.602461 281.718645 292.213892 279.240332 C291.392988 277.775185 289.520327 277.381359 287.942322 276.806520 C286.364316 276.231680 284.673357 274.811033 285.153534 273.201694 C285.302077 272.703839 285.644321 272.288685 286.002104 271.911962 C289.350326 268.386510 294.766167 267.170323 299.453626 268.461497 C304.141086 269.752670 308.033314 273.334839 310.185206 277.694743 C313.391734 284.191419 312.715413 292.430783 308.492396 298.317612 C305.537476 294.281066 298.611190 294.169015 295.527246 298.107865 C292.636787 301.799595 286.774296 299.582394 282.795804 297.101421 C280.859049 295.893667 281.087359 292.754723 282.712360 291.151893 C284.337360 289.549063 286.770612 289.129503 289.048129 288.979159 C295.971111 288.522163 303.004488 289.850464 309.283964 292.800834 z"/><path class="selected"  fill="#000000" opacity="1.000000" stroke="none" 
 	d="
M420.498066 290.620475 C425.342613 293.271856 430.791382 294.606153 435.819886 296.889485 C440.848390 299.172818 445.717194 302.771525 447.442322 308.017799 C439.666556 305.398089 431.912909 302.712011 424.197542 299.919425 C417.197538 297.385766 410.229242 294.764501 403.294837 292.056453 C401.886105 291.506310 400.410650 290.903327 399.474487 289.715563 C400.378193 285.681717 405.509846 283.982182 409.530503 284.942861 C413.551159 285.903539 416.871796 288.635847 420.498066 290.620475 z"/><path class="selected"  fill="#000000" opacity="1.000000" stroke="none" 
 	d="
M431.471501 318.987819 C420.493918 313.487632 409.250932 308.517193 397.794750 304.099583 C395.531464 303.226839 392.791732 301.598333 393.256281 299.217507 C406.047219 302.712757 418.422244 307.727429 430.038126 314.122436 C431.019052 314.662474 432.053599 315.273770 432.530606 316.286845 C433.007613 317.299920 432.575428 318.800191 431.471502 318.987819 z"/><path class="selected"  fill="#000000" opacity="1.000000" stroke="none" 
 	d="
M406.363563 328.944929 C410.342701 328.874232 415.633217 329.293176 416.440538 333.190197 C402.448632 335.985689 387.362706 332.796350 375.699453 324.577063 C378.139397 322.470245 381.852361 323.828688 384.847719 325.020261 C391.666241 327.732718 399.026488 329.075287 406.363563 328.944929 z"/><path class="selected"  fill="#000000" opacity="1.000000" stroke="none" 
 	d="
M543.607953 411.683304 C546.238391 413.663015 550.540851 412.736299 552.123022 409.849226 C553.311361 410.553497 553.385493 412.359972 552.641018 413.523545 C551.896542 414.687118 550.603914 415.360387 549.370231 415.981816 C546.177735 417.589934 542.152335 419.151745 539.264681 417.044727 C536.474506 415.008837 536.627492 410.680890 538.161861 407.586438 C539.696229 404.491986 542.253095 401.978095 543.670327 398.828274 C547.485132 390.349812 542.301292 379.302712 547.542634 371.623819 C548.335132 378.929521 551.008855 386.023252 555.235698 392.034503 C558.255286 396.328842 562.152867 400.290056 563.312541 405.410057 C560.364567 407.178466 557.662752 402.675698 554.479403 401.377964 C551.845929 400.304387 548.724613 401.694967 546.924128 403.896332 C545.123642 406.097697 544.343038 408.936050 543.607953 411.683304 z"/><path class="selected"  fill="#000000" opacity="1.000000" stroke="none" 
 	d="
M318.620921 383.260658 C314.750644 383.459226 311.054709 385.774217 309.186897 389.169766 C307.244645 386.709538 307.952953 382.619287 310.609372 380.955410 C313.265790 379.291532 317.255055 380.439405 318.620920 383.260657 z"/><path class="selected"  fill="#000000" opacity="1.000000" stroke="none" 
 	d="
M378.908777 77.678684 C376.210021 79.782003 373.147853 81.417754 369.899107 82.491478 C368.114369 83.081340 365.583080 83.165348 364.949172 81.395775 C367.753264 79.698778 370.557355 78.001781 373.361446 76.304783 C374.454495 75.643284 375.645029 74.957500 376.917937 75.067236 C378.190844 75.176973 379.413203 76.504843 378.908780 77.678681 z"/><path class="selected"  fill="#000000" opacity="1.000000" stroke="none" 
 	d="
M579.516148 349.646237 C585.411448 346.118110 593.924727 345.653212 598.457843 350.815876 C602.663252 355.605322 601.795971 362.839631 603.344261 369.022434 C601.441606 369.116440 600.017958 367.191277 599.618367 365.328682 C599.218776 363.466087 599.456047 361.500157 598.959429 359.661053 C597.962403 355.968802 594.263025 353.648213 590.603479 352.537136 C586.943932 351.426059 583.035771 351.142576 579.516148 349.646237 z"/><path class="selected"  fill="#000000" opacity="1.000000" stroke="none" 
 	d="
M571.062249 353.547940 C572.107502 352.003790 574.056286 351.123673 575.905849 351.360455 C575.488054 354.021648 574.707534 356.625655 573.592636 359.077904 C571.783580 359.171744 569.964923 358.122278 569.140948 356.509034 C569.870493 355.586526 570.600039 354.664018 571.329584 353.741510 z"/><path class="selected"  fill="#000000" opacity="1.000000" stroke="none" 
 	d="
M299.597183 302.062875 C300.846170 299.948850 303.497643 298.766315 305.905022 299.249632 C306.346158 300.977106 305.394401 302.953739 303.768845 303.686094 C302.143289 304.418449 300.032166 303.821724 299.030523 302.346771 z"/><path class="selected"  fill="#000000" opacity="1.000000" stroke="none" 
 	d="
M467.618137 261.143333 C467.620742 260.640189 467.623346 260.137045 467.625950 259.633901 C467.630866 258.684626 468.613455 257.374380 469.137955 258.165612 C470.499236 262.828294 471.860515 267.490974 473.221795 272.153655 C468.724376 271.608590 467.594689 265.673602 467.618135 261.143334 z"/><path class="selected"  fill="#000000" opacity="1.000000" stroke="none" 
 	d="
M571.206677 418.698065 C573.656797 416.456091 576.666053 414.829883 579.884029 414.008806 C580.526513 417.498783 575.709228 419.092008 572.163176 419.227017 z"/><path class="selected"  fill="#000000" opacity="1.000000" stroke="none" 
 	d="
M299.306112 460.907406 C297.254199 461.488120 294.595925 461.599621 293.463629 459.792556 C292.487028 458.233969 292.156542 455.244630 290.431523 455.882793 C285.879380 457.566839 280.335594 453.041371 281.074134 448.244229 C279.898396 447.349083 281.282248 445.270844 282.753012 445.414015 C284.223776 445.557187 285.253536 446.885591 286.083338 448.108323 C286.913141 449.331054 287.900874 450.675915 289.363790 450.884538 C291.003327 451.118353 292.431515 449.823604 294.019073 449.351996 C295.606632 448.880387 297.913788 450.394034 296.934075 451.729293 C295.793368 453.283967 297.518410 455.642727 299.444975 455.723770 C301.371541 455.804813 303.045502 454.426783 304.289142 452.953154 C305.994905 453.510359 307.424782 454.856676 308.083568 456.525839 C305.465409 458.516963 302.471078 460.011685 299.306112 460.907406 z"/><path class="selected"  fill="#000000" opacity="1.000000" stroke="none" 
 	d="
M270.675205 416.754414 C271.648100 417.923546 271.139657 419.983138 269.734452 420.565198 C268.329247 421.147258 266.513365 420.050442 266.374595 418.535801 C267.347738 416.556410 270.282902 414.493663 271.203718 416.497932 z"/><path class="selected"  fill="#000000" opacity="1.000000" stroke="none" 
 	d="
M287.856150 419.985064 C284.714090 420.841223 281.146438 419.898570 278.837371 417.602102 C281.918358 414.629257 287.983327 416.250018 289.170618 420.363491 z"/><path class="selected"  fill="#000000" opacity="1.000000" stroke="none" 
 	d="
M327.226538 109.646849 C326.047421 111.449866 324.868303 113.252884 323.689186 115.055901 C322.111774 114.097976 321.538129 111.800051 322.480258 110.213157 C323.422388 108.626263 325.714471 108.029704 327.310692 108.955944 z"/><path class="selected"  fill="#000000" opacity="1.000000" stroke="none" 
 	d="
M461.589257 259.009847 C461.871289 257.755748 462.687736 256.631152 463.792827 255.974587 C463.827469 258.042831 463.349302 260.117756 462.412971 261.962241 C461.127444 262.469535 460.833981 260.183314 461.407922 258.926127 z"/><path class="selected"  fill="#000000" opacity="1.000000" stroke="none" 
 	d="
M383.934885 492.938214 C383.145896 493.788663 381.513427 493.540745 381.012498 492.494400 C381.845658 491.660678 382.678820 490.826955 383.511982 489.993232 C384.014471 490.897820 384.184271 491.982494 383.982265 492.997368 z"/><path class="selected"  fill="#000000" opacity="1.000000" stroke="none" 
 	d="
M537.999853 449.485274 C536.380551 449.937718 535.572705 447.329488 536.450676 445.895607 C537.947208 445.709846 538.221584 447.977459 537.850402 449.439081 z"/><path class="selected"  fill="#000000" opacity="1.000000" stroke="none" 
 	d="
M294.122568 314.739432 C292.742618 315.410146 290.889083 313.939054 291.228944 312.442855 C291.568805 310.946655 293.875976 310.420665 294.830756 311.621712 C295.324071 312.609711 294.915519 313.950247 293.955021 314.495168 z"/><path class="selected"  fill="#000000" opacity="1.000000" stroke="none" 
 	d="
M308.531640 434.915319 C306.974795 434.596143 307.937436 431.581435 309.391153 432.223575 C310.544229 432.896529 309.801536 435.103928 308.476183 434.943001 z"/><path class="selected"  fill="#000000" opacity="1.000000" stroke="none" 
 	d="
M600.147109 387.429602 C600.409468 388.472220 598.364808 388.595926 598.095921 387.554973 C597.827033 386.514020 598.732967 385.545146 599.648861 384.982099 C599.809540 385.813192 599.970223 386.644284 600.130905 387.475375 z"/><path class="selected"  fill="#000000" opacity="1.000000" stroke="none" 
 	d="
M601.838874 378.496911 C599.369927 377.401100 599.322327 373.194527 601.765844 372.043127 C601.876149 373.860037 601.986454 375.676949 602.096759 377.493862 z"/><path class="selected"  fill="#000000" opacity="1.000000" stroke="none" 
 	d="
M784.130231 703.520385 C785.865678 702.689319 787.601125 701.858253 789.336572 701.027187 C791.591423 699.947390 794.663221 699.016709 796.273065 700.929487 C791.778653 705.341749 786.366957 708.815401 780.483885 711.064226 C779.055683 710.120399 779.046589 707.892634 780.008152 706.476311 C780.969714 705.059989 782.586246 704.259764 784.130231 703.520385 z"/><path class="selected"  fill="#000000" opacity="1.000000" stroke="none" 
 	d="
M697.342108 659.969763 C698.127122 658.204165 700.829394 658.144448 702.305252 659.391615 C703.781110 660.638782 704.337181 662.635359 704.817422 664.506976 C704.300831 665.358686 703.373787 665.948174 702.383371 666.054740 C701.737701 665.068876 701.092031 664.083012 700.446361 663.097147 C698.297338 662.986490 696.148315 662.875832 693.999292 662.765175 C694.737325 661.426545 696.021290 660.399613 697.489375 659.973762 z"/><path class="selected"  fill="#000000" opacity="1.000000" stroke="none" 
 	d="
M528.535654 434.990921 C529.425876 435.152398 528.714101 436.745532 527.834812 436.532406 C526.955523 436.319280 526.577600 435.303448 526.339462 434.430602 C526.985096 433.843211 528.215974 434.233244 528.405489 435.085272 z"/><path class="selected"  fill="#000000" opacity="1.000000" stroke="none" 
 	d="
M757.151105 752.555250 C757.470899 751.424135 759.002827 750.845282 759.990718 751.482276 C760.420750 753.587191 759.354366 755.911579 757.478327 756.958513 C756.652342 756.138945 755.826357 755.319376 755.000371 754.499806 C755.667105 753.833205 756.333838 753.166605 757.000571 752.500004 z"/><path class="selected"  fill="#000000" opacity="1.000000" stroke="none" 
 	d="
M798.340972 700.069208 C797.639876 698.370518 799.773458 696.333217 801.437988 697.111949 C802.282124 697.911490 802.291767 699.423985 801.457896 700.234228 C800.624025 701.044472 799.112432 700.991369 798.337475 700.124607 z"/><path class="selected"  fill="#000000" opacity="1.000000" stroke="none" 
 	d="
M412.002271 64.962880 C414.228569 64.084353 416.781394 63.212653 418.928599 64.269878 C430.727800 70.079496 445.077020 62.204614 457.888834 65.176181 C458.484238 65.314279 459.114182 65.500456 459.502496 65.972460 C460.863881 67.627258 457.966993 69.444897 455.831873 69.626518 C444.245833 70.612067 432.568619 70.523094 420.998942 69.361114 C410.837143 68.340532 401.502476 75.549211 391.297820 75.959979 C389.993899 76.012466 388.340074 75.686191 388.055322 74.412660 C396.037639 71.262731 404.019955 68.112806 412.002271 64.962880 z"/><path class="selected"  fill="#000000" opacity="1.000000" stroke="none" 
 	d="
M671.576993 656.053699 C671.668322 655.296858 672.654017 655.026342 673.406690 655.147312 C675.425516 655.471782 677.055238 657.568994 676.663023 659.575755 C676.270808 661.582517 673.727711 662.904951 671.944769 661.903929 C670.161827 660.902908 670.119109 657.808772 671.955164 656.908870 z"/><path class="selected"  fill="#000000" opacity="1.000000" stroke="none" 
 	d="
M673.067792 641.371788 C674.279872 640.794359 675.309359 639.840515 675.977432 638.675937 C673.988348 637.185716 671.248645 636.757216 668.899530 637.568924 C668.229105 637.800582 667.570130 637.231938 667.087161 636.712442 C663.338928 632.680712 659.590695 628.648984 655.842461 624.617256 C658.667175 621.289640 664.095639 623.431563 667.576474 626.065158 C673.723754 630.716181 679.144990 636.324877 683.584434 642.626655 C684.771519 644.311719 685.928711 646.465073 685.045180 648.327326 C683.827722 650.893411 679.796115 650.439670 677.770401 648.448821 C675.744686 646.457973 674.846943 643.585748 673.067793 641.371788 z"/><path class="selected"  fill="#000000" opacity="1.000000" stroke="none" 
 	d="
M743.180735 784.150973 C736.948455 787.861955 732.741569 794.771457 732.306061 802.011833 C724.314370 802.043174 716.322680 802.074515 708.330989 802.105856 C716.513901 776.573228 729.995795 752.751983 747.672764 732.592621 C746.821648 736.480553 745.970532 740.368486 745.119416 744.256418 C754.117459 736.770784 762.260696 728.258449 769.340372 718.937629 C769.081607 723.114365 768.822841 727.291101 768.564076 731.467836 C773.532215 727.765772 778.500354 724.063708 783.468493 720.361644 C734.132183 704.468371 684.795873 688.575099 635.459563 672.681826 C640.184944 683.014712 653.831217 684.443681 664.872694 687.123892 C675.914171 689.804104 688.232567 700.621749 682.520880 710.443886 C666.707670 737.637173 662.281849 771.221488 670.510345 801.583048 C664.364637 801.550998 658.218930 801.518948 652.073222 801.486899 C637.299578 762.214419 629.015988 720.509039 627.659588 678.571605 C627.167975 663.371800 621.259144 642.295099 606.265313 644.836909 C610.939509 682.896136 615.613712 720.955355 620.287915 759.014575 C616.929350 749.231014 609.968644 740.729437 601.040295 735.506163 C597.538515 749.727635 595.017102 764.190414 593.499878 778.757870 C591.979958 786.503625 590.460037 794.249381 588.940117 801.995137 C582.311749 801.908994 575.683381 801.822851 569.055013 801.736708 C579.726993 763.389152 582.088810 722.751550 575.931120 683.425871 C562.999565 721.336814 558.356684 762.051069 562.420817 801.900129 C554.580636 806.032890 548.314066 794.190005 547.246750 785.391766 C545.425201 790.901415 543.603652 796.411063 541.782103 801.920712 C535.763863 801.936377 529.745622 801.952042 523.727382 801.967706 C523.034871 764.640873 532.648580 727.174811 551.228137 694.793147 C527.220613 724.777796 514.660689 763.705803 516.616633 802.067432 C498.602141 801.833113 480.587649 801.598793 462.573157 801.364474 C465.711251 779.652009 468.849344 757.939544 471.987438 736.227079 C476.139040 749.556979 476.655044 763.999864 473.465291 777.592050 C470.339415 762.740222 478.835590 747.643737 489.966351 737.326081 C501.097112 727.008424 514.844959 719.970301 526.727808 710.528596 C550.317314 691.785184 565.918442 663.303231 569.012027 633.333079 C549.992690 673.883538 526.390889 718.564588 483.534793 731.581117 C457.520352 739.482391 454.677489 774.681026 456.953790 801.773455 C441.242480 801.831144 425.531170 801.888833 409.819859 801.946522 C415.295598 783.717705 416.094712 764.104895 412.120111 745.491028 C401.207193 740.569807 391.045422 754.924758 390.667262 766.890008 C390.289101 778.855257 393.757931 792.112193 386.953843 801.961791 C380.573391 801.725205 374.192939 801.488618 367.812487 801.252031 C372.382351 799.877124 377.549410 797.963322 379.187293 793.480982 C380.825176 788.998643 374.613889 783.282223 371.513013 786.909701 C368.041156 774.162947 373.090352 760.502332 371.012783 747.455598 C368.935214 734.408865 351.787619 722.525486 343.254819 732.611361 C341.007408 735.267828 340.100792 738.773889 339.258887 742.150110 C334.297566 762.046082 329.336245 781.942054 324.374924 801.838027 C307.419505 801.896647 290.464086 801.955267 273.508667 802.013888 C272.268466 757.999371 271.028265 713.984854 269.788063 669.970338 C271.237537 709.427918 258.938772 749.258791 235.495604 781.030154 C222.930409 798.059145 197.653452 813.229830 182.492640 798.464313 C213.729091 749.497416 244.965543 700.530526 276.201995 651.563636 C253.187004 672.522344 223.667767 686.235506 192.806827 690.304861 C174.365986 692.736490 155.038244 691.932042 138.005522 699.406251 C120.972800 706.880461 107.191775 726.822869 114.709010 743.836646 C117.315744 734.928979 119.922479 726.021312 122.529214 717.113645 C127.459052 745.171020 132.388890 773.228396 137.318729 801.285772 C132.114234 801.156916 126.909738 801.028061 121.705243 800.899205 C131.515088 783.491732 131.115129 760.790660 120.698175 743.739553 C120.760667 762.286258 120.823158 780.832962 120.885649 799.379667 C115.900303 779.227820 110.914956 759.075974 105.929610 738.924128 C103.896733 747.452879 101.863856 755.981629 99.830979 764.510380 C95.690212 750.637751 99.050031 734.763847 108.456378 723.758556 C96.484779 729.530575 86.740201 739.785449 81.586218 752.035830 C76.064965 745.829570 70.543713 739.623310 65.022460 733.417049 C70.177354 735.509360 75.332248 737.601672 80.487142 739.693983 C106.389338 710.856613 141.918447 690.819065 179.997402 683.572631 C207.905533 678.261708 239.400063 678.595480 260.324921 659.380382 C272.052060 648.611462 278.358496 633.327032 284.313865 618.561226 C295.055648 591.927929 305.797432 565.294632 316.539217 538.661335 C307.082077 570.580603 283.716206 598.111412 253.759063 612.631975 C221.430824 628.301835 189.102584 643.971696 156.774345 659.641557 C125.496304 674.802372 93.806856 690.231576 67.615620 713.082950 C41.424384 735.934324 20.945004 767.503380 19.026796 802.209095 C12.685207 802.139419 6.343610 802.069736 0.002012 802.000054 C0.001341 534.666703 0.000671 267.333351 -0.000000 -0.000000 C292.666856 0.000000 585.333712 0.000000 878.000568 0.000000 C878.000568 267.333334 878.000569 534.666667 878.000569 802.000001 C873.724234 801.989903 869.447898 801.979805 865.171563 801.969707 C858.951673 774.220341 848.027617 747.531550 833.005823 723.384913 C830.198401 718.872150 827.000428 714.228060 822.165940 712.020259 C811.462237 707.132121 799.844475 716.355909 792.193995 725.296452 C772.186093 748.678192 756.115487 775.420804 744.860593 804.062543 C744.300640 797.425353 743.740688 790.788163 743.180735 784.150973 M599.813836 164.147037 C604.891749 166.726980 611.141748 166.871102 616.333185 164.527964 C610.826735 164.400987 605.320285 164.274011 599.813836 164.147036 M493.550901 653.090852 C485.838468 623.342425 508.592780 595.519837 524.369835 569.146838 C543.326251 537.459203 553.521630 500.590018 553.538546 463.665071 C553.545554 448.367474 569.536169 439.060722 581.245138 429.216100 C597.127224 415.862820 607.652195 396.308564 610.050979 375.697971 C611.263590 365.279094 610.138168 353.816587 603.226861 345.926261 C593.417023 334.726815 576.288507 334.776078 561.429680 335.711892 C561.614455 332.588991 561.799229 329.466090 561.984004 326.343189 C546.374329 338.166859 533.656835 353.780880 525.236534 371.460237 C521.789980 378.696660 516.795248 387.690095 508.841059 386.702457 C512.380761 394.913301 507.509334 405.657459 499.000802 408.405601 C503.990657 378.404894 508.980513 348.404181 513.970368 318.403469 C505.698608 315.953966 506.543525 304.140614 503.176884 296.197830 C499.697097 287.988104 490.986108 283.587326 484.015624 278.026670 C477.045141 272.466013 471.174639 262.622750 475.838615 255.023022 C472.623171 252.928151 468.128235 253.021298 465.002336 255.247577 C461.746680 242.782247 466.151654 228.639149 475.909742 220.227047 C466.047379 214.081303 456.185017 207.935559 446.322654 201.789816 C413.348253 181.241775 376.762998 159.861773 338.277280 165.189306 C330.294071 158.698747 322.112869 151.975140 317.162730 142.955432 C312.212592 133.935725 311.217675 121.949070 317.499536 113.800622 C317.371882 118.460987 318.470875 123.149541 320.656217 127.267742 C327.357103 106.235276 348.896665 90.912106 370.963490 91.479321 C363.611205 96.023579 356.258921 100.567836 348.906637 105.112094 C370.403310 100.558509 391.899983 96.004924 413.396656 91.451339 C425.373402 88.914335 438.203360 86.440568 449.549494 91.038835 C479.845282 103.316862 514.313270 105.010779 545.666961 95.762494 C510.382366 98.094901 474.773492 95.467446 440.213363 87.981439 C435.804824 87.026513 430.445583 81.774397 434.267201 79.378079 C418.663275 85.857108 401.939837 89.629788 385.065549 90.477596 C397.482386 75.016204 419.945054 72.900046 439.771858 73.261046 C493.341835 74.236429 546.733787 84.352029 596.948039 103.039531 C593.861162 107.065910 590.774285 111.092288 587.687408 115.118667 C593.631094 111.681726 601.002103 110.809947 607.583568 112.765520 C603.683013 115.521037 607.710437 122.145221 612.450728 122.725609 C617.191018 123.305998 621.788782 120.840401 626.560744 120.651749 C631.332705 120.463097 636.985246 124.886670 634.815046 129.140778 C622.178338 128.007606 609.541629 126.874433 596.904920 125.741261 C611.502363 128.436761 626.356851 131.219370 639.487048 138.143891 C651.335461 144.392433 661.418506 153.946418 668.295959 165.441191 C663.974255 163.710248 659.652550 161.979305 655.330846 160.248363 C659.058413 166.889722 664.825108 172.368149 671.648731 175.750543 C664.395579 190.108791 682.619933 204.961745 683.217336 221.036901 C683.879769 238.861866 664.038213 249.344496 653.458764 263.705675 C646.961694 272.525187 643.867315 283.324023 640.895177 293.867368 C632.506934 323.623768 624.118690 353.380169 615.730447 383.136570 C642.178475 347.399572 632.899584 292.530883 663.363822 260.149385 C669.925380 253.174876 678.188902 247.471374 682.526132 238.934030 C687.831919 228.490194 686.187702 215.984874 683.887985 204.498518 C679.699153 183.576634 673.575776 162.611203 661.590371 144.958396 C633.729644 103.923486 581.206795 89.132147 533.047993 77.265654 C520.806410 74.249286 508.556185 71.231046 496.157537 68.944487 C466.357703 63.448800 435.727813 57.948268 405.961462 63.622512 C376.710265 69.198554 350.633928 85.122890 325.289432 100.755591 C312.794505 108.462568 305.583459 123.934297 307.716615 138.459116 C309.849772 152.983934 321.204818 165.728994 335.388069 169.517937 C292.157077 209.821737 276.810737 270.995003 263.473787 328.574868 C259.883215 344.076515 256.288480 359.600072 254.006764 375.347676 C248.763099 411.537621 250.568888 448.735574 259.293342 484.247432 C260.437107 488.902988 261.949851 493.906100 265.854719 496.687181 C269.759587 499.468262 276.658322 498.115373 277.410304 493.380721 C288.728600 500.469351 302.720838 503.167270 315.863331 500.795058 C316.288282 503.002157 316.713234 505.209256 317.138185 507.416355 C322.207546 511.336881 330.871495 508.551529 332.706463 502.411347 C330.277450 502.887106 328.109085 504.546291 327.014844 506.766446 C323.151824 507.687964 322.602627 500.416853 326.226913 498.793069 C329.851199 497.169284 333.969881 499.008521 337.852842 499.842032 C341.735802 500.675542 347.039560 499.417109 347.408451 495.462866 C347.835506 490.885154 355.175758 490.684259 358.152477 494.188109 C361.129195 497.691959 361.460334 502.667351 363.228448 506.911358 C364.996562 511.155365 369.982969 515.034220 373.904194 512.633842 C366.466029 507.780247 363.538206 497.097943 367.462269 489.130170 C371.223703 490.028276 374.985137 490.926383 378.746571 491.824490 C381.290702 495.033552 376.667335 500.502293 373.079740 498.527490 C379.028032 500.735235 385.697612 500.947359 391.774174 499.122063 C388.312171 501.999571 382.169803 497.120737 384.189142 493.097331 C387.794792 491.025044 392.811935 491.860820 395.551094 494.990051 C395.758678 491.350289 397.170479 487.789279 399.513319 484.996063 C406.888782 486.290090 414.883859 482.577289 418.653894 476.107452 C422.953921 474.285265 425.580976 480.917185 425.552962 485.587283 C431.011590 473.486205 448.332216 468.738517 459.198260 476.364905 C460.369361 468.508954 473.757356 466.984305 476.664862 474.375776 C475.314889 470.595673 476.263679 466.093269 479.024273 463.179384 C485.131706 464.292500 491.239139 465.405617 497.346572 466.518734 C486.950012 474.890987 477.687342 484.669439 469.890194 495.503993 C470.522200 498.088003 471.154205 500.672013 471.786211 503.256022 C469.985693 511.122087 459.566564 515.529724 452.667656 511.343805 C457.218337 512.407244 452.067171 518.946793 447.465673 519.762768 C438.584834 521.337573 429.703998 522.912384 420.823163 524.487195 C420.827765 531.631830 415.066412 538.340004 408.002994 539.414229 C408.577042 534.686283 409.151090 529.958336 409.725138 525.230389 C406.882778 527.516097 403.131797 528.638208 399.501169 528.288903 C403.448013 529.786916 402.926847 536.832409 398.802546 537.733387 C396.399767 532.792009 389.382278 532.081274 384.281725 534.124539 C379.181173 536.167804 375.054973 540.109730 370.078127 542.438156 C354.784476 549.593320 337.282422 539.952876 323.193963 530.646564 C323.799585 580.039382 329.283285 629.371155 339.539388 677.691230 C335.550724 676.791691 331.562059 675.892153 327.573395 674.992614 C344.773413 695.184596 370.743353 706.631818 397.074530 709.829605 C423.405708 713.027392 450.162736 708.577987 475.611293 701.099501 C479.473918 699.964404 483.503742 698.644729 486.237196 695.688964 C488.811075 692.905751 489.856671 689.078707 490.817123 685.411466 C493.845242 673.849357 496.873362 662.287248 499.901482 650.725138 C501.304840 645.366770 498.707824 636.556838 493.898892 639.305601 C497.085764 643.174009 496.928896 649.388165 493.550901 653.090851 M641.054013 622.479967 C649.310151 629.505557 657.917004 637.030579 661.463580 647.274823 C663.079014 651.940988 663.556675 656.976874 665.541273 661.498388 C667.525871 666.019903 671.700893 670.165177 676.631611 669.899218 C676.403292 667.985518 677.471049 665.983371 679.187439 665.106797 C682.724196 670.700505 690.110537 673.535302 696.481547 671.744084 C695.864745 668.729004 700.607883 665.275342 701.137939 668.306875 C700.487491 673.239973 705.965571 677.881565 710.724914 676.429944 C708.537397 673.388917 707.613066 669.467480 708.212145 665.769619 C714.885783 676.686101 725.396159 685.204159 737.458227 689.471892 C720.796178 684.737056 704.134129 680.002219 687.472081 675.267382 C682.874891 673.961003 676.402385 673.551127 674.860179 678.074664 C699.792530 685.611421 724.724879 693.148173 749.657229 700.684925 C758.102592 703.237858 766.737219 705.884206 773.814287 711.152672 C779.527499 715.405827 787.539989 721.345464 792.499322 716.233210 C800.647046 707.834248 812.924442 703.648189 824.505975 705.320329 C763.599748 665.400907 698.920167 631.629690 634.364032 597.930517 C623.083909 592.042141 611.803787 586.153765 600.523664 580.265389 C592.658689 576.159766 584.702797 572.018941 576.098968 569.853737 C571.606311 568.723134 566.828745 568.082762 562.995001 565.481869 C556.156763 560.842663 554.452496 551.526416 554.574034 543.263912 C554.695571 535.001408 555.980378 526.388408 552.877015 518.729891 C544.754962 538.506967 550.993338 563.244249 567.522602 576.804629 C575.104824 583.024980 575.918722 594.333285 574.444217 604.029092 C572.969711 613.724900 569.829676 623.524345 571.761211 633.139543 C582.057861 615.838369 583.906368 593.762993 576.630399 574.990355 C589.491022 585.930894 600.044544 599.570688 607.406061 614.766052 C610.671838 621.507147 613.749285 629.045661 620.277772 632.718060 C629.398344 637.848558 637.493372 644.793729 643.950715 653.028385 C636.436963 632.662448 625.306802 613.636608 611.236237 597.106422 C621.175496 605.564270 631.114755 614.022118 641.054013 622.479967 M591.195346 630.777513 C592.648951 631.661348 594.384280 631.916381 596.058148 632.220184 C608.131731 634.411507 619.540576 640.144470 628.504348 648.524451 C635.191289 654.775886 640.487979 662.398939 647.221400 668.600282 C653.954821 674.801625 662.833604 679.651220 671.908159 678.447857 C672.145391 676.972841 672.382623 675.497825 672.619855 674.022809 C671.245198 674.014326 669.870541 674.005843 668.495883 673.997359 C668.094116 675.223068 667.325761 676.326037 666.315234 677.127670 C664.755128 674.695120 662.917061 672.440993 660.848280 670.423229 C660.464990 672.089818 659.683253 673.663358 658.586665 674.975580 C654.222052 673.452545 651.233814 668.694203 651.757591 664.101259 C649.562149 665.454715 646.571391 664.609557 644.640605 662.899623 C642.709819 661.189689 641.555301 658.797793 640.285223 656.553086 C632.173837 642.217206 617.239895 631.946762 600.950808 629.501828 C597.017499 628.911453 591.616689 626.890724 592.725330 623.070989 C590.290221 623.609602 587.578440 621.966252 586.928932 619.558346 C587.572115 618.758337 588.504015 618.195621 589.511487 617.998903 C592.034700 621.710413 597.272318 623.292868 601.428541 621.599434 C595.760248 617.954324 591.410209 612.304335 589.335452 605.892489 C588.784838 604.190867 588.167255 602.187562 586.481001 601.591541 C585.330821 609.628027 584.180641 617.664512 583.030461 625.700997 C582.872559 626.804280 582.734621 628.012049 583.319956 628.960495 C583.905291 629.908941 585.535057 630.214248 586.072699 629.237975 C584.332673 627.408170 585.883609 623.750422 588.408568 623.729031 C587.681258 626.342027 588.877792 629.368373 591.195346 630.777513 M747.471369 767.732082 C747.895836 770.083158 751.291523 771.218877 753.045033 769.596246 C757.961984 761.306532 762.878934 753.016818 767.795885 744.727103 C769.189944 742.376794 770.564123 739.290616 768.918697 737.108890 C767.656601 735.435430 765.077316 735.262574 763.194827 736.184306 C761.312338 737.106039 759.983198 738.849158 758.798388 740.578198 C753.716911 747.993803 749.955839 756.311424 747.744145 765.024689 C747.519187 765.910938 747.308916 766.832274 747.471369 767.732082 M428.576108 129.542390 C424.593803 129.433676 420.624031 128.872277 416.767743 127.872472 C421.405156 123.508346 428.227344 122.641994 434.555607 121.931874 C442.075782 121.088004 449.586702 120.161660 457.086560 119.153063 C460.561072 118.685804 464.559892 117.843376 466.144616 114.716202 C458.948198 117.189905 451.335088 118.446488 443.725442 118.416602 C437.743432 118.393108 431.759279 118.950912 425.884668 120.079602 C416.423882 121.897306 406.050362 126.379887 403.211264 135.585866 C411.410346 132.649010 419.933619 130.618239 428.576108 129.542390 M286.757651 517.457248 C293.011042 519.925297 299.264433 522.393345 305.517824 524.861394 C307.036233 525.460670 308.554641 526.059945 310.073049 526.659221 C313.002013 527.815206 315.930978 528.971191 318.859942 530.127176 C314.410839 523.913804 307.133280 520.374200 299.879429 517.969588 C292.625578 515.564976 285.034155 514.017721 278.207596 510.582811 C274.658090 508.796812 271.241417 506.478173 267.307636 505.917684 C272.302328 511.667319 279.673328 514.661253 286.757651 517.457249 M488.822859 148.738967 C490.222873 148.240238 491.729592 148.146670 493.213118 148.057668 C500.429969 147.624702 507.646819 147.191737 514.863669 146.758771 C517.270090 146.614401 520.558057 145.299198 519.825454 143.002462 C501.503852 144.156186 483.342447 147.826889 466.010930 153.879214 C472.285125 155.446609 479.169453 154.403154 484.697375 151.046917 C486.047201 150.227380 487.335291 149.268886 488.822859 148.738967 M386.132583 106.146222 C382.517193 106.605827 378.901804 107.065433 375.286414 107.525038 C369.006356 108.323388 362.100554 109.451391 358.063501 114.327731 C362.540635 113.243980 367.023366 112.159094 371.571873 111.430861 C380.720860 109.966073 390.102229 109.962517 399.252325 111.420367 C398.892941 108.814680 396.509870 106.858238 393.970373 106.172878 C391.430876 105.487519 388.741937 105.814507 386.132583 106.146220 M563.849579 469.056641 C569.126380 461.807012 574.403180 454.557384 579.679981 447.307755 C581.083924 445.378921 582.560261 443.008609 581.739734 440.768477 C578.858254 440.840836 576.836660 443.532942 575.272708 445.954141 C570.224124 453.770002 565.175539 461.585864 560.126955 469.401725 C559.903160 470.262958 561.009075 470.984062 561.871257 470.763957 C562.733440 470.543852 563.325922 469.776077 563.849579 469.056641 M569.821954 100.760376 C571.093257 99.975399 571.946790 98.551604 572.040009 97.060393 C564.614134 97.555004 557.236417 98.770023 550.044105 100.682846 C561.515089 102.587823 572.986074 104.492800 584.457058 106.397777 C584.957934 104.972898 585.458811 103.548019 585.959688 102.123139 C580.624542 103.440675 574.860603 102.953935 569.821954 100.760376 M550.391490 334.489820 C552.016888 330.661501 553.630389 326.197941 551.705347 322.511187 C550.477917 320.160466 547.865054 317.703089 549.199048 315.411160 C548.153517 315.282007 547.107984 315.152855 546.062451 315.023703 C547.050343 317.351586 543.538236 319.925019 541.616225 318.281596 C540.579923 317.395503 540.324018 315.925317 539.727770 314.699116 C539.131522 313.472915 537.663851 312.354672 536.493646 313.054459 C535.117192 314.385943 536.829552 316.539574 538.285736 317.783356 C539.741919 319.027138 540.792266 321.826725 538.972356 322.422873 C540.187184 323.485360 541.130130 324.856201 541.687881 326.370664 C543.355313 324.989671 544.594472 323.098686 545.195077 321.018603 C547.512724 321.287960 549.039135 323.790712 549.053696 326.123914 C549.068257 328.457116 547.971197 330.635146 546.900565 332.708257 C548.064207 333.302111 549.227848 333.895966 550.391490 334.489820 M557.294073 150.049919 C565.356353 153.000240 574.107528 154.049083 582.638655 153.087510 C584.414279 152.887374 586.758804 151.321131 585.637137 149.930175 C585.210539 149.401164 584.458665 149.296113 583.781742 149.236034 C574.962053 148.453273 566.049065 148.727142 557.294073 150.049919 M275.107722 753.216114 C274.360648 753.487157 274.365510 754.542049 274.571027 755.309739 C275.402269 758.414745 277.259244 761.235964 279.782481 763.227269 C277.795107 760.330436 279.276198 756.191396 281.818359 753.766788 C284.360520 751.342180 287.732563 750.011879 290.622750 748.014851 C293.512938 746.017823 296.091883 742.835831 295.636426 739.352461 C290.068591 745.563067 282.948637 750.371387 275.107723 753.216115 M546.009228 766.522824 C544.955929 766.904272 543.902630 767.285719 542.849331 767.667167 C545.652780 770.447535 545.526997 775.603624 542.591310 778.243986 C543.304907 780.102951 546.131008 780.254762 547.637284 778.952418 C549.143560 777.650073 549.621491 775.538594 549.888917 773.565411 C550.463962 769.322437 550.459920 765.001369 549.876936 760.759478 C547.437166 761.411547 545.688059 764.017924 546.009228 766.522824 M556.899485 113.474139 C554.172048 110.910005 550.930041 108.895461 547.423169 107.585672 C547.900322 110.219000 544.102205 111.407343 541.493387 110.810558 C538.884568 110.213772 535.772140 109.094302 533.831848 110.937494 C541.454748 113.598277 549.411788 115.300180 557.456161 115.990412 C558.519653 115.476129 558.080666 113.491835 556.899485 113.474141 M512.120312 124.135175 C505.363915 121.877291 498.397919 120.247041 491.341239 119.272256 C487.706240 118.770129 483.713277 118.518942 480.661578 120.556706 C491.214754 121.381320 501.678337 123.347652 511.810930 126.410343 C511.914057 125.651954 512.017185 124.893564 512.120312 124.135175 M430.606474 103.971264 C440.234067 102.726890 449.861659 101.482516 459.489252 100.238142 C460.330821 100.129369 461.454292 99.583738 461.135471 98.797340 C450.749460 97.399215 439.951861 99.229147 430.606474 103.971264 M653.980960 171.182323 C649.813790 171.439586 645.763446 167.986651 645.358071 163.831274 C640.563201 164.754665 635.768331 165.678057 630.973461 166.601448 C636.427639 166.238710 642.645634 166.153065 646.437915 170.089845 C648.850240 172.594085 650.544047 176.769626 654.019036 176.647229 C654.006345 174.825593 653.993652 173.003958 653.980960 171.182323 M414.293180 504.340038 C417.736527 503.266238 421.179873 502.192437 424.623220 501.118637 C425.237597 500.927045 425.900328 500.700291 426.254550 500.162990 C426.735686 499.433176 426.320462 498.290171 425.483084 498.039340 C422.279681 500.417319 417.823996 500.510572 414.033544 499.265966 C410.243092 498.021361 406.961777 495.614437 403.751965 493.245117 C405.038368 495.429095 406.324772 497.613073 407.611176 499.797051 C410.529531 498.241878 414.666104 501.054267 414.293180 504.340038 M416.470609 145.600382 C425.012032 146.755280 433.991447 144.188694 440.632290 138.694250 C432.356454 140.095168 424.236688 142.416041 416.470609 145.600382 M746.938787 772.100609 C743.097963 772.441442 740.266961 776.972357 741.644589 780.573778 C742.427721 782.621059 744.510636 784.226580 746.695342 784.048508 C747.079490 780.079748 747.160952 776.081724 746.938786 772.100609 M527.271990 130.933645 C530.320181 133.617812 533.687229 135.939557 537.279674 137.834434 C539.291417 138.895554 541.808055 139.806727 543.737627 138.602635 C539.552858 134.006066 533.483307 131.179130 527.271990 130.933645 M544.726455 288.373719 C542.630334 287.960464 540.980530 290.206253 540.406287 292.264105 C539.583743 295.211776 539.740685 298.423957 540.846661 301.277403 C543.557721 297.586115 544.952265 292.948046 544.726455 288.373719 M566.289549 113.711329 C570.906494 116.763606 576.073783 118.980701 581.467121 120.223470 C581.910449 118.767321 582.807107 117.452705 584.000995 116.508489 C578.011290 116.320597 572.045640 115.378446 566.289549 113.711329 M585.919959 129.705027 C581.972159 125.722230 575.759328 124.157731 570.396084 125.795845 C575.166494 128.296459 580.534179 129.648135 585.919959 129.705027 M522.960869 107.198209 C521.501782 105.531875 519.611119 104.246700 517.524828 103.503069 C514.909943 102.571027 511.806331 102.560465 509.542393 104.166987 C513.659894 106.296689 518.327719 107.351146 522.960868 107.198207 M534.275967 157.389446 C527.376629 155.608698 520.106813 155.277186 513.074039 156.422613 C520.012774 157.977659 527.224501 158.306523 534.275967 157.389448 M490.680786 89.072455 C492.327679 91.922249 496.260020 93.182160 499.256394 91.820058 C500.430470 91.286342 501.443245 90.406741 502.144653 89.324460 C498.324485 89.536024 494.487966 89.451689 490.680786 89.072455 M500.507509 742.129990 C498.440645 742.325015 496.440974 743.179023 494.870884 744.537250 C499.328053 745.168988 504.043890 743.604002 507.239021 740.432795 C504.920027 739.883125 502.355138 740.497438 500.536782 742.038038 M499.101931 280.851227 C498.446866 282.852511 498.624422 285.112406 499.583996 286.986830 C500.554861 285.277968 502.864240 284.476219 504.685154 285.215858 C505.484652 284.150057 504.754095 282.503881 503.577435 281.878902 C502.400775 281.253922 500.987537 281.353605 499.660251 281.469537 M386.656424 140.588047 C391.229272 141.960800 396.421615 141.080049 400.285997 138.276133 C395.647479 138.063690 390.965426 138.857883 386.656424 140.588046 M526.924153 275.533413 C527.163221 274.415425 526.602232 272.635759 525.595098 273.176808 C522.927920 274.702525 522.298201 278.860179 524.393943 281.107288 C525.964154 279.678805 526.950441 277.626369 527.084720 275.507858 M431.986513 773.498729 C430.881788 771.936201 428.494330 771.469318 426.882372 772.500582 C427.075337 775.108374 429.086017 777.479962 431.627099 778.096971 C431.791481 776.569092 431.955864 775.041214 432.120247 773.513336 M584.044827 164.394743 C581.117062 163.224065 577.402421 164.669011 576.035278 167.510353 C578.938094 168.876889 582.822749 167.478054 584.187983 164.574625 M433.943443 742.485703 C434.211724 741.659088 434.044939 740.704344 433.512296 740.017642 C430.918282 739.734696 428.274118 739.917895 425.743908 740.555868 C427.502104 743.067373 431.267903 743.900998 433.921820 742.366191 M297.446075 734.943132 C296.574630 735.968221 298.332242 737.723132 299.355990 736.850112 C301.708198 734.384157 302.923793 730.874841 302.600928 727.482264 C300.914258 729.995429 299.227592 732.508595 297.540925 735.021760 M314.037011 793.487574 C314.670475 795.281544 315.833728 796.884788 317.342658 798.043554 C319.110506 795.474758 317.491294 791.336622 314.449545 790.649774 C314.250444 791.583505 314.051345 792.517234 313.852246 793.450964 M470.000567 797.500051 C469.999491 798.501738 469.998415 799.503425 469.997339 800.505112 C470.741751 800.974946 471.664430 801.154205 472.530610 800.997279 C473.377508 798.318408 473.304687 795.357991 472.327102 792.724000 C471.111599 793.966084 470.451569 795.732778 470.554918 797.467580 M576.954557 666.468159 C577.202587 665.511587 576.984954 664.445497 576.381842 663.662678 C575.227024 664.169733 574.072209 664.676790 572.917394 665.183846 C573.992233 666.304228 574.385231 668.032249 573.900659 669.507282 C574.680902 670.011768 575.661466 670.196394 576.571749 670.010212 C577.081476 668.927367 577.223029 667.675183 576.967896 666.505875 M403.712121 505.048455 C403.613208 503.643510 401.477801 503.824577 400.216608 504.451510 C399.957104 506.935083 401.554424 509.494381 403.899485 510.352385 C403.673183 508.587299 403.446881 506.822213 403.220579 505.057127 M378.170557 751.928915 C377.776780 753.470030 379.227551 755.177635 380.812040 755.038027 C382.396529 754.898419 383.526355 752.963439 382.869163 751.514924 C381.564231 750.550733 379.534782 750.765421 378.460468 751.981303 M394.919255 741.468860 C395.287098 740.714045 395.070438 739.719933 394.421860 739.186641 C392.386533 738.130755 389.536438 739.283044 388.806845 741.456783 C390.757956 742.275987 393.034688 742.285829 394.992809 741.483524 M505.977418 133.518127 C503.626116 131.791702 500.314695 131.477699 497.680804 132.731408 C499.404218 135.237469 503.600417 135.448018 505.566032 133.127056 M515.504743 316.011374 C516.994453 315.185274 518.484163 314.359173 519.973873 313.533073 C518.607114 311.979834 517.240356 310.426597 515.873598 308.873360 C515.723670 311.245610 515.573742 313.617861 515.423814 315.990113 M415.044926 109.177997 C410.359887 109.129499 405.666967 110.049876 401.347301 111.864380 C406.035064 111.963127 410.741716 111.040058 415.044926 109.178001 M561.456898 121.064545 C562.690197 122.269223 564.805948 122.427435 566.204697 121.419576 C565.124317 119.501571 562.650684 118.493556 560.537446 119.110149 C559.671739 119.641376 560.547187 121.311124 561.476505 120.901221 M521.987626 289.604570 C523.621689 289.924656 525.255752 290.244743 526.889815 290.564830 C526.105654 289.329651 525.321494 288.094473 524.537333 286.859295 C524.097115 286.028637 522.815725 285.815588 522.130406 286.459110 C521.445088 287.102632 521.577189 288.394879 522.378540 288.886425 M596.406850 134.070780 C594.604574 131.977755 591.312592 131.348196 588.865198 132.628514 C591.058853 134.107895 593.910670 134.568459 596.458497 133.854821 M625.508146 134.918856 C624.737804 135.010451 623.967461 135.102047 623.197119 135.193642 C625.677814 137.179129 628.977957 138.106810 632.129828 137.704653 C629.966959 136.706382 627.804089 135.708110 625.641220 134.709838 M548.958391 309.357243 C549.938321 309.151279 550.290085 307.637406 549.501363 307.020476 C547.256971 306.436322 544.958460 309.667993 546.657309 311.246743 C547.471608 310.715317 548.285906 310.183890 549.100204 309.652463 M372.543123 119.852727 C373.982617 120.228213 376.237295 119.935822 376.009068 118.465773 C373.748935 117.712238 371.246969 117.704368 368.982141 118.443668 C370.154947 118.962444 371.327754 119.481220 372.500560 119.999997 M602.918720 117.620200 C601.090616 116.355887 598.352361 116.651262 596.835935 118.276348 C598.771337 119.544551 601.532722 119.376814 603.300392 117.883672 M524.819566 265.525579 C524.990249 266.703010 526.465960 267.476983 527.531623 266.947986 C528.070507 265.879619 528.232934 264.625947 527.984111 263.455522 C526.691547 262.692245 524.772672 264.024442 525.036011 265.502266 M318.411632 783.928469 C319.651496 782.446860 319.270481 779.908474 317.650273 778.856165 C316.411318 780.441055 316.701493 783.000947 318.263765 784.268308 M595.096265 724.004788 C595.142250 725.974202 595.188235 727.943616 595.234220 729.913031 C597.184905 728.551432 597.523131 725.393750 595.905076 723.649894 M600.504670 729.005159 C599.711397 729.600720 599.164891 730.515250 599.016190 731.495996 C599.577460 732.287336 600.483402 732.824809 601.446941 732.938101 C602.601739 731.748310 602.109787 729.432091 600.571087 728.814384 M559.589840 129.356269 C558.051595 129.751589 556.513350 130.146910 554.975105 130.542231 C557.611887 131.496519 560.724548 130.999020 562.932518 129.270392 C561.790735 129.141762 560.648950 129.013132 559.507166 128.884501 M531.515303 149.122791 C533.014065 148.955549 534.512827 148.788307 536.011588 148.621064 C533.814998 147.649985 531.404703 147.165856 529.003508 147.213428 C529.439599 148.155486 530.392300 148.837895 531.424584 148.947620 M277.471352 501.082972 C278.727461 502.273166 280.842075 502.418683 282.249378 501.411771 C281.335547 499.668374 278.566572 499.328074 277.257789 500.798321 M526.560555 320.959008 C525.498175 319.299704 524.435795 317.640400 523.373415 315.981096 C523.426855 317.910072 524.054568 319.819559 525.156102 321.403991 C525.361513 322.221325 526.930507 321.761391 526.662143 320.962512 M342.917596 503.470784 C341.727402 504.726893 341.581885 506.841507 342.588797 508.248809 C344.332195 507.334979 344.672494 504.566004 343.202247 503.257221 M677.113659 218.417307 C677.870412 219.534300 680.023851 218.847676 679.994359 217.498796 C678.545344 216.939616 676.953044 216.756436 675.414902 216.971971 C675.228136 217.781418 676.177921 218.602248 676.951769 218.300172 M459.495232 153.029232 C456.985236 152.769467 454.433637 152.916014 451.969886 153.461437 C454.446445 154.308635 457.196322 154.334652 459.688468 153.534462 M774.586199 730.783410 C773.629000 730.586120 773.353766 732.298597 774.189212 732.805729 C775.024658 733.312862 776.095671 732.952955 777.000517 732.583622 C777.576960 731.513772 775.725742 730.870612 774.524011 731.051441 M472.268817 85.691382 C471.489231 86.283740 470.709645 86.876099 469.930059 87.468457 C471.044434 87.906835 472.440032 88.302068 473.330464 87.501357 C474.220896 86.700646 472.863241 84.768083 472.130505 85.715238 M347.004281 520.425795 C345.913178 520.618210 346.884859 522.582119 347.919291 522.185286 C348.953724 521.788452 349.162517 520.413454 349.022814 519.314359 C348.212235 519.166388 347.336664 519.738208 347.146282 520.539887 M416.511717 490.950451 C417.350301 491.187228 418.289881 491.037154 419.012985 490.550939 C418.484761 489.702572 417.505854 489.153975 416.506508 489.146265 C415.450230 489.182376 415.434319 491.165536 416.489880 491.218589 M583.013355 749.615655 C582.034569 749.922533 581.725252 751.423694 582.502994 752.092509 C583.433903 751.753610 584.508865 751.247834 584.658141 750.268465 C584.807417 749.289096 582.994708 748.672510 582.913903 749.659890 M314.912595 782.475035 C315.534333 781.633777 313.784768 780.791431 313.056310 781.542179 C312.760732 782.472261 313.010890 783.554617 313.684613 784.260670 C314.192908 783.752927 314.701202 783.245184 315.209495 782.737441 M403.119044 149.433182 C403.910989 150.540097 406.062765 149.808381 406.015752 148.448150 C405.005845 147.822752 403.470915 148.417335 403.145842 149.559863 M588.570689 121.012566 C588.128954 122.268297 590.081881 123.489700 591.017633 122.542938 C591.541735 121.457743 589.706028 120.868584 588.515763 121.057274 M407.997626 100.471723 C406.702123 99.520568 404.565563 100.173157 404.022613 101.685846 C405.401662 101.968625 406.917512 101.429921 407.808839 100.340294 z"/></svg>