<?xml version="1.0" encoding="UTF-8" standalone="no"?>
<svg
   version="1.1"
   id="Contours"
   x="0px"
   y="0px"
   width="30.631418"
   height="18.819901"
   viewBox="0 0 30.631419 11.562921"
   enable-background="new 0 0 1822.851685 1822.851685"
   xml:space="preserve"
   stroke="#000000"
   fill="none"
   stroke-linecap="round"
   stroke-linejoin="round"
   sodipodi:docname="icon.svg"
   inkscape:export-filename="icn.svg"
   inkscape:export-xdpi="99.09021"
   inkscape:export-ydpi="99.09021"
   xmlns:inkscape="http://www.inkscape.org/namespaces/inkscape"
   xmlns:sodipodi="http://sodipodi.sourceforge.net/DTD/sodipodi-0.dtd"
   xmlns="http://www.w3.org/2000/svg"
   xmlns:svg="http://www.w3.org/2000/svg"><defs
     id="defs2" /><sodipodi:namedview
     id="namedview2"
     pagecolor="#ffffff"
     bordercolor="#000000"
     borderopacity="0.25"
     inkscape:showpageshadow="2"
     inkscape:pageopacity="0.0"
     inkscape:pagecheckerboard="0"
     inkscape:deskcolor="#d1d1d1"
     inkscape:lockguides="true" /><g
     id="g2"
     transform="matrix(0.01680412,0,0,0.01680412,2.3223572e-8,-3.8560138)"><path
       class="selected"
       fill="#000000"
       opacity="1"
       stroke="none"
       d="m 1187.9706,666.90851 c -7.7924,-14.45899 -15.7226,-28.47803 -22.7935,-42.91785 -13.3601,-27.28333 -23.6821,-55.72479 -30.4177,-85.38586 -3.226,-14.20588 -6.5402,-28.42395 -8.8772,-42.78897 -1.8092,-11.1207 -2.5637,-22.46049 -3.0654,-33.73496 -0.7127,-16.01153 -1.3709,-32.07031 -0.9025,-48.07526 0.37,-12.64242 1.9656,-25.31399 3.9347,-37.82815 2.4664,-15.67444 4.9497,-31.4523 9.1103,-46.72663 4.9418,-18.14218 11.1192,-36.00793 17.8112,-53.59387 5.1399,-13.50702 11.4495,-26.62954 18.0544,-39.50461 10.5789,-20.62074 23.1797,-40.01735 36.8471,-58.76959 16.9065,-23.19659 36.0763,-44.36902 57.1356,-63.71392 13.0961,-12.02995 27.4159,-22.76071 41.4844,-33.690931 20.16,-15.662774 42.2484,-28.244256 65.2202,-39.261322 20.2007,-9.688077 41.0222,-17.921351 62.6871,-23.640194 16.1565,-4.264765 32.4897,-8.071627 48.9441,-10.932687 14.6562,-2.54841 29.5496,-4.159205 44.4057,-5.020006 17.8211,-1.032604 35.7727,-1.87573 53.5594,-0.875516 18.2733,1.027594 36.428,4.288848 54.6133,6.731655 25.2902,3.397219 49.6533,10.612909 73.5884,19.100948 21.8221,7.738796 43.1349,16.841011 63.0178,28.898285 14.6687,8.895359 29.2947,17.865665 43.7991,27.025188 7.7772,4.911263 8.7585,10.609879 3.2036,17.779862 -7.7526,10.006908 -15.8082,19.778468 -23.6375,29.726918 -8.1958,10.41432 -16.2837,20.91384 -24.4072,31.38506 -8.022,10.34068 -16.0425,20.6826 -24.0398,31.04237 -11.2082,14.51935 -22.3224,29.11197 -33.6096,43.56947 -12.4071,15.89177 -25.0316,31.61374 -37.439,47.50525 -13.7486,17.6095 -27.3193,35.35804 -41.0821,52.95643 -1.6272,2.08074 -1.6133,2.66213 0.5287,4.6289 16.9779,15.58914 34.552,30.66263 50.2602,47.46738 19.6189,20.98828 36.8358,44.06573 50.7954,69.34762 7.7821,14.09379 16.0542,27.9762 22.8613,42.53556 10.9954,23.51632 20.3473,47.73739 26.1431,73.15866 3.7532,16.4613 7.8281,32.87134 10.8436,49.47064 1.923,10.58466 2.3423,21.46094 3.1274,32.22888 0.8657,11.87586 1.9058,23.77777 1.8989,35.66779 -0.01,12.22406 -0.5291,24.52667 -1.9889,36.65491 -3.1539,26.20318 -7.0649,52.32543 -15.8909,77.3786 -6.1971,17.59112 -11.9644,35.37719 -19.133,52.57208 -10.5951,25.41363 -24.1796,49.35406 -39.9492,71.92102 -8.8538,12.67047 -18.2437,25.0639 -28.4028,36.69971 -12.3601,14.15686 -25.2273,27.97705 -38.9099,40.84233 -12.6465,11.8912 -26.1775,22.9865 -40.1841,33.2521 -20.8699,15.2958 -43.0225,28.7212 -66.5111,39.694 -24.8138,11.5918 -50.396,21.2103 -77.13,27.4166 -14.1889,3.2942 -28.4543,6.3132 -42.7797,8.9413 -7.1069,1.3038 -14.4145,1.7525 -21.6534,2.0518 -20.2166,0.8361 -40.452,2.0518 -60.666,1.832 -13.9603,-0.1517 -27.8962,-2.4538 -41.8454,-3.7697 -20.9063,-1.9722 -41.3564,-6.5502 -61.4729,-12.2004 -16.456,-4.6222 -32.6131,-10.4992 -48.5479,-16.7276 -12.751,-4.9839 -25.1293,-11.0114 -37.3872,-17.1468 -20.8894,-10.4556 -40.3794,-23.2001 -59.2137,-37.017 -3.5981,-2.6395 -3.8345,-3.2903 -0.9147,-6.9755 15.4313,-19.4768 30.2839,-39.41085 45.4298,-59.11519 15.8507,-20.62165 31.7711,-41.18994 47.7273,-61.73023 11.9624,-15.39917 24.0995,-30.66296 36.031,-46.08593 11.9916,-15.50068 23.7701,-31.16626 35.7482,-46.67762 7.4334,-9.62646 14.9636,-19.18304 22.6721,-28.58929 2.1343,-2.60431 1.6041,-4.03772 -0.6172,-6.03583 -14.4717,-13.01782 -29.7338,-25.30676 -43.0289,-39.44116 -13.4816,-14.33252 -25.1965,-30.36066 -37.283,-45.95783 -6.2662,-8.08636 -11.6627,-16.84692 -17.702,-25.55291 m 190.75,-1.25 c 2.4752,-3.14191 4.952,-6.2826 7.4255,-9.42597 11.0751,-14.07403 22.2158,-28.09723 33.2041,-42.23889 9.8724,-12.70556 19.4766,-25.62012 29.3818,-38.29962 11.4325,-14.63446 23.1772,-29.02539 34.5831,-43.68012 14.4893,-18.61633 28.6763,-37.46795 43.1763,-56.07583 13.7704,-17.67163 27.8475,-35.10382 41.6558,-52.74603 11.302,-14.43992 22.3525,-29.07624 33.617,-43.5459 8.7484,-11.23764 17.8264,-22.22455 26.3336,-33.6391 1.5453,-2.07343 5.4762,-4.20682 2.8746,-8.14154 -0.2933,-0.44376 -0.2169,-1.13205 -0.3118,-1.707 -0.6467,0.28405 -1.5136,0.3909 -1.9063,0.87918 -4.6123,5.73376 -9.1968,11.49124 -13.7052,17.3071 -11.3357,14.62368 -22.6297,29.27963 -33.9383,43.9244 -7.8957,10.22519 -15.7613,20.47376 -23.6883,30.67453 -8.3328,10.72315 -16.6793,21.43613 -25.099,32.09089 -9.1381,11.56359 -18.4665,22.97787 -27.5304,34.59875 -9.8956,12.68713 -19.4932,25.607 -29.3889,38.29407 -9.064,11.62079 -18.4682,22.97668 -27.5122,34.61267 -10.8473,13.95624 -21.3621,28.1712 -32.2234,42.11633 -11.411,14.65094 -23.1369,29.05628 -34.5861,43.67774 -11.4071,14.56756 -22.6404,29.2713 -33.9518,43.91381 -7.8016,10.09894 -15.566,20.22706 -23.4209,30.28437 -8.7612,11.21789 -17.7649,22.25061 -26.3296,33.61523 -3.0548,4.05341 -5.1975,8.80829 -7.5872,13.33234 -0.3322,0.62884 0.3111,1.77301 0.5029,2.67859 0.5615,-0.58661 1.1572,-1.14441 1.6789,-1.76447 3.4274,-4.07434 6.9717,-8.05902 10.2325,-12.26337 13.4861,-17.38787 26.8454,-34.87408 40.3274,-52.26525 11.8425,-15.27649 23.7866,-30.47437 36.1859,-46.20691 z"
       id="path1" /><path
       class="selected"
       fill="#000000"
       opacity="1"
       stroke="none"
       d="m 857.72057,134.15851 c 6.33338,21.20817 12.62097,41.93049 19.01215,62.6208 7.16388,23.1917 14.44946,46.34578 21.63068,69.53218 7.45776,24.07907 14.88794,48.16684 22.26672,72.2702 6.29498,20.56284 12.44525,41.17002 18.75897,61.72705 7.71777,25.12809 15.61261,50.20182 23.29297,75.34125 6.24017,20.42575 12.16431,40.94827 18.43256,61.36521 7.7586,25.2713 15.78973,50.4588 23.58298,75.71954 4.7904,15.52747 9.3173,31.13605 14.0316,46.68726 8.3027,27.38855 16.5924,54.78118 25.0116,82.13397 7.1853,23.34466 14.6097,46.61578 21.8081,69.95648 6.3378,20.5495 12.5379,41.14172 18.7389,61.73309 2.2339,7.41815 3.9486,15.01569 6.6183,22.26691 0.9453,2.56732 0.8892,2.75568 -1.4864,2.65192 -0.8317,-0.0364 -1.6663,-0.006 -2.4995,-0.006 -360.80565,0 -721.61122,-0.004 -1082.416793,0.0566 -3.674962,6.1e-4 -5.525646,0.30047 -3.923809,-4.69696 7.647853,-23.85956 14.777955,-47.88471 22.149802,-71.83313 6.550549,-21.28034 13.195546,-42.53168 19.76405,-63.80646 6.387451,-20.68842 12.773991,-41.3772 19.080891,-62.09027 5.949791,-19.54022 11.725731,-39.13348 17.703354,-58.6651 8.417488,-27.50385 17.009902,-54.95423 25.414215,-82.46198 6.10461,-19.98071 11.9856,-40.02966 18.03815,-60.02639 8.96344,-29.61393 17.94472,-59.2226 27.00548,-88.80683 6.83731,-22.32446 13.82779,-44.60196 20.71938,-66.90985 7.44052,-24.08475 14.9082,-48.16138 22.24557,-72.27759 5.76677,-18.95402 11.29912,-37.97926 17.03301,-56.94342 8.2828,-27.39445 16.60325,-54.77778 25.00177,-82.13694 7.84997,-25.57219 15.84758,-51.099019 23.7317,-76.660771 4.46826,-14.486928 8.83026,-29.006619 13.26737,-43.503216 0.43112,-1.408578 1.05447,-2.758313 1.58859,-4.135366 0.46588,1.306912 0.98685,2.597101 1.38943,3.923228 7.01139,23.095049 13.95075,46.212138 21.02567,69.287673 6.11816,19.955001 12.39993,39.859802 18.58563,59.794152 7.79041,25.10571 15.62967,50.19659 23.30777,75.33665 5.19992,17.02584 10.00647,34.17232 15.25876,51.18154 9.16724,29.6875 18.5816,59.29858 27.81479,88.96585 5.05636,16.24649 9.99039,32.53137 14.91486,48.81848 8.06131,26.66199 15.99111,53.36401 24.12652,80.0033 6.0954,19.95922 12.45297,39.83828 18.64649,59.76773 7.80114,25.10266 15.62206,50.19946 23.30609,75.33807 6.10723,19.98023 11.95382,40.03998 18.03793,60.02741 8.60242,28.26055 17.27005,56.50152 25.99826,84.7235 7.2623,23.48237 14.7377,46.89905 21.95718,70.39441 5.36451,17.45844 10.4621,34.99885 15.70533,52.49469 0.48553,1.62024 1.16449,3.18244 1.7536,4.77161 0.58917,-1.54297 1.25354,-3.06183 1.75525,-4.63275 3.29101,-10.30481 6.61761,-20.59912 9.80041,-30.93756 8.37384,-27.20007 16.64215,-54.43262 25.02527,-81.62976 7.19568,-23.34485 14.53125,-46.64649 21.73315,-69.98938 7.70618,-24.97754 15.32831,-49.98096 22.98713,-74.97309 7.65875,-24.99212 15.30297,-49.9887 22.98059,-74.97509 7.40381,-24.09571 14.90472,-48.16184 22.24603,-72.27655 6.22009,-20.43201 12.15973,-40.94971 18.42914,-61.36631 7.75976,-25.27066 15.81146,-50.45169 23.58313,-75.71875 4.82409,-15.6839 9.28051,-31.48059 14.04754,-47.1824 8.2677,-27.23245 16.59894,-54.44589 24.99689,-81.63846 7.20752,-23.33815 14.60944,-46.61633 21.80676,-69.95761 6.33661,-20.54991 12.45398,-41.16731 18.76776,-61.724341 7.71772,-25.128048 15.54084,-50.223759 23.30219,-75.338443 0.14008,-0.45336 0.0186,-0.982364 0.12195,-1.453507 0.15045,-0.685508 0.39447,-1.350468 0.59863,-2.024174 0.12915,0.613117 0.21106,1.240736 0.39429,1.837255 6.99194,22.767666 13.95898,45.543066 21.00366,68.294436 5.8985,19.049751 11.89178,38.070154 17.83301,57.106694 0.42755,1.36994 0.77295,2.76549 1.15655,4.64913 z"
       id="path2" /></g></svg>
