<?xml version="1.0" standalone="no"?>
<!DOCTYPE svg PUBLIC "-//W3C//DTD SVG 1.0//EN" "http://www.w3.org/TR/2001/REC-SVG-20010904/DTD/svg10.dtd">
<svg xmlns="http://www.w3.org/2000/svg" xmlns:xlink="http://www.w3.org/1999/xlink" id="body_1" width="550" height="550">

<g transform="matrix(0.47670275 0 0 0.47670275 12.492323 -0)">
    <path d="M1101.0117 1153.7222C 1000.6243 1153.6835 900.23694 1153.6448 799.84955 1153.6061C 831.4034 1129.6501 847.3869 1090.8269 860.3951 1053.406C 862.36414 1047.7416 864.3228 1041.9005 864.0643 1035.9092C 863.54913 1023.9726 854.4191 1014.1603 844.6021 1007.35046C 834.78516 1000.54065 823.6255 995.42053 815.32336 986.82855C 836.5304 981.52783 857.7313 993.81934 876.2456 1005.44073C 949.73517 1051.5703 1024.8296 1095.143 1101.3475 1136.0533C 1101.2356 1141.9429 1101.1237 1147.8325 1101.0117 1153.7222z" stroke="none" fill="#000000" fill-rule="nonzero" />
    <path d="M319.72592 1153.7589C 213.15062 1153.7253 106.57531 1153.6919 0 1153.6583C 0.023966 1120.3982 0.047933 1087.1381 0.071899 1053.8779C 66.96434 1024.2227 133.85678 994.5673 200.74924 964.9121C 219.17958 956.7414 238.14758 948.43884 258.28647 947.50977C 266.36392 947.13715 275.50302 948.51117 280.316 955.00885C 271.1182 958.78937 261.92038 962.56995 252.72255 966.3505C 249.91748 967.5035 246.9806 968.7543 245.12408 971.1524C 242.77054 974.19257 242.6792 978.36285 242.81163 982.20526C 245.00827 1045.9414 279.9893 1103.8778 319.72592 1153.7589z" stroke="none" fill="#000000" fill-rule="nonzero" />
    <path d="M348.18683 571.61017C 339.17407 562.34467 330.16132 553.07916 321.14856 543.81366C 334.35925 542.14374 346.6424 550.1531 357.54697 557.79517C 359.59995 559.2339 360.15155 562.15265 359.51797 564.5782C 358.88443 567.0038 357.30945 569.05664 355.77142 571.0363C 354.75693 572.34216 353.50546 573.77075 351.8519 573.7748C 350.39175 573.7783 349.20493 572.6568 348.18683 571.61017z" stroke="none" fill="#000000" fill-rule="nonzero" />
    <path d="M783.9271 575.86005C 782.3707 574.7908 780.7912 573.7003 779.60315 572.23254C 775.07043 566.6327 778.5188 557.3378 785.03265 554.26C 791.5466 551.18225 799.5001 553.1365 805.49585 557.13086C 811.4916 561.1252 816.03076 566.89374 820.86084 572.2392C 824.06866 575.78937 827.49506 579.2603 829.61993 583.54736C 831.7448 587.83435 832.3569 593.2161 829.84625 597.28925C 828.7024 599.1449 826.8735 600.6638 824.72577 601.0368C 821.5997 601.5798 818.62036 599.6964 816.00525 597.89966C 805.31256 590.55316 794.6198 583.2066 783.9271 575.86005z" stroke="none" fill="#000000" fill-rule="nonzero" />
    <path d="M662.56793 587.0352C 667.16394 583.7784 673.39124 587.19574 677.92053 590.54474C 672.68933 598.0522 669.07 606.6769 667.37726 615.6691C 663.96533 611.7123 659.99493 608.23773 655.6206 605.3806C 655.6205 600.2359 656.99695 595.0976 659.56885 590.6419C 660.3567 589.2769 661.28204 587.9464 662.56793 587.0352z" stroke="none" fill="#000000" fill-rule="nonzero" />
    <path d="M829.94745 513.45575C 823.7734 511.76645 817.85376 516.5447 813.342 521.08527C 808.8302 525.62585 803.3496 530.6886 797.0266 529.69226C 793.6985 529.16785 790.71783 526.8152 789.43475 523.6999C 787.5198 519.05035 789.48193 513.52765 792.9291 509.86676C 796.3762 506.2058 801.059 504.00943 805.62244 501.89743C 814.0389 498.0022 822.9766 494.01315 832.20166 494.96573C 837.25885 495.4879 842.06476 497.48972 846.46796 500.0313C 851.1968 502.7608 855.71075 506.33023 858.01587 511.27975C 859.1522 513.71967 859.6998 516.38495 860.23834 519.02203C 863.4863 534.9275 866.644 551.956 860.4679 566.969C 850.75104 557.8919 843.85803 545.8334 840.9669 532.85443C 840.1127 529.01953 839.5873 525.07153 838.05133 521.45526C 836.51544 517.83905 833.73706 514.4926 829.94745 513.45575z" stroke="none" fill="#000000" fill-rule="nonzero" />
    <path d="M827.8814 639.194C 826.16785 641.6107 824.28937 644.15784 821.5122 645.18945C 816.6699 646.9882 810.77057 642.1429 811.5942 637.04333C 812.13293 633.7073 814.8138 631.18317 817.3961 629.0034C 824.9474 622.6292 833.00476 616.8547 841.4673 611.752C 844.36926 614.13513 842.35175 618.78564 840.17975 621.8489C 836.0803 627.63055 831.98083 633.4123 827.8814 639.194z" stroke="none" fill="#000000" fill-rule="nonzero" />
    <path d="M737.4095 601.47064C 742.6712 608.0068 742.9308 618.09106 738.0123 624.8893C 734.8814 629.2168 730.1343 632.0361 725.52405 634.7336C 721.447 629.2454 724.2194 621.442 727.65875 615.5333C 730.5313 610.5983 733.7951 605.8912 737.4095 601.47064z" stroke="none" fill="#000000" fill-rule="nonzero" />
    <path d="M685.43744 672.2833C 685.37714 673.6905 685.28986 675.1816 684.4894 676.34045C 683.16125 678.26324 680.47327 678.5263 678.13776 678.60675C 678.89453 674.34326 677.30707 669.9805 677.66473 665.66516C 678.0224 661.34985 682.05707 656.6525 686.03406 658.36554C 685.83514 663.00476 685.6363 667.64404 685.43744 672.2833z" stroke="none" fill="#000000" fill-rule="nonzero" />
    <path d="M398.22205 526.97723C 404.28336 526.3641 410.5522 528.10016 415.4345 531.7441C 417.97647 533.64124 420.29697 536.4428 420.02756 539.6032C 411.24548 539.5187 402.6673 534.55164 398.22205 526.97723z" stroke="none" fill="#000000" fill-rule="nonzero" />
    <path d="M333.7621 475.6234C 332.47098 475.44055 331.0836 475.2115 330.16028 474.29074C 331.2005 467.63577 340.58902 464.11386 345.7496 468.4427C 346.92426 471.0589 344.90103 474.21478 342.2515 475.31213C 339.60196 476.40952 336.60153 476.02563 333.7621 475.6234z" stroke="none" fill="#000000" fill-rule="nonzero" />
    <path d="M699.8189 776.2718C 699.8808 776.88696 699.848 777.5304 699.57916 778.08716C 699.13824 779.0002 698.16504 779.5093 697.2551 779.9566C 693.4898 781.8078 689.7244 783.659 685.9591 785.5102C 683.31354 781.1437 683.86847 774.7171 688.0053 771.72504C 692.14215 768.733 699.3077 771.192 699.8189 776.2718z" stroke="none" fill="#000000" fill-rule="nonzero" />
    <path d="M298.88107 736.3824C 296.78232 736.587 294.62766 736.75714 292.59515 736.1954C 290.7202 735.6771 289.02502 734.52997 287.84677 732.9822C 297.70984 726.4681 311.4728 726.4864 321.3185 733.0267C 313.9033 734.5278 306.411 735.6483 298.88107 736.3824z" stroke="none" fill="#000000" fill-rule="nonzero" />
    <path d="M247.98627 757.19495C 247.42079 750.1787 252.4135 743.96606 257.7298 739.3526C 260.394 737.0406 263.4598 734.8187 266.98334 734.6514C 269.81134 734.5171 272.5133 735.73315 275.04208 737.0063C 283.85947 741.4455 292.15585 746.91846 299.70694 753.2772C 302.43652 755.57574 305.3687 758.11755 308.93277 758.2957C 310.91074 758.39465 312.83603 757.7371 314.7747 757.33234C 321.44208 755.9403 328.6957 757.681 334.00525 761.9473C 330.71945 773.01276 319.406 779.3308 309.0883 784.5063C 305.76407 786.1737 302.36035 787.8662 298.67258 788.347C 293.98016 788.9587 289.28033 787.55664 284.78366 786.08264C 272.98395 782.2146 260.8399 777.35675 252.91057 767.80054C 250.38179 764.7529 248.30441 761.1423 247.98627 757.19495z" stroke="none" fill="#000000" fill-rule="nonzero" />
    <path d="M496.40067 510.43607C 483.95444 518.6691 468.79575 522.7247 453.90115 521.80634C 430.53574 520.36566 408.33273 507.17734 385.07196 509.81458C 378.7392 510.5326 372.5476 512.4231 366.17804 512.6432C 359.8085 512.86334 352.86084 511.02698 349.11368 505.87155C 340.1062 493.47882 356.0827 476.69754 353.3997 461.61392C 351.90894 453.23297 344.93738 447.08234 338.39282 441.63885C 332.5934 436.81512 326.79398 431.9914 320.99457 427.16766C 316.9032 423.76462 322.31964 416.80338 327.63583 417.04413C 332.95206 417.28488 337.4243 421.03287 342.53702 422.5094C 355.1344 426.14743 367.1088 415.6745 379.88477 412.72424C 397.235 408.71768 414.45175 418.86517 432.1015 421.22513C 486.3379 428.47717 538.7979 448.68375 583.88495 479.68912C 571.4374 487.64188 558.5831 494.958 545.38916 501.59937C 538.0685 505.28427 529.9363 508.8533 521.9365 507.0714C 518.0365 506.2027 514.37573 504.08276 510.38007 504.07303C 505.1766 504.0604 500.74054 507.56528 496.40067 510.43607zM535.11786 469.40558C 507.74255 459.26575 480.3673 449.12595 452.99203 438.9861C 450.9799 438.2408 448.74643 438.8219 446.68204 439.4071C 437.62738 441.97382 428.57272 444.54056 419.51804 447.10727C 416.30716 448.0175 412.58105 449.43646 411.79416 452.67978C 410.81683 456.7079 415.43735 460.10693 419.58115 460.20572C 423.72495 460.30453 427.6779 458.45776 431.80884 458.11713C 435.83115 457.78543 439.81778 458.89114 443.7024 459.98608C 454.74063 463.09747 465.77887 466.20886 476.81714 469.32025C 498.64725 475.47357 521.7513 481.65424 543.68616 475.88562C 542.47833 472.37964 538.59515 470.69357 535.11786 469.40558zM447.22934 504.0629C 458.1471 506.6519 470.20593 503.87518 478.89197 496.7722C 455.89676 490.127 431.72144 487.58777 407.84735 489.31006C 407.83887 493.7836 413.1802 495.98862 417.53302 497.02084C 427.4318 499.3682 437.33057 501.71555 447.22934 504.0629z" stroke="none" fill="#000000" fill-rule="nonzero" />
    <path d="M659.46564 796.2074C 658.22205 794.02405 656.9785 791.84076 655.7349 789.6574C 655.3084 799.87604 666.0618 806.491 675.33093 810.8137C 637.4595 826.95746 603.5825 852.37897 577.4972 884.22894C 562.48236 902.5619 535.56433 904.82764 511.89297 903.7281C 502.7491 903.3034 493.00754 902.72534 485.05606 907.2602C 477.10458 911.79504 472.72964 923.7088 479.07825 930.3032C 474.78668 936.54895 466.23544 937.7854 458.68777 938.463C 442.33356 939.9313 425.97934 941.3995 409.62512 942.86774C 403.09177 943.4543 396.0169 943.91864 390.47504 940.4091C 381.8696 934.9596 381.0306 922.9533 381.12598 912.7679C 375.30307 911.6704 371.0783 917.92694 368.15002 923.07825C 365.2217 928.2295 359.57187 933.87256 354.32156 931.12573C 354.22336 915.1519 353.0814 896.91016 340.57623 886.9707C 331.49854 879.7555 319.0492 879.1803 307.56534 877.5725C 291.99442 875.3926 276.77106 870.74805 262.63513 863.8646C 255.11101 860.20074 247.69206 855.72955 242.69286 849.01807C 237.54001 842.1003 235.4197 833.45 233.47383 825.0464C 223.06802 780.1067 214.23706 734.3759 215.03717 688.25415C 215.48587 662.3887 218.96413 636.66296 223.42438 611.18097C 224.84843 603.04504 228.12053 593.15454 236.30421 592.0372C 244.12897 590.9689 249.88713 598.8419 256.75674 602.7376C 269.03464 609.70026 284.18512 603.5459 298.22928 602.13617C 316.55515 600.2967 338.70618 605.66437 350.71487 591.69965C 354.3754 595.6552 358.14154 599.7878 359.77686 604.9231C 361.41217 610.0584 360.26715 616.5023 355.7122 619.38293C 351.2774 622.18756 345.50903 620.7793 340.30124 621.4214C 335.09348 622.06354 329.5004 627.70013 332.64566 631.9002C 336.1715 636.60846 329.70676 642.0803 326.54532 647.04065C 321.9067 654.3187 325.96402 665.50903 334.18924 668.12305C 338.1878 669.3938 342.64532 668.8597 346.51498 670.4811C 350.38464 672.1025 353.0893 677.7095 349.8745 680.40546C 327.50644 671.0695 303.17166 667.72296 279.15405 664.46045C 263.66357 662.3562 243.94843 662.3534 237.11613 676.41406C 235.4215 679.90155 234.92525 684.28467 237.04051 687.53436C 239.15579 690.784 244.42781 691.8879 246.98509 688.97327C 253.06184 682.04736 263.70053 682.18567 272.8815 682.9633C 304.3667 685.6301 335.76556 689.31573 367.01248 694.0123C 373.587 695.00055 380.33112 696.0945 386.0685 699.4535C 393.38675 703.73804 398.19617 711.1718 402.73306 718.33636C 408.63458 727.65576 414.7866 738.48346 411.78577 749.09827C 410.34378 754.19904 406.8918 758.57574 405.6192 763.72144C 404.34662 768.86707 406.648 775.69714 411.92252 776.2233C 419.82184 777.0114 426.96933 782.91 429.24176 790.51636C 431.5142 798.1227 428.7737 806.97534 422.60123 811.96747C 431.0804 812.07385 442.7393 815.75165 441.15213 824.08167C 440.5366 827.3124 437.7586 830.26447 438.61807 833.43896C 439.1189 835.28864 440.75433 836.5912 442.39575 837.58014C 456.0599 845.8128 473.71906 840.676 488.07108 833.7114C 502.42307 826.74677 517.11066 817.8828 533.0059 819.2345C 546.6444 820.3942 558.47955 809.933 571.9177 807.33105C 583.269 805.13324 596.1652 808.40826 605.7633 801.9617C 612.9602 797.1278 617.322 787.33014 625.93085 786.3055C 629.7098 785.8557 633.48956 787.31885 637.2893 787.10675C 641.089 786.8947 645.31946 783.6315 644.1509 780.0097C 641.4897 771.7615 649.176 762.523 657.8369 762.1998C 666.4978 761.87665 674.33435 768.9308 676.6082 777.2941C 678.5827 784.5563 678.6944 794.64087 686.01776 796.37445C 677.21277 795.2979 668.28345 795.2417 659.46564 796.2074zM385.73904 846.81C 388.6478 846.49005 391.74942 846.0896 393.96887 844.18243C 396.18832 842.27527 396.83838 838.29236 394.47522 836.56647C 388.15518 836.588 381.84412 834.5692 376.70993 830.8836C 383.48212 826.7346 390.2543 822.58563 397.0265 818.43665C 398.0287 817.82263 399.05942 817.1824 399.73663 816.2218C 402.02206 812.9799 399.1718 808.7459 396.96362 805.45087C 391.1451 796.7687 389.49637 785.42004 392.60376 775.44104C 387.62338 776.87476 382.3101 777.1378 377.21246 776.20306C 378.15845 767.6374 384.36093 760.7123 387.9264 752.8667C 391.49182 745.0211 391.0015 733.4937 382.97336 730.36084C 352.7253 718.55695 320.74106 711.213 288.37357 708.63965C 278.6042 707.863 268.60394 707.53973 259.17615 710.2157C 249.74837 712.8917 240.85777 719.01025 237.0123 728.0245C 234.5742 733.7396 234.31491 740.1271 234.40475 746.3399C 234.6751 765.03217 237.80237 783.6805 243.64462 801.43835C 245.14722 806.00555 247.73117 811.2593 252.51463 811.74493C 255.76585 812.075 258.7091 809.9788 261.84674 809.0652C 272.51743 805.95795 281.8881 816.4385 292.33945 820.2184C 301.02188 823.3585 311.5304 822.0575 318.63913 827.9491C 325.8032 833.8866 327.25 845.53735 335.5904 849.6623C 339.85995 851.7739 344.89636 851.30225 349.631 850.7815C 361.66702 849.45764 373.70303 848.1338 385.73904 846.81zM250.74869 623.01465C 248.18324 620.91565 245.17935 618.7618 241.88876 619.16113C 236.75204 619.78455 234.4947 625.86774 233.48228 630.94214C 231.23012 642.23047 229.82266 654.17975 233.58882 665.057C 240.49913 660.9542 246.6466 655.57135 251.6259 649.26324C 256.17142 643.5047 259.80145 635.51465 256.33853 629.047C 255.0357 626.6138 252.88484 624.76245 250.74869 623.01465zM526.9046 837.3632C 534.53076 842.92456 546.91724 839.72186 550.89197 831.16095C 548.07513 830.29846 545.3155 829.2494 542.637 828.0228C 537.5927 831.4576 532.33514 834.579 526.9046 837.3632zM426.52014 934.6177C 428.02606 932.8822 428.92242 930.6279 429.0194 928.3323C 421.02252 926.18915 413.0256 924.046 405.02872 921.90295C 405.39224 923.7154 405.06625 925.6575 404.13086 927.2519C 411.71432 929.31885 419.19073 931.7785 426.52014 934.6177zM313.74786 625.89966C 309.92447 624.1823 305.7043 622.42847 301.66653 623.5527C 299.423 624.1773 297.49637 625.648 295.9093 627.35236C 301.08234 631.37006 309.2931 630.7014 313.74786 625.89966zM545.58734 883.7578C 544.17554 885.40955 545.3772 888.46063 547.5362 888.70605C 547.9637 886.79047 547.2163 884.6614 545.6853 883.4332z" stroke="none" fill="#000000" fill-rule="nonzero" />
    <path d="M777.4846 813.1522C 759.3607 866.89294 766.1554 925.66034 776.91284 981.3453C 768.6445 987.37506 758.9724 975.5577 756.1189 965.73004C 734.58685 891.5734 755.91785 812.218 781.3119 739.2936C 784.9858 728.7432 782.5637 710.9575 771.85315 714.13385C 756.21466 718.77167 738.3946 715.2563 725.68896 705.0271C 713.6087 697.50836 715.27295 678.78204 723.0695 666.8792C 730.866 654.9764 742.9642 646.10583 749.39197 633.4115C 765.98615 600.63965 740.4191 553.1054 766.79095 527.5343C 760.52875 563.1279 780.67267 601.7045 813.4598 616.9074C 803.58435 621.74994 792.01526 623.0472 781.3125 620.5121C 785.0447 628.4715 778.35583 637.6061 770.7808 642.067C 763.2058 646.52795 754.1284 648.9301 748.25714 655.47296C 734.0002 671.3607 752.22986 699.0396 773.5519 700.06635C 794.87384 701.093 813.23364 685.3751 826.68115 668.79663C 852.2988 637.21436 869.2946 598.7073 875.3637 558.4969C 877.8203 542.2211 878.4502 525.1893 872.9229 509.68494C 867.3956 494.1806 854.6842 480.44968 838.496 477.4705C 826.66986 475.29413 814.63 478.90344 803.14734 482.47302C 787.60864 487.30347 772.0699 492.13394 756.5311 496.96442C 747.9641 499.62762 739.17645 502.40536 732.168 508.0062C 703.42194 530.9788 719.7566 585.6612 689.46106 606.5481C 684.6319 584.4818 686.1131 561.07117 693.6848 539.7895C 688.43085 547.079 683.1769 554.36847 677.92285 561.658C 676.02673 524.02795 685.0316 483.41187 666.593 450.55405C 640.341 403.77258 573.25726 397.89777 537.48444 357.923C 542.1063 353.09845 549.83185 351.56787 555.9441 354.2658C 552.8701 331.27505 563.36694 306.9741 582.2128 293.4516C 591.4286 286.83902 579.52954 272.48547 568.25116 271.27954C 556.9727 270.0736 543.0362 272.16772 536.62585 262.81018C 526.43335 247.93152 505.92862 245.34875 487.95203 243.89792C 446.28568 240.53514 404.72214 235.89833 363.33908 229.99617C 349.57584 223.82977 336.64438 239.73402 329.85248 253.19958C 310.6393 291.2915 291.42615 329.38345 272.21298 367.47537C 267.6604 376.5013 263.0131 385.87564 262.57227 395.97513C 262.13144 406.07462 267.1019 417.1519 276.61935 420.55948C 288.30417 424.74307 294.58914 438.21356 294.14703 450.61685C 293.70496 463.0201 287.96286 474.56042 281.93454 485.4092C 267.85092 510.75473 251.51073 534.84576 233.17049 557.3042C 240.1718 534.68317 242.03163 510.48715 238.56967 487.0619C 236.54443 473.35812 232.72313 459.86453 232.31874 446.01782C 231.53569 419.20578 243.51083 393.8682 255.21393 369.73242C 273.95706 331.07767 292.7002 292.4229 311.44333 253.76819C 319.4778 237.19836 324.2679 211.59444 306.96 205.30571C 276.71014 194.31467 262.58075 156.83797 268.92596 125.28491C 275.27118 93.73186 297.21387 67.6306 320.93115 45.874043C 335.27097 32.719723 350.79092 20.435572 368.69046 12.80189C 395.66254 1.298988 425.93604 1.148475 455.2563 1.514821C 502.34296 2.103152 549.4188 3.554559 596.45233 5.868068C 597.16376 12.607756 600.084 19.096111 604.657 24.09783C 618.86584 16.06522 633.0747 8.03261 647.28357 -0C 644.99786 24.621538 616.7978 43.175423 593.28217 35.529545C 590.9034 41.314526 595.92413 47.827038 601.7816 50.02113C 607.6391 52.21522 614.1217 51.61849 620.3279 52.397747C 642.16296 55.13937 657.8621 74.02816 671.22375 91.513916C 663.93695 71.91322 652.8522 53.73245 638.76556 38.27758C 687.03577 37.02634 734.1354 52.206543 779.3345 69.195335C 848.70795 95.27047 921.30975 130.57756 955.31384 196.4283C 971.3316 227.44759 977.2536 263.57993 971.9758 298.0895C 967.2119 329.2392 998.4685 365.0173 978.028 389.00034C 908.04565 471.1113 901.64417 589.5916 850.07874 684.3584C 826.4709 727.7449 793.269 766.3487 777.4846 813.1522zM498.8404 40.355923C 495.01138 37.23143 489.34238 38.435368 484.6964 40.120193C 471.58514 44.874905 459.42462 52.235306 449.13174 61.646458C 445.44455 65.01781 441.7282 69.38077 442.32114 74.34161C 446.69962 75.487946 451.13766 73.06549 455.0171 70.73409C 465.9731 64.149895 476.9291 57.565693 487.88513 50.981495C 492.33902 48.304855 497.1081 45.25497 498.8404 40.355923zM406.89502 27.357773C 403.08752 24.93965 398.09167 25.139206 393.851 26.675812C 389.61038 28.212418 385.91995 30.925768 382.16782 33.428936C 372.54404 39.84928 362.12897 45.082264 351.23352 48.971664C 344.90833 51.229607 337.1991 54.497597 336.76248 61.199535C 338.54883 62.31205 340.864 61.546654 342.8135 60.754013C 361.90378 52.992073 380.83545 44.840034 399.59268 36.304703C 403.4182 34.563934 407.95056 31.426027 406.89502 27.357775zM420.57108 60.021152C 427.19788 56.095757 433.556 51.716824 439.58618 46.92514C 442.57108 44.553303 445.71378 41.620857 445.87244 37.81166C 430.56503 39.53866 415.99268 47.127483 405.80167 58.679237C 406.4421 61.508804 409.61743 63.173283 412.51645 63.06223C 415.41547 62.95117 418.07498 61.49971 420.57108 60.021152zM510.01193 9.826957C 507.10397 6.706212 502.35782 5.88128 498.16583 6.670243C 493.97382 7.459205 490.18585 9.618523 486.48746 11.743934C 485.51175 12.304664 484.47455 12.932031 484.02478 13.963612C 483.31845 15.58372 484.4509 17.530375 486.01953 18.34465C 487.58817 19.158926 489.44122 19.138563 491.2082 19.099274C 494.98993 19.01518 498.85352 18.916162 502.4012 17.603718C 505.9489 16.291271 509.1858 13.518318 510.01193 9.826958zM537.8852 18.925814C 535.1181 21.484655 532.44336 24.143248 529.86774 26.894691C 527.1427 29.805742 524.4025 34.14684 526.6506 37.440193C 530.56573 39.532143 535.0039 35.437954 536.80566 31.38109C 538.60736 27.324226 539.89056 22.37713 543.92816 20.532597C 545.6017 19.768059 544.5133 16.864874 542.6904 16.615213C 540.86755 16.365551 539.236 17.67662 537.8852 18.92581zM575.43695 68.029335C 574.79736 67.01298 573.5029 66.54827 572.30493 66.631775C 569.27826 66.84276 567.1924 70.07755 567.14667 73.11123C 567.101 76.144905 568.5387 78.97921 569.9406 81.66993C 570.7963 83.31242 571.6521 84.95492 572.5079 86.59741C 575.1606 81.6395 576.389 75.92971 576.0098 70.319534C 575.95624 69.52598 575.8606 68.70249 575.43695 68.029335zM504.98975 64.49557C 505.0064 63.584362 504.84103 62.55105 504.09094 62.03344C 503.2514 61.454117 502.10352 61.79503 501.1807 62.22964C 496.16922 64.58993 492.33475 69.31397 491.0556 74.70375C 497.43997 76.59486 504.86804 71.15304 504.98975 64.49557zM255.0511 450.41183C 257.36258 455.08813 263.56454 457.38467 268.36417 455.34152C 269.55936 454.31534 270.2112 452.6891 270.05573 451.12146C 265.73425 448.07916 259.6404 447.79095 255.0511 450.41183zM734.02075 74.104C 730.9403 73.34098 727.455 74.6296 725.6119 77.213066C 729.9013 79.9047 734.9903 81.30392 740.05286 81.18359C 738.3324 78.6687 736.13715 76.4798 733.61725 74.7666zM547.56757 57.59955C 544.33405 56.63784 541.2482 60.08908 540.93555 63.448074C 543.0811 62.430687 545.22675 61.4133 547.3724 60.395912C 548.1871 59.945656 547.85864 58.425385 546.93066 58.351643zM773.1605 90.63749C 773.4603 89.02614 771.6016 87.453926 770.0623 88.01681C 770.88635 90.404144 772.0041 92.68995 773.3823 94.806305C 774.6926 93.984535 774.6922 91.7383 773.38153 90.91706z" stroke="none" fill="#000000" fill-rule="nonzero" />
</g>
</svg>