<?xml version="1.0" encoding="utf-8"?><!DOCTYPE svg PUBLIC "-//W3C//DTD SVG 1.1//EN" "http://www.w3.org/Graphics/SVG/1.1/DTD/svg11.dtd"><svg version="1.1" id="Contours" xmlns="http://www.w3.org/2000/svg" xmlns:xlink="http://www.w3.org/1999/xlink" x="0px" y="0px" width="1101.347534px" height="1101.347534px" viewBox="-0.000000 0.000000 1101.347534 1153.758911" enable-background="new 0 0 1101.347534 1101.347534" xml:space="preserve" stroke="black" fill="none" stroke-linecap='round' stroke-linejoin='round'><path class="selected"  fill="#000000" opacity="1.000000" stroke="none" 
 	d="
M1101.011774 1153.722149 C1000.624358 1153.683463 900.236942 1153.644776 799.849526 1153.606090 C831.403396 1129.650154 847.386910 1090.826914 860.395084 1053.406050 C862.364149 1047.741600 864.322810 1041.900523 864.064251 1035.909167 C863.549124 1023.972604 854.419123 1014.160289 844.602141 1007.350465 C834.785159 1000.540640 823.625464 995.420562 815.323376 986.828578 C836.530418 981.527858 857.731351 993.819319 876.245627 1005.440765 C949.735169 1051.570291 1024.829646 1095.142907 1101.347532 1136.053285 C1101.235612 1141.942906 1101.123693 1147.832528 1101.011774 1153.722149 z"/><path class="selected"  fill="#000000" opacity="1.000000" stroke="none" 
 	d="
M319.725917 1153.758867 C213.150612 1153.725364 106.575306 1153.691860 0.000000 1153.658356 C0.023966 1120.398195 0.047933 1087.138033 0.071899 1053.877872 C66.964343 1024.222612 133.856787 994.567352 200.749232 964.912093 C219.179578 956.741413 238.147582 948.438851 258.286462 947.509783 C266.363921 947.137147 275.503008 948.511198 280.316008 955.008831 C271.118185 958.789394 261.920367 962.569949 252.722548 966.350504 C249.917484 967.503461 246.980611 968.754259 245.124089 971.152387 C242.770545 974.192536 242.679206 978.362847 242.811632 982.205259 C245.008266 1045.941382 279.989284 1103.877825 319.725917 1153.758867 z"/><path class="selected"  fill="#000000" opacity="1.000000" stroke="none" 
 	d="
M348.186824 571.610160 C339.174069 562.344664 330.161314 553.079169 321.148559 543.813673 C334.359245 542.143727 346.642385 550.153078 357.546960 557.795145 C359.599956 559.233912 360.151536 562.152629 359.517976 564.578210 C358.884415 567.003792 357.309453 569.056613 355.771410 571.036327 C354.756923 572.342138 353.505470 573.770745 351.851896 573.774769 C350.391766 573.778319 349.204920 572.656806 348.186824 571.610160 z"/><path class="selected"  fill="#000000" opacity="1.000000" stroke="none" 
 	d="
M783.927097 575.860075 C782.370713 574.790748 780.791176 573.700309 779.603131 572.232542 C775.070465 566.632670 778.518786 557.337851 785.032670 554.260038 C791.546554 551.182224 799.500137 553.136477 805.495857 557.130842 C811.491578 561.125208 816.030756 566.893716 820.860813 572.239198 C824.068639 575.789340 827.495056 579.260335 829.619944 583.547350 C831.744832 587.834366 832.356862 593.216103 829.846230 597.289233 C828.702400 599.144924 826.873478 600.663790 824.725739 601.036817 C821.599674 601.579763 818.620384 599.696408 816.005272 597.899671 C805.312547 590.553139 794.619822 583.206607 783.927097 575.860075 z"/><path class="selected"  fill="#000000" opacity="1.000000" stroke="none" 
 	d="
M662.567953 587.035196 C667.163960 583.778359 673.391258 587.195756 677.920544 590.544761 C672.689341 598.052159 669.070032 606.676861 667.377240 615.669134 C663.965311 611.712289 659.994925 608.237706 655.620590 605.380597 C655.620499 600.235922 656.996966 595.097579 659.568821 590.641881 C660.356698 589.276892 661.282029 587.946430 662.567951 587.035195 z"/><path class="selected"  fill="#000000" opacity="1.000000" stroke="none" 
 	d="
M829.947466 513.455729 C823.773371 511.766435 817.853758 516.544657 813.341973 521.085248 C808.830188 525.625839 803.349594 530.688622 797.026581 529.692288 C793.698466 529.167868 790.717843 526.815194 789.434766 523.699897 C787.519796 519.050367 789.481948 513.527679 792.929097 509.866750 C796.376247 506.205822 801.059050 504.009420 805.622459 501.897422 C814.038883 498.002202 822.976605 494.013158 832.201656 494.965721 C837.258870 495.487920 842.064751 497.489709 846.467979 500.031301 C851.196749 502.760798 855.710779 506.330226 858.015883 511.279763 C859.152208 513.719687 859.699823 516.384922 860.238342 519.022053 C863.486334 534.927513 866.643955 551.955992 860.467911 566.968972 C850.751058 557.891878 843.858013 545.833380 840.966904 532.854460 C840.112664 529.019550 839.587252 525.071528 838.051356 521.455275 C836.515459 517.839023 833.737079 514.492604 829.947469 513.455728 z"/><path class="selected"  fill="#000000" opacity="1.000000" stroke="none" 
 	d="
M827.881397 639.193958 C826.167832 641.610693 824.289390 644.157821 821.512227 645.189463 C816.669936 646.988248 810.770595 642.142868 811.594174 637.043345 C812.132950 633.707288 814.813801 631.183152 817.396089 629.003398 C824.947393 622.629210 833.004731 616.854668 841.467313 611.752006 C844.369251 614.135157 842.351717 618.785664 840.179773 621.848883 C836.080312 627.630574 831.980855 633.412266 827.881397 639.193958 z"/><path class="selected"  fill="#000000" opacity="1.000000" stroke="none" 
 	d="
M737.409507 601.470617 C742.671202 608.006788 742.930780 618.091042 738.012324 624.889260 C734.881385 629.216801 730.134268 632.036077 725.524062 634.733555 C721.447050 629.245410 724.219405 621.442012 727.658737 615.533313 C730.531281 610.598343 733.795111 605.891202 737.409507 601.470617 z"/><path class="selected"  fill="#000000" opacity="1.000000" stroke="none" 
 	d="
M685.437434 672.283322 C685.377115 673.690484 685.289885 675.181582 684.489407 676.340451 C683.161250 678.263254 680.473263 678.526313 678.137733 678.606750 C678.894519 674.343237 677.307055 669.980549 677.664718 665.665189 C678.022382 661.349829 682.057093 656.652555 686.034030 658.365514 C685.835165 663.004783 685.636299 667.644052 685.437434 672.283322 z"/><path class="selected"  fill="#000000" opacity="1.000000" stroke="none" 
 	d="
M398.222058 526.977240 C404.283357 526.364090 410.552171 528.100186 415.434515 531.744086 C417.976461 533.641248 420.296961 536.442835 420.027565 539.603235 C411.245487 539.518660 402.667309 534.551656 398.222059 526.977240 z"/><path class="selected"  fill="#000000" opacity="1.000000" stroke="none" 
 	d="
M333.762078 475.623424 C332.470988 475.440543 331.083600 475.211500 330.160270 474.290728 C331.200506 467.635773 340.589020 464.113860 345.749605 468.442699 C346.924246 471.058899 344.901022 474.214770 342.251485 475.312148 C339.601948 476.409525 336.601536 476.025628 333.762079 475.623424 z"/><path class="selected"  fill="#000000" opacity="1.000000" stroke="none" 
 	d="
M699.818909 776.271818 C699.880818 776.886951 699.848000 777.530406 699.579152 778.087130 C699.138232 779.000176 698.165047 779.509260 697.255136 779.956611 C693.489789 781.807811 689.724444 783.659012 685.959098 785.510214 C683.313544 781.143656 683.868499 774.717113 688.005325 771.725047 C692.142151 768.732982 699.307666 771.192013 699.818909 776.271818 z"/><path class="selected"  fill="#000000" opacity="1.000000" stroke="none" 
 	d="
M298.881065 736.382369 C296.782318 736.586963 294.627649 736.757148 292.595167 736.195353 C290.720229 735.677102 289.025018 734.529977 287.846764 732.982175 C297.709834 726.468097 311.472797 726.486392 321.318513 733.026666 C313.903282 734.527791 306.411018 735.648319 298.881065 736.382368 z"/><path class="selected"  fill="#000000" opacity="1.000000" stroke="none" 
 	d="
M247.986272 757.194939 C247.420788 750.178725 252.413500 743.966038 257.729807 739.352590 C260.394017 737.040611 263.459802 734.818739 266.983329 734.651410 C269.811328 734.517111 272.513318 735.733149 275.042096 737.006291 C283.859474 741.445500 292.155855 746.918457 299.706953 753.277204 C302.436537 755.575775 305.368728 758.117526 308.932757 758.295744 C310.910727 758.394651 312.836042 757.737114 314.774682 757.332363 C321.442088 755.940337 328.695720 757.681058 334.005259 761.947303 C330.719457 773.012728 319.406000 779.330831 309.088296 784.506263 C305.764081 786.173713 302.360337 787.866223 298.672563 788.346971 C293.980175 788.958685 289.280336 787.556651 284.783675 786.082629 C272.983934 782.214626 260.839890 777.356771 252.910566 767.800562 C250.381793 764.752953 248.304414 761.142269 247.986273 757.194941 z"/><path class="selected"  fill="#000000" opacity="1.000000" stroke="none" 
 	d="
M496.400663 510.436066 C483.954452 518.669141 468.795738 522.724678 453.901166 521.806310 C430.535744 520.365648 408.332742 507.177343 385.071973 509.814586 C378.739182 510.532580 372.547612 512.423071 366.178052 512.643218 C359.808493 512.863366 352.860845 511.026982 349.113683 505.871545 C340.106204 493.478836 356.082711 476.697548 353.399693 461.613936 C351.908923 453.232982 344.937367 447.082351 338.392821 441.638850 C332.593403 436.815118 326.793985 431.991386 320.994568 427.167654 C316.903190 423.764604 322.319632 416.803363 327.635848 417.044120 C332.952065 417.284877 337.424285 421.032876 342.537014 422.509399 C355.134388 426.147441 367.108798 415.674498 379.884760 412.724248 C397.234990 408.717695 414.451753 418.865164 432.101497 421.225142 C486.337895 428.477187 538.797888 448.683734 583.884970 479.689120 C571.437405 487.641889 558.583122 494.958016 545.389147 501.599355 C538.068509 505.284282 529.936254 508.853311 521.936551 507.071409 C518.036481 506.202683 514.375707 504.082767 510.380067 504.073043 C505.176618 504.060380 500.740542 507.565267 496.400662 510.436064 M535.117833 469.405579 C507.742567 459.265755 480.367301 449.125932 452.992035 438.986108 C450.979896 438.240810 448.746436 438.821912 446.682042 439.407105 C437.627376 441.973831 428.572711 444.540556 419.518045 447.107281 C416.307150 448.017473 412.581047 449.436477 411.794148 452.679792 C410.816841 456.707901 415.437345 460.106930 419.581140 460.205729 C423.724935 460.304528 427.677875 458.457771 431.808827 458.117128 C435.831160 457.785441 439.817766 458.891130 443.702381 459.986096 C454.740632 463.097478 465.778883 466.208859 476.817134 469.320241 C498.647261 475.473557 521.751257 481.654238 543.686180 475.885623 C542.478330 472.379639 538.595169 470.693585 535.117836 469.405573 M447.229347 504.062907 C458.147083 506.651896 470.205935 503.875195 478.891969 496.772193 C455.896759 490.126999 431.721441 487.587757 407.847357 489.310056 C407.838872 493.783593 413.180203 495.988625 417.533035 497.020838 C427.431806 499.368194 437.330577 501.715550 447.229347 504.062906 z"/><path class="selected"  fill="#000000" opacity="1.000000" stroke="none" 
 	d="
M659.465614 796.207381 C658.222055 794.024064 656.978497 791.840748 655.734938 789.657431 C655.308435 799.876026 666.061840 806.491053 675.330931 810.813732 C637.459445 826.957452 603.582542 852.378937 577.497165 884.228933 C562.482352 902.561877 535.564327 904.827625 511.892982 903.728115 C502.749118 903.303391 493.007523 902.725342 485.056060 907.260193 C477.104597 911.795043 472.729649 923.708813 479.078232 930.303214 C474.786693 936.548947 466.235446 937.785426 458.687775 938.463033 C442.333560 939.931262 425.979345 941.399492 409.625130 942.867722 C403.091777 943.454266 396.016896 943.918646 390.475041 940.409149 C381.869594 934.959569 381.030602 922.953310 381.125962 912.767902 C375.303080 911.670434 371.078322 917.926959 368.150023 923.078218 C365.221724 928.229477 359.571854 933.872562 354.321577 931.125747 C354.223354 915.151946 353.081397 896.910155 340.576222 886.970710 C331.498531 879.755520 319.049181 879.180272 307.565339 877.572528 C291.994401 875.392588 276.771070 870.748044 262.635140 863.864604 C255.111014 860.200757 247.692068 855.729545 242.692857 849.018052 C237.540016 842.100311 235.419687 833.450006 233.473829 825.046403 C223.068025 780.106718 214.237061 734.375924 215.037166 688.254174 C215.485871 662.388682 218.964130 636.662941 223.424371 611.180961 C224.848442 603.045041 228.120524 593.154513 236.304211 592.037182 C244.128974 590.968859 249.887130 598.841898 256.756753 602.737594 C269.034632 609.700268 284.185128 603.545887 298.229267 602.136174 C316.555132 600.296673 338.706186 605.664364 350.714871 591.699674 C354.375395 595.655211 358.141538 599.787775 359.776853 604.923091 C361.412168 610.058407 360.267155 616.502298 355.712200 619.382942 C351.277419 622.187586 345.509029 620.779291 340.301247 621.421415 C335.093466 622.063539 329.500400 627.700129 332.645671 631.900198 C336.171521 636.608477 329.706743 642.080317 326.545326 647.040654 C321.906709 654.318750 325.964015 665.509040 334.189247 668.123042 C338.187807 669.393796 342.645317 668.859650 346.514987 670.481056 C350.384656 672.102461 353.089294 677.709443 349.874498 680.405437 C327.506424 671.069541 303.171664 667.722966 279.154056 664.460422 C263.663583 662.356201 243.948420 662.353366 237.116138 676.414036 C235.421500 679.901555 234.925246 684.284696 237.040516 687.534345 C239.155786 690.783994 244.427815 691.887873 246.985085 688.973262 C253.061838 682.047369 263.700544 682.185670 272.881509 682.963307 C304.366684 685.630136 335.765560 689.315719 367.012477 694.012351 C373.586991 695.000547 380.331120 696.094456 386.068508 699.453495 C393.386740 703.738063 398.196156 711.171814 402.733069 718.336342 C408.634568 727.655776 414.786578 738.483442 411.785766 749.098274 C410.343775 754.199057 406.891804 758.575747 405.619209 763.721408 C404.346613 768.867068 406.648004 775.697148 411.922511 776.223352 C419.821851 777.011418 426.969334 782.909994 429.241768 790.516351 C431.514201 798.122708 428.773716 806.975360 422.601224 811.967451 C431.080425 812.073873 442.739299 815.751660 441.152144 824.081672 C440.536591 827.312351 437.758594 830.264436 438.618081 833.438940 C439.118885 835.288659 440.754343 836.591212 442.395756 837.580166 C456.059918 845.812834 473.719069 840.676054 488.071066 833.711407 C502.423063 826.746760 517.110651 817.882790 533.005904 819.234474 C546.644428 820.394254 558.479548 809.932956 571.917724 807.331062 C583.268988 805.133235 596.165220 808.408271 605.763281 801.961655 C612.960180 797.127799 617.322026 787.330116 625.930836 786.305473 C629.709779 785.855694 633.489593 787.318819 637.289296 787.106778 C641.088999 786.894738 645.319441 783.631457 644.150909 780.009684 C641.489691 771.761445 649.176017 762.523015 657.836911 762.199823 C666.497805 761.876630 674.334371 768.930811 676.608226 777.294131 C678.582695 784.556295 678.694367 794.640878 686.017768 796.374472 C677.212779 795.297918 668.283455 795.241726 659.465614 796.207381 M385.739030 846.809977 C388.647790 846.490043 391.749410 846.089617 393.968865 844.182455 C396.188320 842.275294 396.838387 838.292336 394.475209 836.566464 C388.155196 836.588012 381.844105 834.569191 376.709941 830.883627 C383.482123 826.734633 390.254304 822.585638 397.026486 818.436644 C398.028675 817.822651 399.059415 817.182403 399.736619 816.221796 C402.022072 812.979897 399.171806 808.745892 396.963619 805.450879 C391.145126 796.768673 389.496383 785.420031 392.603752 775.441064 C387.623390 776.874734 382.310089 777.137792 377.212468 776.203074 C378.158435 767.637388 384.360938 760.712301 387.926384 752.866702 C391.491830 745.021103 391.001495 733.493686 382.973360 730.360817 C352.725302 718.556930 320.741059 711.212993 288.373565 708.639657 C278.604178 707.862953 268.603947 707.539742 259.176153 710.215726 C249.748360 712.891710 240.857779 719.010242 237.012292 728.024476 C234.574200 733.739632 234.314906 740.127050 234.404759 746.339877 C234.675097 765.032145 237.802370 783.680467 243.644620 801.438340 C245.147217 806.005575 247.731171 811.259256 252.514638 811.744925 C255.765855 812.075023 258.709116 809.978821 261.846728 809.065167 C272.517418 805.957921 281.888098 816.438453 292.339451 820.218375 C301.021885 823.358536 311.530392 822.057472 318.639121 827.949096 C325.803189 833.886582 327.249992 845.537327 335.590387 849.662302 C339.859945 851.773931 344.896354 851.302267 349.631004 850.781503 C361.667012 849.457661 373.703021 848.133819 385.739030 846.809977 M250.748681 623.014662 C248.183246 620.915626 245.179349 618.761806 241.888767 619.161151 C236.752041 619.784541 234.494706 625.867721 233.482291 630.942124 C231.230111 642.230449 229.822661 654.179760 233.588823 665.057009 C240.499128 660.954226 246.646604 655.571329 251.625898 649.263257 C256.171418 643.504717 259.801447 635.514648 256.338520 629.046984 C255.035708 626.613740 252.884841 624.762465 250.748681 623.014662 M526.904612 837.363206 C534.530791 842.924547 546.917266 839.721847 550.891938 831.160942 C548.075128 830.298449 545.315465 829.249369 542.637036 828.022857 C537.592716 831.457554 532.335123 834.578990 526.904612 837.363206 M426.520152 934.617668 C428.026063 932.882197 428.922416 930.627947 429.019411 928.332252 C421.022511 926.189143 413.025610 924.046035 405.028709 921.902927 C405.392255 923.715366 405.066263 925.657486 404.130865 927.251893 C411.714319 929.318873 419.190733 931.778512 426.520152 934.617668 M313.747872 625.899650 C309.924479 624.182338 305.704308 622.428469 301.666525 623.552660 C299.423008 624.177291 297.496379 625.648013 295.909310 627.352346 C301.082327 631.370058 309.293076 630.701409 313.747872 625.899650 M545.587311 883.757800 C544.175553 885.409537 545.377219 888.460633 547.536168 888.706057 C547.963655 886.790463 547.216316 884.661383 545.685327 883.433241 z"/><path class="selected"  fill="#000000" opacity="1.000000" stroke="none" 
 	d="
M777.484602 813.152248 C759.360701 866.892921 766.155390 925.660354 776.912855 981.345295 C768.644444 987.375089 758.972437 975.557659 756.118897 965.730027 C734.586871 891.573411 755.917873 812.218013 781.311902 739.293565 C784.985775 728.743245 782.563745 710.957521 771.853124 714.133870 C756.214673 718.771643 738.394615 715.256289 725.688968 705.027098 C713.608712 697.508374 715.272969 678.782073 723.069508 666.879227 C730.866048 654.976381 742.964143 646.105845 749.391985 633.411491 C765.986142 600.639669 740.419124 553.105433 766.790973 527.534277 C760.528730 563.127937 780.672650 601.704546 813.459803 616.907406 C803.584329 621.749938 792.015238 623.047182 781.312510 620.512090 C785.044675 628.471480 778.355838 637.606057 770.780819 642.067003 C763.205800 646.527949 754.128396 648.930086 748.257123 655.472953 C734.000173 671.360704 752.229866 699.039631 773.551853 700.066328 C794.873841 701.093026 813.233622 685.375108 826.681131 668.796634 C852.298854 637.214372 869.294594 598.707262 875.363714 558.496904 C877.820286 542.221129 878.450219 525.189291 872.922926 509.684949 C867.395633 494.180607 854.684216 480.449669 838.495944 477.470503 C826.669850 475.294119 814.630000 478.903443 803.147348 482.473013 C787.608616 487.303482 772.069884 492.133950 756.531152 496.964418 C747.964097 499.627627 739.176475 502.405364 732.168059 508.006188 C703.421940 530.978849 719.756611 585.661182 689.461068 606.548083 C684.631902 584.481806 686.113073 561.071145 693.684825 539.789463 C688.430841 547.078974 683.176857 554.368485 677.922873 561.657996 C676.026734 524.027933 685.031643 483.411852 666.593041 450.554053 C640.340981 403.772577 573.257263 397.897781 537.484440 357.923009 C542.106318 353.098452 549.831875 351.567882 555.944094 354.265822 C552.870125 331.275069 563.366937 306.974090 582.212802 293.451612 C591.428559 286.839028 579.529533 272.485470 568.251139 271.279537 C556.972745 270.073604 543.036200 272.167730 536.625858 262.810168 C526.433327 247.931520 505.928607 245.348760 487.952041 243.897919 C446.285679 240.535139 404.722148 235.898338 363.339077 229.996177 C349.575841 223.829766 336.644375 239.734017 329.852483 253.199585 C310.639320 291.291516 291.426154 329.383447 272.212989 367.475377 C267.660396 376.501326 263.013081 385.875644 262.572265 395.975126 C262.131449 406.074607 267.101906 417.151890 276.619369 420.559490 C288.304160 424.743070 294.589142 438.213565 294.147048 450.616839 C293.704953 463.020113 287.962850 474.560425 281.934552 485.409216 C267.850928 510.754730 251.510726 534.845791 233.170484 557.304175 C240.171797 534.683168 242.031628 510.487167 238.569672 487.061899 C236.544429 473.358134 232.723132 459.864524 232.318740 446.017819 C231.535697 419.205790 243.510836 393.868182 255.213931 369.732408 C273.957068 331.077667 292.700204 292.422925 311.443341 253.768184 C319.477812 237.198367 324.267910 211.594433 306.960005 205.305715 C276.710139 194.314662 262.580753 156.837963 268.925963 125.284909 C275.271172 93.731854 297.213876 67.630601 320.931152 45.874044 C335.270952 32.719722 350.790923 20.435571 368.690445 12.801890 C395.662547 1.298988 425.936034 1.148475 455.256279 1.514821 C502.342951 2.103152 549.418838 3.554559 596.452320 5.868068 C597.163782 12.607756 600.084003 19.096112 604.657010 24.097830 C618.865870 16.065220 633.074731 8.032610 647.283591 -0.000000 C644.997887 24.621538 616.797796 43.175424 593.282161 35.529544 C590.903408 41.314524 595.924107 47.827037 601.781616 50.021129 C607.639126 52.215221 614.121678 51.618487 620.327902 52.397746 C642.162935 55.139370 657.862128 74.028157 671.223768 91.513916 C663.936966 71.913223 652.852147 53.732450 638.765569 38.277581 C687.035751 37.026340 734.135386 52.206543 779.334468 69.195334 C848.707977 95.270467 921.309766 130.577562 955.313842 196.428296 C971.331621 227.447592 977.253617 263.579934 971.975848 298.089513 C967.211929 329.239200 998.468480 365.017314 978.028003 389.000325 C908.045665 471.111285 901.644178 589.591610 850.078748 684.358397 C826.470865 727.744892 793.268981 766.348685 777.484602 813.152248 M498.840390 40.355921 C495.011398 37.231431 489.342381 38.435368 484.696416 40.120192 C471.585134 44.874904 459.424628 52.235306 449.131753 61.646456 C445.444541 65.017807 441.728210 69.380771 442.321140 74.341615 C446.699629 75.487948 451.137672 73.065488 455.017085 70.734093 C465.973099 64.149892 476.929115 57.565693 487.885130 50.981495 C492.339023 48.304854 497.108090 45.254972 498.840390 40.355922 M406.895005 27.357773 C403.087520 24.939650 398.091671 25.139206 393.851021 26.675812 C389.610372 28.212417 385.919946 30.925768 382.167823 33.428935 C372.544043 39.849281 362.128972 45.082264 351.233534 48.971663 C344.908321 51.229606 337.199088 54.497595 336.762477 61.199535 C338.548830 62.312051 340.864025 61.546654 342.813504 60.754014 C361.903774 52.992072 380.835434 44.840034 399.592680 36.304703 C403.418198 34.563933 407.950556 31.426027 406.895008 27.357774 M420.571065 60.021151 C427.197880 56.095756 433.555990 51.716825 439.586178 46.925141 C442.571064 44.553303 445.713777 41.620859 445.872444 37.811661 C430.565032 39.538660 415.992661 47.127484 405.801667 58.679239 C406.442107 61.508803 409.617440 63.173283 412.516450 63.062228 C415.415461 62.951173 418.074976 61.499711 420.571066 60.021153 M510.011934 9.826957 C507.103961 6.706212 502.357823 5.881280 498.165818 6.670243 C493.973814 7.459205 490.185848 9.618523 486.487471 11.743934 C485.511757 12.304664 484.474536 12.932031 484.024786 13.963612 C483.318448 15.583720 484.450890 17.530375 486.019526 18.344650 C487.588161 19.158926 489.441228 19.138563 491.208180 19.099274 C494.989922 19.015180 498.853515 18.916163 502.401207 17.603717 C505.948899 16.291271 509.185805 13.518318 510.011934 9.826958 M537.885172 18.925814 C535.118132 21.484656 532.443338 24.143248 529.867731 26.894691 C527.142714 29.805743 524.402536 34.146841 526.650597 37.440193 C530.565710 39.532144 535.003915 35.437955 536.805639 31.381091 C538.607363 27.324226 539.890585 22.377131 543.928165 20.532596 C545.601694 19.768058 544.513284 16.864874 542.690406 16.615213 C540.867527 16.365551 539.236003 17.676621 537.885172 18.925810 M575.436976 68.029336 C574.797353 67.012977 573.502918 66.548269 572.304949 66.631776 C569.278271 66.842756 567.192387 70.077554 567.146685 73.111230 C567.100983 76.144907 568.538692 78.979207 569.940588 81.669926 C570.796345 83.312421 571.652104 84.954916 572.507862 86.597410 C575.160592 81.639502 576.388981 75.929708 576.009837 70.319531 C575.956208 69.525978 575.860610 68.702491 575.436975 68.029337 M504.989743 64.495571 C505.006398 63.584362 504.841047 62.551050 504.090941 62.033439 C503.251399 61.454117 502.103503 61.795030 501.180706 62.229642 C496.169221 64.589928 492.334759 69.313973 491.055596 74.703747 C497.439981 76.594854 504.868053 71.153036 504.989742 64.495571 M255.051109 450.411841 C257.362585 455.088141 263.564555 457.384667 268.364169 455.341532 C269.559367 454.315328 270.211219 452.689086 270.055710 451.121474 C265.734243 448.079153 259.640414 447.790950 255.051109 450.411842 M734.020763 74.103996 C730.940283 73.340978 727.455046 74.629597 725.611884 77.213065 C729.901309 79.904701 734.990317 81.303915 740.052883 81.183596 C738.332385 78.668699 736.137116 76.479794 733.617234 74.766605 M547.567596 57.599547 C544.334059 56.637842 541.248254 60.089079 540.935538 63.448074 C543.081138 62.430686 545.226743 61.413300 547.372348 60.395913 C548.187088 59.945657 547.858625 58.425383 546.930674 58.351643 M773.160501 90.637489 C773.460304 89.026136 771.601610 87.453925 770.062293 88.016810 C770.886351 90.404146 772.004097 92.689949 773.382319 94.806303 C774.692641 93.984538 774.692191 91.738300 773.381540 90.917060 z"/></svg>