<?xml version="1.0" encoding="utf-8"?><!DOCTYPE svg PUBLIC "-//W3C//DTD SVG 1.1//EN" "http://www.w3.org/Graphics/SVG/1.1/DTD/svg11.dtd"><svg version="1.1" id="Contours" xmlns="http://www.w3.org/2000/svg" xmlns:xlink="http://www.w3.org/1999/xlink" x="0px" y="0px" width="557.606567px" height="557.606567px" viewBox="-0.000000 0.000001 557.606567 737.427124" enable-background="new 0 0 557.606567 557.606567" xml:space="preserve" stroke="black" fill="none" stroke-linecap='round' stroke-linejoin='round'><path class="selected"  fill="#000000" opacity="1.000000" stroke="none" 
 	d="
M406.999017 736.911153 C407.152429 735.277897 407.305840 733.644641 407.459252 732.011385 C409.676589 732.851930 409.542983 736.740767 407.273186 737.427151 z"/><path class="selected"  fill="#000000" opacity="1.000000" stroke="none" 
 	d="
M429.099043 531.694322 C452.821280 519.610131 469.004153 495.839653 477.104078 470.478987 C468.569606 528.897897 413.549881 572.322603 404.901776 630.724800 C404.272432 617.430142 407.544194 603.974160 414.207472 592.452670 C424.788559 574.156901 430.020735 552.809366 429.099047 531.694323 z"/><path class="selected"  fill="#000000" opacity="1.000000" stroke="none" 
 	d="
M123.988750 548.095750 C110.314539 551.772623 95.488229 551.028140 82.251131 545.999953 C76.722691 543.899943 70.654962 543.878995 64.741109 543.884831 C50.497222 543.898889 36.253336 543.912947 22.009449 543.927005 C18.966643 543.930008 15.721433 543.991749 13.196609 545.689967 C10.675789 547.385493 9.394791 550.361545 8.243972 553.173121 C6.112575 558.380355 3.981178 563.587589 1.849781 568.794823 C1.375057 552.993075 0.900332 537.191327 0.425607 521.389580 C3.533023 521.077127 6.489963 519.470042 8.442394 517.032487 C7.639067 521.712363 5.166048 525.958236 4.168296 530.600549 C3.170544 535.242861 4.243568 540.990175 8.513830 543.066576 C10.643636 538.353121 12.773442 533.639667 14.903249 528.926212 C15.788250 526.967625 16.724983 524.939391 18.374380 523.561429 C22.900706 519.779978 31.173045 524.739643 29.970347 530.513767 C26.677098 529.250978 22.843836 528.701168 19.704496 530.308862 C16.565156 531.916556 14.752270 536.288703 16.783695 539.172009 C24.520689 537.591292 32.620001 537.812543 40.259160 539.813295 C39.697368 535.336119 37.874547 531.024023 35.054641 527.501403 C40.276040 522.820069 48.262264 523.592772 55.155628 524.880965 C66.448256 526.991271 77.624573 529.723830 88.616967 533.062113 C98.088594 535.938553 107.833747 539.307810 117.647827 538.015730 C118.739744 541.889218 120.969886 545.434424 123.988750 548.095749 M73.987221 533.697332 C66.877387 533.020340 59.767554 532.343349 52.657720 531.666358 C51.992562 531.603022 51.303468 531.542273 50.671465 531.759109 C48.814329 532.396279 48.846235 535.629934 50.715582 536.230335 C55.727439 536.629429 60.739295 537.028522 65.751151 537.427615 C69.098282 537.694147 73.642872 537.037356 73.987223 533.697334 M87.651380 544.749131 C88.967175 546.222433 91.680187 546.031347 92.776476 544.388153 C91.730590 542.844358 89.067795 542.855737 88.035137 544.408412 z"/><path class="selected"  fill="#000000" opacity="1.000000" stroke="none" 
 	d="
M442.200834 449.006847 C438.008017 448.761823 433.815201 448.516799 429.622384 448.271775 C428.725445 445.538392 427.738026 442.665152 425.563247 440.782011 C423.388468 438.898871 419.625583 438.534089 417.852176 440.799240 C414.992627 433.112802 416.600136 423.938509 421.902712 417.682229 C422.667170 416.780277 421.510434 415.521352 421.347418 414.350310 C421.018591 411.988157 424.863452 411.317854 426.651069 412.896562 C428.438686 414.475270 429.138363 417.013690 430.912637 418.607380 C433.171664 420.636489 436.643872 420.694900 439.089898 422.494189 C441.982836 424.622224 442.717039 428.534151 443.737052 431.977580 C444.757064 435.421008 446.940884 439.218706 450.524540 439.453297 C455.560937 439.782987 458.757622 445.614131 458.122237 450.621154 C457.486851 455.628176 454.194152 459.843996 450.936786 463.699324 C449.612973 465.266153 448.170221 466.891046 446.214410 467.509297 C444.258598 468.127548 441.685280 467.255012 441.225706 465.255956 C444.906805 464.961738 448.575550 462.892035 450.094413 459.526013 C451.613277 456.159990 450.414349 451.600143 447.105410 449.960639 C445.602315 449.215889 443.875459 449.104710 442.200834 449.006846 M436.617709 445.861463 C437.411118 446.157695 438.360497 445.985439 438.999260 445.429353 C439.937424 441.334961 435.655126 437.012719 431.552198 437.912828 C429.972777 441.243762 432.923659 445.751000 436.608271 445.635580 M434.153366 433.835810 C435.228635 433.372917 435.342219 431.769027 434.660641 430.817225 C433.979064 429.865424 432.814963 429.410556 431.716924 429.004620 C430.051498 430.588943 431.887341 434.014000 434.128744 433.504251 z"/><path class="selected"  fill="#000000" opacity="1.000000" stroke="none" 
 	d="
M18.192098 314.545649 C18.741754 313.686098 20.172022 313.609150 20.810726 314.404768 C21.421935 318.840223 25.388456 322.015553 29.358315 324.086075 C33.328174 326.156597 37.739599 327.712798 40.778082 331.001333 C42.471731 329.396158 41.659194 326.635987 41.284233 324.332850 C40.909271 322.029714 42.154472 318.793660 44.420677 319.349851 C41.960158 331.284056 49.746125 343.573667 47.262228 355.503029 C43.883633 371.729349 22.914151 381.208173 22.958979 397.782442 C20.006111 395.095654 23.132421 390.144384 22.216277 386.258648 C21.574569 383.536902 19.010420 381.713732 17.796930 379.194380 C16.597843 376.704933 16.823363 373.793428 16.299423 371.080378 C15.775482 368.367327 13.904260 365.441718 11.141160 365.462596 C11.114103 355.410279 11.087045 345.357961 11.059988 335.305644 C11.055912 333.791186 11.239853 331.957524 12.603870 331.299454 C14.085551 330.584619 14.636327 328.792881 15.034688 327.196737 C16.087157 322.979707 17.139627 318.762678 18.192098 314.545649 M20.705004 343.525268 C18.473274 343.281115 16.058649 343.073964 14.132081 344.226600 C12.205513 345.379236 11.360583 348.483612 13.136817 349.856647 C14.096995 350.598868 15.422378 350.580893 16.634790 350.527137 C24.498022 350.178494 32.357504 349.745284 40.211419 349.227607 C40.239660 346.410798 36.642926 345.268887 33.842682 344.962536 C29.463456 344.483449 25.084230 344.004358 20.705005 343.525268 M27.612027 357.870204 C28.089633 357.143153 28.282056 356.233975 28.139963 355.375767 C24.819245 352.238774 19.096811 352.109348 15.637658 355.092997 C15.617133 356.359127 15.596608 357.625257 15.576083 358.891387 C19.605772 359.280761 23.705540 358.932919 27.612027 357.870204 M21.825133 377.478537 C22.403040 380.212269 27.313430 380.110900 27.778024 377.355647 C27.331358 376.405444 26.884691 375.455240 26.438024 374.505036 C24.953996 375.403081 23.469972 376.301126 21.985947 377.199171 z"/><path class="selected"  fill="#000000" opacity="1.000000" stroke="none" 
 	d="
M102.148543 351.830896 C102.703759 349.530757 103.258974 347.230618 103.814190 344.930479 C91.005313 348.067038 76.455872 340.935053 71.089313 328.889084 C74.676229 331.286923 78.263144 333.684763 81.850060 336.082603 C84.602943 337.922896 87.715928 339.847831 90.983101 339.308731 C94.250273 338.769630 96.681075 334.224612 94.190843 332.042001 C91.589118 332.944079 88.987394 333.846157 86.385670 334.748235 C100.526605 318.477194 126.474542 319.221706 146.472503 327.271202 C152.532241 329.710343 159.390853 334.537534 158.206399 340.961467 C150.462307 341.514767 142.718216 342.068066 134.974126 342.621365 C131.770847 342.850233 127.387253 345.730246 129.631974 348.026896 C130.354131 348.765762 131.484542 348.877084 132.515130 348.950019 C169.821548 351.590175 206.611189 361.354340 240.316935 377.561182 C225.499717 387.178663 206.320428 377.823810 188.814277 375.461492 C175.405651 373.652103 161.600881 376.198587 148.332397 373.550482 C136.852911 371.259424 123.353823 365.651999 114.729186 373.566744 C131.763844 380.974660 149.840039 385.982797 168.258152 388.397321 C170.570681 388.700483 173.035919 388.940267 175.135019 387.923668 C181.852303 384.670464 190.246072 385.175279 196.525042 389.210096 C184.047190 397.044018 167.966501 395.983985 153.645785 392.522158 C139.325069 389.060332 125.321350 383.452980 110.594910 383.006749 C109.567304 380.462982 109.237270 377.641400 109.650093 374.929150 C104.287660 376.086292 98.736842 376.365644 93.285329 375.752725 C97.274530 368.214853 100.263254 360.148283 102.148543 351.830896 M140.081424 356.570139 C146.978123 358.022614 153.874822 359.475088 160.771521 360.927563 C167.615975 362.369034 174.709559 363.812042 181.542514 362.317014 C169.003015 355.302571 154.385660 352.058502 140.056106 353.109822 C141.227967 353.831752 141.242595 355.831136 140.081422 356.570136 M129.649882 356.927079 C128.343959 356.405418 127.854935 358.703202 128.528453 359.937681 C129.352295 360.030487 130.285306 359.702257 130.639011 358.952447 C130.992717 358.202636 130.431635 357.110160 129.604865 357.171601 M124.852212 350.236549 C125.623786 349.641570 126.395359 349.046591 127.166932 348.451613 C125.965559 348.379868 124.764186 348.308123 123.562813 348.236379 C122.776550 348.796374 123.827759 350.302180 124.624446 349.757115 z"/><path class="selected"  fill="#000000" opacity="1.000000" stroke="none" 
 	d="
M164.672688 329.911124 C162.519011 323.349416 153.449768 320.265124 147.742242 324.153375 C147.348267 322.903149 146.366974 321.851930 145.146781 321.372962 C149.050105 317.042320 156.052952 318.529899 161.587497 320.362712 C182.131559 327.166069 202.675622 333.969423 223.219685 340.772777 C224.818411 341.302210 226.796802 342.543209 226.222136 344.126239 C224.846721 347.915085 226.540150 352.572093 230.027989 354.592512 C227.280422 355.991172 224.182480 353.779562 221.640372 352.035125 C215.289478 347.677032 207.355255 345.682650 199.698484 346.519712 C198.864164 345.036406 201.550048 344.222352 203.204545 344.621005 C204.992356 343.718779 204.701414 340.775864 203.057281 339.632577 C201.413148 338.489290 199.165615 338.744841 197.285334 339.433916 C195.405054 340.122991 193.654082 341.195487 191.692409 341.598125 C181.740512 343.640776 174.704222 328.304571 164.672688 329.911124 M212.062662 342.616073 C210.978078 342.568383 209.980010 343.620087 210.084357 344.700693 C211.626022 344.653359 213.167687 344.606026 214.709352 344.558692 C215.389742 343.837447 215.335576 342.553966 214.596837 341.892612 C214.298081 342.724380 212.932006 342.848636 212.488079 342.084420 z"/><path class="selected"  fill="#000000" opacity="1.000000" stroke="none" 
 	d="
M18.980447 584.146565 C21.189998 580.505243 24.445408 577.506712 28.255671 575.603232 C28.152835 571.991436 23.168257 569.642770 20.317507 571.862876 C20.128990 569.962053 21.807100 568.088143 23.717127 568.066592 C25.627154 568.045041 27.347118 569.880609 27.201538 571.785202 C30.569645 569.282578 35.487551 569.093594 39.037781 571.330363 C44.294807 580.393797 55.671388 583.531320 65.952599 585.550938 C62.784175 588.765292 58.989896 592.227762 54.490714 591.869510 C52.676310 591.725038 50.963305 590.949255 49.154800 590.743715 C47.346296 590.538175 45.203248 591.143354 44.530854 592.834750 C43.634692 591.189449 42.738528 589.544145 41.842364 587.898840 C36.844541 587.752903 34.145463 593.579210 32.758460 598.382934 C29.638221 592.461055 24.797080 587.458863 18.980447 584.146565 M33.229931 575.976340 C33.023106 579.344407 34.469067 582.775131 37.024339 584.979045 C38.047121 585.861191 39.248728 586.558434 40.561133 586.877585 C42.627290 582.100745 38.433263 575.864373 33.229931 575.976340 z"/><path class="selected"  fill="#000000" opacity="1.000000" stroke="none" 
 	d="
M70.039672 470.941290 C62.214711 471.399557 54.435231 472.631056 46.851315 474.612028 C43.131760 475.583602 38.629333 477.928131 39.138788 481.738578 C43.024385 481.406673 47.010023 482.378570 50.306674 484.461863 C49.416358 486.246829 46.516374 486.502878 45.327069 484.901528 C43.732179 487.659731 39.321918 487.448179 37.052492 485.211874 C32.951454 481.170686 35.038272 473.662564 39.681475 470.258101 C44.324679 466.853638 50.432835 466.409716 56.181480 466.089106 C63.927149 465.657117 71.672817 465.225131 79.418486 464.793144 C83.359863 464.573328 87.409353 464.327661 90.994824 462.676244 C96.798622 460.003100 100.605906 453.515403 100.109340 447.144909 C99.612773 440.774415 94.846179 434.955033 88.698267 433.213497 C87.270702 430.802093 86.794718 427.844063 87.393757 425.106554 C92.178728 428.064160 97.024064 431.070458 100.876463 435.169532 C104.728862 439.268607 107.536725 444.660116 107.345654 450.282115 C107.151406 455.997571 103.880270 461.258461 99.639298 465.094908 C95.398326 468.931355 90.227561 471.557842 85.124256 474.138628 C84.084432 474.664476 82.646755 475.120769 81.903720 474.223189 C79.183719 470.937444 74.297880 470.691909 70.039672 470.941290 z"/><path class="selected"  fill="#000000" opacity="1.000000" stroke="none" 
 	d="
M467.439639 468.960975 C462.191781 475.448720 455.346365 480.634458 447.680101 483.929794 C446.354807 483.135881 445.370948 481.791757 445.014769 480.288482 C457.146186 475.347492 467.215926 465.542906 472.478804 453.547624 C473.888428 458.980349 470.969414 464.597234 467.439641 468.960976 z"/><path class="selected"  fill="#000000" opacity="1.000000" stroke="none" 
 	d="
M303.883539 629.269009 C306.249452 627.145581 310.183031 630.434759 309.888215 633.600130 C309.593399 636.765502 307.015268 639.148594 304.794619 641.423503 C302.573971 643.698412 300.416302 646.727137 301.236209 649.798659 C298.918260 648.505080 295.937762 648.487361 293.604596 649.753290 C291.548667 644.867326 284.353771 643.143351 280.306771 646.566987 C278.450333 643.769368 281.482188 640.035270 284.732951 639.195285 C287.983714 638.355301 291.512252 639.032704 294.704707 637.992865 C295.809216 637.633108 296.920643 636.995021 297.378071 635.927254 C297.835498 634.859488 297.286670 633.345675 296.137248 633.177763 C299.185707 633.617104 302.425811 631.982159 303.883538 629.269009 z"/><path class="selected"  fill="#000000" opacity="1.000000" stroke="none" 
 	d="
M479.186708 399.220860 C478.345366 395.259049 477.480811 391.233156 475.540355 387.678099 C473.599899 384.123042 470.394117 381.041572 466.424702 380.236868 C464.950003 379.937908 463.394520 379.952146 462.007313 379.369247 C460.620106 378.786348 459.419755 377.308196 459.840482 375.863514 C458.349857 376.320391 456.634639 375.955081 455.459546 374.930454 C454.543267 376.063687 453.522112 377.265205 452.103818 377.600214 C450.685525 377.935223 448.888740 376.835635 449.140996 375.400311 C457.384936 369.097315 470.203801 373.535088 476.242558 381.974503 C482.281315 390.413917 483.279588 401.356574 483.753605 411.723136 C484.302357 423.724116 483.559548 437.630649 473.988451 444.891419 C478.614584 436.531841 480.708181 426.792092 479.925798 417.269932 C482.236679 416.353817 482.131625 413.088235 481.615242 410.656613 C480.805728 406.844695 479.996218 403.032778 479.186708 399.220860 z"/><path class="selected"  fill="#000000" opacity="1.000000" stroke="none" 
 	d="
M346.115843 404.836984 C346.683752 397.990742 347.251661 391.144500 347.819569 384.298257 C347.856010 383.858963 347.900376 383.396774 348.152482 383.035181 C349.534321 381.053230 352.698333 385.261834 354.730994 383.955734 C354.080728 387.554756 353.430462 391.153778 352.780195 394.752799 C352.175662 398.098704 350.670782 401.277560 348.466021 403.865912 C348.406254 404.919935 346.902185 405.541405 346.115844 404.836984 z"/><path class="selected"  fill="#000000" opacity="1.000000" stroke="none" 
 	d="
M55.259386 600.525204 C50.513970 602.106685 45.324823 602.331745 40.460303 601.167060 C39.489044 600.934518 38.425066 600.563588 37.980662 599.669203 C37.331519 598.362762 37.479644 595.849557 36.090730 596.295753 C41.962524 594.634500 48.204096 594.294450 54.221614 595.307956 C55.958124 595.600429 58.130385 596.627908 57.829298 598.362945 C57.627821 599.523972 56.377317 600.152637 55.259386 600.525204 z"/><path class="selected"  fill="#000000" opacity="1.000000" stroke="none" 
 	d="
M404.244427 462.521094 C408.058335 449.968052 400.423662 435.265343 406.692916 423.740535 C408.905778 427.061200 408.045739 431.446857 408.421512 435.419560 C408.797285 439.392264 412.105918 443.974255 415.855625 442.609238 C419.506835 451.302813 427.559286 458.010944 436.769424 460.031573 C437.045045 461.524419 437.320667 463.017264 437.596288 464.510110 C437.176068 462.106573 433.121392 461.632724 432.158287 463.874598 C431.228659 466.038545 428.094834 466.261336 426.009818 465.166084 C423.924801 464.070832 422.427501 462.119196 420.487803 460.783366 C418.548105 459.447535 415.635311 458.887991 414.005989 460.588632 C416.043660 457.385022 416.844682 453.416133 416.209044 449.672982 C416.003525 448.462710 415.415602 447.056044 414.198926 446.892665 C413.500295 446.798849 412.819273 447.173276 412.289576 447.638365 C406.903188 452.367768 413.851716 462.925999 408.734124 467.945029 C404.724341 471.877586 402.245016 477.332219 401.918791 482.939083 C409.112975 483.396788 416.442888 480.091747 420.863023 474.397172 C422.782974 474.838482 421.933957 477.800096 420.559842 479.211753 C414.945982 484.978989 407.091386 488.506327 399.051262 488.870813 C396.115488 485.174961 396.618909 479.769019 398.352916 475.379108 C400.086922 470.989197 402.872320 467.037223 404.244426 462.521093 z"/><path class="selected"  fill="#000000" opacity="1.000000" stroke="none" 
 	d="
M77.023916 479.583615 C77.036732 480.647568 77.049547 481.711520 77.062363 482.775473 C73.703814 482.589249 70.289282 483.788341 67.784595 486.033576 C65.523241 488.060685 63.913686 490.933879 61.144867 492.181493 C58.376049 493.429107 54.052294 491.236776 55.087886 488.381877 C55.069257 489.209007 56.268568 489.404187 57.054107 489.144530 C59.439720 488.355971 61.187583 485.940589 61.190786 483.428028 C62.514941 482.867322 63.983518 482.651772 65.412948 482.808322 C67.625979 478.941780 73.133927 477.412060 77.023916 479.583615 z"/><path class="selected"  fill="#000000" opacity="1.000000" stroke="none" 
 	d="
M7.072915 453.993206 C5.211161 463.683479 12.344503 474.193019 22.037506 476.040509 C22.854115 476.196155 23.679955 476.297527 24.505074 476.398787 C26.442673 476.745088 26.176061 480.016557 24.387320 480.837909 C22.598579 481.659260 20.515839 480.833436 18.761781 479.940411 C13.856203 477.442873 9.084630 474.189561 6.337106 469.419502 C3.589581 464.649442 3.384495 458.079514 7.072915 453.993206 z"/><path class="selected"  fill="#000000" opacity="1.000000" stroke="none" 
 	d="
M63.557912 501.478382 C61.082687 503.162812 59.515765 506.107358 59.501410 509.101324 C56.512545 510.262178 53.095944 510.280878 50.094550 509.152811 C53.009338 504.644582 58.193622 501.689419 63.557912 501.478382 z"/><path class="selected"  fill="#000000" opacity="1.000000" stroke="none" 
 	d="
M395.934885 529.659154 C390.483454 528.534570 385.843345 524.135618 384.429684 518.751906 C390.163082 519.085088 395.296467 523.951680 395.934886 529.659154 z"/><path class="selected"  fill="#000000" opacity="1.000000" stroke="none" 
 	d="
M174.814448 695.366506 C170.659208 695.612579 164.245409 692.644741 163.831812 696.786663 C163.461412 700.496013 159.658962 703.098071 155.945016 703.419123 C152.231069 703.740174 148.606798 702.348729 145.138668 700.981780 C133.906912 696.554824 122.675155 692.127870 111.443399 687.700917 C110.280265 693.492626 109.117132 699.284336 107.953999 705.076045 C107.647716 696.830863 107.308199 688.414738 104.382921 680.699844 C101.457644 672.984950 95.435103 665.955979 87.406218 664.054970 C73.024679 660.649834 58.643140 657.244699 44.261600 653.839563 C38.535587 652.483808 31.898957 650.325239 30.110708 644.719219 C23.402441 642.333851 18.039913 636.471607 16.260094 629.577908 C20.457339 630.186137 23.476508 633.799887 26.032626 637.184125 C28.588745 640.568363 31.491806 644.234126 35.656543 645.035235 C39.821281 645.836344 44.776601 641.500999 42.792152 637.752830 C44.911371 638.962889 47.030589 640.172948 49.149807 641.383007 C45.700667 643.917495 42.251527 646.451983 38.802387 648.986471 C50.914967 650.500819 64.520297 651.622370 74.032517 643.972173 C74.594114 648.065636 75.279011 652.432030 78.068622 655.479962 C80.858234 658.527895 86.533064 659.236483 88.817807 655.793842 C89.110785 658.443344 91.407143 661.194156 94.006583 660.603725 C96.606022 660.013295 96.188243 654.928881 93.597287 655.555494 C92.088878 652.441129 97.916950 651.016729 100.714895 653.052918 C103.512841 655.089107 106.669084 658.401979 109.730679 656.789155 C118.565616 652.134978 127.828591 648.293741 137.364442 645.329787 C140.450569 647.334218 141.451456 651.302822 143.429311 654.406048 C145.407166 657.509275 150.166028 659.756532 152.550579 656.953705 C154.901510 654.190396 152.271120 650.194167 150.803566 646.876180 C149.336011 643.558193 151.844031 637.880397 154.841337 639.924636 C153.317990 641.743281 151.794643 643.561926 150.271296 645.380571 C155.846588 649.528923 162.401216 652.352012 169.245949 653.552986 C165.296540 655.078029 161.347132 656.603073 157.397723 658.128117 C161.094226 662.290344 167.652183 663.585069 172.653158 661.139967 C177.654133 658.694866 180.659867 652.724215 179.645240 647.250751 C176.495676 646.775749 173.346112 646.300747 170.196548 645.825745 C172.808107 641.716745 179.072486 643.982961 183.397673 646.218331 C187.722861 648.453701 194.928278 648.877550 195.610993 644.056967 C196.132535 640.374406 201.418190 639.558018 204.704532 641.299632 C207.990875 643.041246 210.374140 646.237167 213.777445 647.737427 C217.180750 649.237686 222.451614 647.528409 222.170368 643.819748 C226.725734 649.250641 235.434037 647.936218 241.888847 645.006815 C248.343656 642.077413 254.969625 637.906172 261.945862 639.162393 C257.196223 643.364393 250.860794 645.728754 244.519507 645.665850 C247.731480 649.324046 251.156833 654.218683 249.108692 658.635049 C246.347393 664.589189 237.576372 662.862769 231.424675 660.575155 C225.272978 658.287540 215.888442 658.085831 214.732310 664.546475 C212.584135 676.550813 192.927138 674.125928 185.323906 683.660581 C181.914498 687.936064 180.273324 695.043233 174.814449 695.366507 M114.352383 666.610428 C116.022709 668.455540 119.286573 666.655645 120.074492 664.294794 C118.791654 662.773478 117.508816 661.252165 116.225978 659.730851 C114.083352 661.312379 113.218462 664.412695 114.232995 666.874971 C113.023286 666.891868 111.813577 666.908765 110.603869 666.925663 C110.797681 667.779147 110.636285 668.707615 110.165822 669.445628 C110.745524 669.946779 111.619518 670.077736 112.320646 669.768500 C112.850665 668.785660 113.380683 667.802821 113.910702 666.819981 M138.072386 655.686327 C132.968261 655.637191 127.967047 658.763448 125.775235 663.373271 C130.993788 665.532111 137.726940 661.323219 138.072385 655.686328 M204.310254 648.244510 C202.389795 647.238094 199.837751 648.368595 198.811748 650.278661 C197.785745 652.188727 198.039103 654.575243 198.912902 656.559559 C199.369742 657.596998 200.024262 658.602297 201.010594 659.160982 C202.625649 660.075793 204.935709 659.399525 205.802450 657.758172 C202.559786 656.222730 202.688447 651.444853 204.310254 648.244510 M144.614340 693.923674 C147.294332 693.924497 149.974324 693.925320 152.654316 693.926143 C152.724983 692.807931 152.795650 691.689720 152.866318 690.571508 C150.518430 687.750593 145.639471 687.608860 143.131787 690.288722 C143.493026 691.531500 143.854268 692.774279 144.215510 694.017059 M150.034092 665.149046 C149.071832 665.471265 148.109571 665.793484 147.147311 666.115703 C147.648840 667.080494 148.150372 668.045286 148.651904 669.010078 C149.889374 668.439868 151.126843 667.869658 152.364311 667.299448 C151.774695 666.550368 151.185079 665.801288 150.595463 665.052207 M214.511341 658.812066 C215.617615 658.112118 215.051827 656.009597 213.743681 655.959369 C213.249077 657.029635 213.505053 658.399933 214.352677 659.219471 z"/><path class="selected"  fill="#000000" opacity="1.000000" stroke="none" 
 	d="
M301.100243 613.382415 C302.474067 612.919103 303.709628 612.053751 304.614624 610.921041 C306.340023 612.355980 307.592441 614.350446 308.135421 616.527881 C305.212440 617.962362 301.826584 618.433936 298.622867 617.852767 C298.117720 617.188283 297.943174 616.284418 298.164588 615.479628 C299.178924 614.844283 300.193260 614.208939 301.207595 613.573595 z"/><path class="selected"  fill="#000000" opacity="1.000000" stroke="none" 
 	d="
M441.273974 381.896260 C438.381372 385.642550 435.488770 389.388841 432.596168 393.135131 C431.312130 393.758316 430.028091 394.381499 428.744053 395.004682 C430.625223 389.033148 435.393369 384.044860 441.273974 381.896260 z"/><path class="selected"  fill="#000000" opacity="1.000000" stroke="none" 
 	d="
M466.463479 396.939111 C465.792478 393.834230 465.121476 390.729349 464.450475 387.624468 C469.263425 392.293813 471.653378 399.337087 470.675978 405.971237 C469.294327 402.968798 467.912677 399.966358 466.531027 396.963918 z"/><path class="selected"  fill="#000000" opacity="1.000000" stroke="none" 
 	d="
M402.473750 650.846028 C402.283878 664.760880 402.094006 678.675732 401.904133 692.590583 C401.828700 698.118725 401.816175 703.919597 404.423534 708.794812 C405.309223 710.450866 406.512282 712.366006 405.673189 714.046150 C401.114647 708.361924 400.773094 700.488962 400.634126 693.203950 C400.494429 685.880758 400.354732 678.557567 400.215036 671.234375 C400.083745 664.351814 399.986702 657.264866 402.473750 650.846028 z"/><path class="selected"  fill="#000000" opacity="1.000000" stroke="none" 
 	d="
M72.176303 555.266139 C69.181374 557.053786 65.633947 557.900621 62.154483 557.658528 C59.031019 557.441205 56.033832 556.380091 53.110005 555.260050 C59.448560 554.691901 65.838112 554.693941 72.176303 555.266138 z"/><path class="selected"  fill="#000000" opacity="1.000000" stroke="none" 
 	d="
M264.595044 653.906821 C262.945166 655.930855 260.897618 657.629457 258.603684 658.877125 C257.774598 657.034261 256.945514 655.191397 256.116429 653.348533 C258.869915 652.551319 261.932068 652.881502 264.452315 654.247367 z"/><path class="selected"  fill="#000000" opacity="1.000000" stroke="none" 
 	d="
M234.113656 348.422952 C232.801474 346.976150 231.489292 345.529348 230.177110 344.082546 C234.699642 344.895610 238.941840 347.197414 242.088738 350.545756 C239.399207 351.568322 236.077887 350.551187 234.422185 348.197916 z"/><path class="selected"  fill="#000000" opacity="1.000000" stroke="none" 
 	d="
M356.521556 446.038294 C355.082795 444.195767 354.577247 441.660355 355.199294 439.406914 C356.148392 439.065689 357.097490 438.724464 358.046588 438.383239 C358.473183 435.581920 359.902420 432.943918 362.016063 431.056619 C360.184562 436.050512 358.353059 441.044403 356.521556 446.038294 z"/><path class="selected"  fill="#000000" opacity="1.000000" stroke="none" 
 	d="
M5.418863 482.484700 C5.704700 485.576529 4.606718 488.770491 2.480218 491.033036 C2.358760 485.863375 2.964299 480.677157 4.273465 475.674534 C4.766802 477.935875 5.260135 480.197215 5.753468 482.458556 z"/><path class="selected"  fill="#000000" opacity="1.000000" stroke="none" 
 	d="
M291.242317 603.474643 C293.365670 599.818216 298.236777 598.032079 302.220487 599.449169 C298.402824 600.387132 294.950014 602.740236 292.680893 605.950442 C292.201369 605.125176 291.721844 604.299910 291.242320 603.474644 z"/><path class="selected"  fill="#000000" opacity="1.000000" stroke="none" 
 	d="
M283.841547 650.802192 C286.095109 649.885707 288.348670 648.969221 290.602232 648.052736 C291.613913 649.823623 290.860798 652.368541 289.048328 653.303679 C287.235857 654.238816 284.725419 653.377717 283.868530 651.526968 z"/><path class="selected"  fill="#000000" opacity="1.000000" stroke="none" 
 	d="
M220.131000 357.499157 C214.792578 358.521768 209.181524 358.082253 204.067438 356.240896 C209.436486 355.626215 214.923144 356.055986 220.131000 357.499155 z"/><path class="selected"  fill="#000000" opacity="1.000000" stroke="none" 
 	d="
M40.147181 507.432927 C40.221507 510.324413 38.059159 513.118738 35.241529 513.772324 C36.006582 510.537266 37.490713 507.474335 39.555556 504.869083 C40.086780 505.586242 40.283094 506.541269 40.077827 507.409820 z"/><path class="selected"  fill="#000000" opacity="1.000000" stroke="none" 
 	d="
M153.582433 632.933519 C152.676983 631.647880 153.232035 629.596231 154.662172 628.942461 C155.522259 630.934247 156.678623 632.797797 158.081437 634.452812 C156.917989 634.945747 155.754542 635.438680 154.591095 635.931614 C154.251427 634.933747 153.911758 633.935879 153.572089 632.938011 z"/><path class="selected"  fill="#000000" opacity="1.000000" stroke="none" 
 	d="
M123.135266 560.293613 C124.260446 560.485478 125.425686 560.439004 126.532012 560.158140 C127.817198 562.175719 128.601032 564.510037 128.793958 566.894381 C126.504974 565.122911 124.514096 562.967211 122.929899 560.544841 z"/><path class="selected"  fill="#000000" opacity="1.000000" stroke="none" 
 	d="
M119.481629 633.827886 C121.745813 631.962051 124.505882 635.422366 127.220544 636.535236 C129.980646 637.666738 133.296415 636.179165 136.053930 637.316955 C130.445779 639.227714 123.843296 637.837652 119.481629 633.827886 z"/><path class="selected"  fill="#000000" opacity="1.000000" stroke="none" 
 	d="
M67.694042 201.972285 C66.322115 204.219193 64.950188 206.466102 63.578261 208.713010 C61.614613 208.484880 62.102245 205.361647 63.545587 204.010824 C64.988928 202.660001 67.037139 201.125555 66.439534 199.241192 C67.659729 199.191232 68.859190 198.726182 69.794152 197.940550 C70.092526 199.511371 69.066025 201.223896 67.540012 201.701164 z"/><path class="selected"  fill="#000000" opacity="1.000000" stroke="none" 
 	d="
M142.724370 595.748893 C141.507874 594.838150 141.052870 593.042570 141.688846 591.662407 C143.749911 592.921567 145.584744 594.549817 147.080002 596.446570 C145.695461 597.317350 143.729305 597.118506 142.547146 595.988146 z"/><path class="selected"  fill="#000000" opacity="1.000000" stroke="none" 
 	d="
M256.131749 650.612572 C254.592578 650.757902 253.053407 650.903231 251.514236 651.048560 C250.594759 648.950350 252.422906 646.196116 254.713510 646.228625 C255.043727 647.659914 255.373943 649.091204 255.704160 650.522495 z"/><path class="selected"  fill="#000000" opacity="1.000000" stroke="none" 
 	d="
M407.937913 720.490894 C408.856526 723.095207 408.216872 726.184883 406.339748 728.210396 C406.444741 724.416495 406.882996 720.631878 407.647812 716.914385 C408.194173 717.979728 408.340367 719.244493 408.051454 720.406385 z"/><path class="selected"  fill="#000000" opacity="1.000000" stroke="none" 
 	d="
M343.897152 415.262627 C343.011288 413.139332 342.882641 410.709049 343.539389 408.504096 C344.291595 407.972828 345.043803 407.441562 345.796011 406.910297 C345.407314 409.582352 345.018616 412.254407 344.629918 414.926462 z"/><path class="selected"  fill="#000000" opacity="1.000000" stroke="none" 
 	d="
M35.427874 632.793788 C36.193657 631.829587 36.074874 630.280601 35.171032 629.444434 C35.978700 628.960452 36.786369 628.476472 37.594038 627.992492 C39.125735 630.460710 38.700284 633.968961 36.623012 635.999515 C36.271649 634.979869 35.920286 633.960223 35.568924 632.940576 z"/><path class="selected"  fill="#000000" opacity="1.000000" stroke="none" 
 	d="
M130.516495 543.755720 C131.202814 545.551588 131.399392 547.531904 131.079525 549.427652 C130.337404 549.914183 129.398762 550.090828 128.530549 549.907352 C128.526943 547.834497 129.142390 545.764449 130.277873 544.030257 z"/><path class="selected"  fill="#000000" opacity="1.000000" stroke="none" 
 	d="
M7.002408 598.413049 C7.153260 596.921001 7.304113 595.428953 7.454966 593.936906 C8.933221 597.027957 9.364679 600.608396 8.663047 603.962134 C8.189897 602.106908 7.716748 600.251682 7.243600 598.396455 z"/><path class="selected"  fill="#000000" opacity="1.000000" stroke="none" 
 	d="
M176.881601 708.538599 C174.977813 709.246043 172.682792 708.746137 171.245711 707.310976 C172.376231 705.434514 175.792745 705.890487 176.391592 707.997750 z"/><path class="selected"  fill="#000000" opacity="1.000000" stroke="none" 
 	d="
M207.107151 189.465629 C205.426698 189.106844 203.930030 187.966923 203.137570 186.442240 C203.964617 185.958794 204.791665 185.475350 205.618713 184.991905 C206.109191 186.472965 206.599667 187.954023 207.090144 189.435082 z"/><path class="selected"  fill="#000000" opacity="1.000000" stroke="none" 
 	d="
M213.208726 638.359730 C212.686632 637.242945 213.727396 635.591090 214.895151 635.986233 C214.752387 637.587904 215.146227 639.232761 215.998921 640.596084 C215.171131 640.742407 214.343340 640.888729 213.515549 641.035051 C213.333251 640.175940 213.150952 639.316830 212.968654 638.457719 z"/><path class="selected"  fill="#000000" opacity="1.000000" stroke="none" 
 	d="
M1.081132 497.428679 C1.372197 499.942827 1.207479 502.509044 0.597373 504.965349 C-0.179752 501.327178 -0.198923 497.528896 0.541440 493.883067 C1.196740 494.911535 1.383445 496.226278 1.040381 497.396521 z"/><path class="selected"  fill="#000000" opacity="1.000000" stroke="none" 
 	d="
M302.164540 600.053008 C304.292865 599.545174 306.565646 601.750792 306.121862 603.893388 C304.269057 603.322794 302.755088 601.758958 302.244815 599.888639 z"/><path class="selected"  fill="#000000" opacity="1.000000" stroke="none" 
 	d="
M295.382035 627.244012 C294.617224 626.648785 293.852413 626.053558 293.087602 625.458331 C294.250485 624.950180 295.413367 624.442032 296.576249 623.933883 C296.964731 625.049841 296.690849 626.369619 295.890401 627.238848 z"/><path class="selected"  fill="#000000" opacity="1.000000" stroke="none" 
 	d="
M29.126465 296.434059 C28.288149 297.935624 27.449833 299.437188 26.611518 300.938753 C25.522821 298.930789 26.834441 296.050071 29.063782 295.552843 z"/><path class="selected"  fill="#000000" opacity="1.000000" stroke="none" 
 	d="
M74.832027 512.349250 C73.261983 512.710895 71.691938 513.072541 70.121894 513.434186 C71.339833 512.330311 72.557772 511.226437 73.775712 510.122562 C74.127900 509.346524 74.781976 510.952477 74.062399 511.409073 z"/><path class="selected"  fill="#000000" opacity="1.000000" stroke="none" 
 	d="
M33.758522 282.333296 C33.362953 283.871186 32.967384 285.409077 32.571815 286.946967 C32.030993 285.171325 31.888542 283.275563 32.157939 281.439039 C32.739542 280.591676 34.392411 281.437109 34.045714 282.404625 z"/><path class="selected"  fill="#000000" opacity="1.000000" stroke="none" 
 	d="
M193.543046 691.335246 C192.074569 691.236088 190.606092 691.136929 189.137614 691.037771 C190.720152 690.523092 192.302691 690.008418 193.885229 689.493744 z"/><path class="selected"  fill="#000000" opacity="1.000000" stroke="none" 
 	d="
M259.637008 234.956558 C260.498322 234.719434 261.359636 234.482310 262.220950 234.245186 C261.662582 236.308418 258.996892 237.480029 257.099307 236.496230 C257.954521 236.005337 258.809735 235.514445 259.664950 235.023552 z"/><path class="selected"  fill="#000000" opacity="1.000000" stroke="none" 
 	d="
M59.766830 215.031654 C60.360746 213.983522 61.305630 212.836763 62.495215 213.027038 C63.288750 213.153965 63.904899 213.971626 63.808179 214.769405 C61.484214 214.034265 59.706225 216.946560 59.324069 219.353882 C58.941913 221.761203 58.602835 224.748619 56.326643 225.620506 C56.746956 221.907789 57.924779 218.282467 59.766831 215.031655 z"/><path class="selected"  fill="#000000" opacity="1.000000" stroke="none" 
 	d="
M131.602640 569.980018 C131.127360 569.161073 132.646114 568.728194 133.556560 568.988292 C134.074904 569.834331 134.593247 570.680367 135.111590 571.526402 C133.823829 572.043064 132.175149 571.205794 131.832614 569.861199 z"/><path class="selected"  fill="#000000" opacity="1.000000" stroke="none" 
 	d="
M105.052168 388.429711 C105.944881 387.862111 107.183881 388.744844 107.372991 389.785682 C107.562102 390.826519 107.066044 391.856303 106.584365 392.798158 C105.657326 391.744130 105.227486 390.270424 105.442503 388.883286 z"/><path class="selected"  fill="#000000" opacity="1.000000" stroke="none" 
 	d="
M129.760241 544.150643 C128.841247 542.850925 127.922254 541.551207 127.003260 540.251489 C128.858531 539.518911 130.946900 542.083713 129.853545 543.752029 z"/><path class="selected"  fill="#000000" opacity="1.000000" stroke="none" 
 	d="
M27.333124 489.383337 C28.321351 489.245546 28.529399 490.929314 27.751758 491.554496 C26.974117 492.179678 25.873366 492.162087 24.943742 492.524548 C21.862263 493.726025 21.963510 498.042299 22.429110 501.316788 C22.894709 504.591277 22.319197 509.065718 19.044720 509.531401 C19.216849 504.424242 19.388979 499.317083 19.561109 494.209924 C19.604701 492.916503 19.660399 491.574419 20.252206 490.423506 C21.526322 487.945682 25.400239 487.376613 27.333124 489.383336 z"/><path class="selected"  fill="#000000" opacity="1.000000" stroke="none" 
 	d="
M140.126014 190.041340 C138.660939 190.129460 138.154082 187.531872 139.544813 187.062749 C141.002258 187.506878 141.525026 189.693370 140.426089 190.748706 z"/><path class="selected"  fill="#000000" opacity="1.000000" stroke="none" 
 	d="
M48.416791 240.973456 C47.896147 239.227806 48.446556 237.208357 49.780965 235.968309 C50.336624 237.641518 49.804633 239.622295 48.485441 240.791965 z"/><path class="selected"  fill="#000000" opacity="1.000000" stroke="none" 
 	d="
M221.618557 666.009773 C222.717669 665.628035 224.381072 666.321348 224.053579 667.437824 C223.015262 668.263077 221.176615 667.186303 221.388371 665.876991 z"/><path class="selected"  fill="#000000" opacity="1.000000" stroke="none" 
 	d="
M99.809243 719.989366 C99.429983 720.963705 99.050723 721.938043 98.671462 722.912382 C98.158351 722.048546 97.645240 721.184710 97.132129 720.320874 C97.952997 720.136750 98.773861 719.952628 99.594725 719.768507 z"/><path class="selected"  fill="#000000" opacity="1.000000" stroke="none" 
 	d="
M412.502718 533.881461 C412.236670 534.852648 410.776969 535.211908 410.090560 534.475139 C410.055714 533.587280 410.419183 532.559682 411.268119 532.297367 C412.117055 532.035052 413.090106 533.233898 412.427943 533.826385 z"/><path class="selected"  fill="#000000" opacity="1.000000" stroke="none" 
 	d="
M169.207540 628.465682 C169.575393 627.290650 171.604531 627.258498 172.009426 628.421286 C171.610219 629.587983 169.573945 629.558649 169.208511 628.380941 z"/><path class="selected"  fill="#000000" opacity="1.000000" stroke="none" 
 	d="
M11.524660 505.848541 C12.462311 505.744939 12.796563 507.268981 12.107683 507.913471 C11.418803 508.557960 10.356231 508.521517 9.415971 508.445138 C9.304801 507.243690 10.511591 506.107595 11.704148 506.290998 z"/><path class="selected"  fill="#000000" opacity="1.000000" stroke="none" 
 	d="
M92.695395 380.489251 C92.173659 381.071392 91.439999 381.610401 90.675575 381.446839 C89.911152 381.283277 89.560315 380.020448 90.288623 379.736436 C90.946906 379.345472 91.729386 378.941863 92.441335 379.223488 C93.153284 379.505112 93.207522 380.843985 92.442176 380.864714 z"/><path class="selected"  fill="#000000" opacity="1.000000" stroke="none" 
 	d="
M252.111808 282.418706 C248.199980 269.728253 249.412335 255.536796 255.420021 243.693752 C257.606574 246.085541 261.827071 245.259323 264.021498 242.874755 C266.215924 240.490188 266.918967 237.132529 267.535865 233.951160 C269.606860 223.270924 271.677857 212.590689 273.748853 201.910454 C269.137174 200.794432 263.983899 202.289264 260.685275 205.699860 C258.346765 203.086291 256.008256 200.472722 253.669747 197.859153 C247.239622 200.102045 240.395472 201.151775 233.588722 200.939104 C236.428196 197.950976 240.270044 195.932369 244.341642 195.289241 C237.600663 186.118674 223.665428 183.206896 213.816382 188.910964 C212.418733 185.373282 211.021084 181.835600 209.623435 178.297918 C192.725994 181.401033 175.125981 180.612440 158.573773 176.010567 C145.197432 173.793432 130.979564 171.663078 118.472813 176.899810 C113.943950 178.796101 106.972649 180.587898 105.615225 175.869432 C110.016172 176.813924 114.815120 175.697228 118.346961 172.906799 C105.031559 168.692259 90.265060 169.229126 77.290866 174.399478 C78.453198 179.773975 76.935624 185.660578 73.319755 189.803248 C76.778666 176.420874 71.578275 161.210772 60.650208 152.747360 C54.711843 148.148300 47.389586 145.477847 41.821197 140.437155 C32.509344 132.007751 29.718101 118.081969 32.010562 105.732473 C34.303024 93.382976 40.949729 82.301373 48.138919 72.001810 C62.861285 50.909872 81.167779 31.223016 104.864558 21.218987 C118.407661 15.501518 133.104398 13.198321 147.630791 10.942437 C165.892273 8.106510 184.153755 5.270583 202.415237 2.434657 C213.734911 0.676762 225.290683 -1.081369 236.585955 0.827040 C261.584351 5.050680 280.056230 25.935475 302.773647 37.190604 C336.443405 53.871967 378.339506 48.826616 410.567607 68.146812 C407.904647 67.212594 405.304489 71.332304 407.293568 73.334224 C409.282648 75.336144 413.419004 72.762548 412.501940 70.093632 C441.986420 78.700837 470.245038 91.495753 496.165359 107.974694 C526.900987 127.514984 545.845256 164.263254 543.932672 200.634173 C548.125942 200.183332 551.736067 196.486856 552.087680 192.284102 C553.712173 212.672590 555.336666 233.061078 556.961159 253.449566 C557.708538 262.829679 558.418622 272.526935 555.339998 281.418906 C550.114506 296.511657 534.853025 306.774124 530.806463 322.224762 C521.495203 357.777150 509.030984 392.503151 493.607962 425.861842 C493.927103 412.217443 494.195398 398.229198 489.720672 385.335467 C485.245946 372.441737 474.954494 360.665511 461.490551 358.430857 C451.405107 356.756942 441.330117 360.522605 431.516745 363.388944 C418.809783 367.100457 405.684352 369.377267 392.469739 370.162254 C378.490108 385.319644 367.674329 403.381828 360.912967 422.861575 C362.302842 402.190878 362.451628 378.325447 346.856516 364.687194 C345.572950 366.768917 343.261058 368.180733 340.822900 368.371776 C343.416699 357.476297 335.897828 347.099084 329.932604 337.619878 C323.967380 328.140672 319.535696 314.851753 327.057032 306.553033 C322.426589 305.127236 319.227944 300.059397 319.933040 295.265992 C315.558350 303.382089 314.000976 312.982909 315.585789 322.065712 C297.838851 312.730394 280.091913 303.395075 262.344976 294.059756 C269.025888 291.835885 272.713105 283.248198 269.724468 276.872601 C267.971021 280.596615 266.217574 284.320628 264.464127 288.044641 C261.454023 284.315588 258.443920 280.586535 255.433816 276.857482 C253.264072 281.857351 252.350230 287.396501 252.798962 292.828362 C243.431442 288.487600 237.137443 278.237960 237.503528 267.920080 C241.665792 273.401978 246.598706 278.297864 252.111808 282.418706 M350.598680 58.014987 C352.058998 59.719989 353.881726 61.310213 356.103423 61.632121 C358.325119 61.954029 360.905176 60.492513 361.054712 58.252603 C361.196597 56.127343 359.119263 54.380235 357.008373 54.095615 C354.897482 53.810994 352.803993 54.589128 350.815931 55.353639 C350.053969 55.909112 349.751633 57.014385 350.124774 57.880353 C348.010901 58.757162 345.676031 57.181229 344.226637 55.410212 C342.777243 53.639196 341.563722 51.482125 339.459882 50.581515 C337.356041 49.680904 334.179920 51.272915 334.776604 53.482261 C336.646633 56.439763 338.687500 59.551055 341.866003 61.014251 C345.044505 62.477448 349.646538 61.382070 350.598680 58.014987 M209.068646 51.113688 C206.674325 42.690922 210.451080 32.902365 217.882274 28.270614 C217.252521 30.312263 216.875327 32.712993 218.137771 34.436698 C219.400214 36.160402 222.845709 35.923196 223.057773 33.797179 C223.778174 26.574878 233.508278 22.319150 233.168918 15.068947 C239.640271 17.362080 247.385568 15.484875 252.088938 10.483357 C251.079663 7.775177 248.267758 5.846839 245.377826 5.881034 C242.487894 5.915230 239.722405 7.909564 238.777494 10.640867 C237.876952 11.570746 236.244982 10.790712 235.531395 9.710691 C234.817809 8.630671 234.472935 7.261094 233.451947 6.465334 C231.963047 5.304877 229.672096 5.955710 228.347409 7.300585 C227.022722 8.645461 226.373873 10.491421 225.566404 12.197727 C219.730158 24.530608 204.210770 31.948610 202.935330 45.532973 C201.704125 45.642571 200.509334 46.131719 199.554748 46.916986 C198.994315 45.893240 197.947089 45.150338 196.795658 44.959689 C192.645532 51.255689 188.495406 57.551689 184.345280 63.847689 C182.757159 66.256968 181.128199 69.338249 182.547085 71.850918 C189.190356 70.774240 192.702235 63.683521 197.253483 58.725858 C200.456608 55.236702 204.567518 52.588161 209.068646 51.113688 M200.778537 33.742349 C204.071094 30.052817 207.503642 26.079393 208.294107 21.197924 C206.255879 20.584384 204.108098 21.527046 202.189016 22.447876 C198.098449 24.410653 194.007882 26.373427 189.917315 28.336201 C184.851042 30.767148 179.779824 33.200675 174.897268 35.982268 C171.431917 37.956478 168.065675 40.103931 164.806385 42.402450 C159.819662 45.919190 155.082891 49.790288 150.643611 53.976893 C149.262054 55.279814 147.855000 56.702240 147.345445 58.531627 C146.835890 60.361014 147.593590 62.683240 149.406855 63.247484 C152.225110 64.124457 154.211519 60.660828 155.848050 58.204529 C162.534870 48.168149 179.450214 48.529871 184.856070 37.749369 C185.240530 41.280025 183.695614 44.961395 180.906692 47.160316 C182.112009 47.718472 183.317326 48.276627 184.522643 48.834783 C186.929634 46.347884 188.290187 42.878623 188.215476 39.418466 C192.708154 41.475788 197.488462 37.429100 200.778537 33.742349 M273.403626 25.169510 C271.786598 24.586935 270.055972 23.996329 268.383343 24.391912 C265.073367 25.174734 264.047474 30.377601 266.812545 32.358291 C273.709024 33.661478 280.201169 37.032188 285.234888 41.923139 C286.599159 43.248716 287.944088 44.924387 287.765301 46.818173 C287.586513 48.711959 284.909773 50.153985 283.710092 48.677789 C282.049897 46.634936 278.499807 49.242377 278.715591 51.865911 C278.931375 54.489445 281.057682 56.470994 282.640810 58.574135 C283.843272 60.171568 284.910663 62.067150 286.768858 62.805265 C288.627054 63.543379 291.349304 61.973659 290.682020 60.088868 C294.183684 59.488798 297.099503 57.039172 299.348854 54.289234 C300.879201 52.418313 302.248788 49.978973 301.476710 47.688514 C300.704632 45.398055 296.699581 44.751581 296.092772 47.091258 C293.230570 43.520178 293.935996 38.134635 291.464683 34.282698 C289.378929 31.031716 285.485887 29.522447 281.851985 28.213243 C279.035866 27.198665 276.219746 26.184087 273.403626 25.169510 M112.626312 22.060450 C109.316379 25.095035 106.093182 29.424429 101.622455 29.003762 C101.121025 29.855396 100.619595 30.707030 100.118165 31.558664 C101.189092 32.320500 102.260018 33.082336 103.330944 33.844171 C101.305482 35.347642 102.091745 39.181428 104.545495 39.766266 C106.626908 40.262362 108.583130 38.742977 110.311075 37.480994 C122.931562 28.263774 141.284801 28.512672 152.242240 17.369589 C139.400520 14.003358 127.376034 27.088734 114.120098 26.366617 C118.542580 23.916765 122.965063 21.466913 127.387545 19.017062 C126.800115 18.046861 126.212684 17.076661 125.625254 16.106461 C120.814031 16.671994 116.197084 18.786723 112.626312 22.060450 M258.479063 65.352909 C259.615679 66.944011 262.134093 67.308376 263.675063 66.104668 C264.699036 66.499218 265.306520 67.744486 264.987182 68.794349 C263.652575 68.215667 262.122844 70.156937 262.997570 71.319222 C264.348137 76.131787 267.358349 80.461752 271.399049 83.404124 C273.171691 79.160131 271.559595 74.337515 269.947132 70.030115 C267.993014 64.810048 266.038896 59.589980 264.084779 54.369913 C263.084161 51.696946 262.012318 48.916482 259.896811 47.000596 C257.781304 45.084710 254.285783 44.366449 252.092034 46.192224 C250.874269 47.205727 250.283892 48.770785 249.790840 50.276453 C247.505462 57.255477 246.230624 64.564538 246.018387 71.905157 C252.143906 70.169491 256.423823 63.480127 255.432580 57.191091 C256.202067 57.079204 256.971555 56.967317 257.741042 56.855431 C258.111227 59.675305 258.357550 62.511437 258.479063 65.352909 M255.982754 35.877659 C251.514115 35.123737 247.007964 34.592201 242.486552 34.285677 C242.191962 36.319497 241.897372 38.353317 241.602781 40.387136 C237.318320 39.613710 232.755544 40.502651 229.074781 42.827900 C226.267809 44.601149 224.015815 47.135363 222.092104 49.841437 C215.813723 58.673205 212.744834 69.736095 213.576168 80.540126 C215.310190 81.853075 217.719613 79.576306 217.895344 77.408407 C218.071076 75.240508 217.166904 73.037718 217.650259 70.917096 C218.304521 68.046640 221.187750 66.355896 223.042510 64.069535 C225.166688 61.451063 225.931321 58.024798 227.221724 54.909771 C228.512127 51.794745 230.770858 48.645114 234.099668 48.108875 C236.223280 47.766781 238.769978 48.447555 240.282035 46.917706 C240.867899 46.324946 241.154507 45.506439 241.606681 44.806340 C244.827070 39.820224 255.172649 41.757794 255.982754 35.877659 M301.624437 42.939861 C307.468301 46.726402 312.944557 51.079983 317.951264 55.919561 C320.565639 58.446666 323.254546 61.956784 322.002114 65.370379 C323.760808 65.611302 325.959976 65.410471 326.704732 63.799141 C328.670344 66.306478 326.077569 70.850181 328.572116 72.831999 C331.062362 74.810403 334.273790 71.180851 334.857756 68.054447 C335.441722 64.928044 336.044737 60.848514 339.167214 60.243908 C332.899038 59.198330 327.136957 55.415999 323.684552 50.080816 C322.673579 48.518505 321.788684 46.765010 320.214576 45.772505 C317.128356 43.826590 312.506397 45.491130 309.801679 43.042488 C306.744657 40.274896 301.921208 39.671464 298.276600 41.600656 C297.416775 42.470701 297.111693 43.846138 297.523017 44.998132 C298.890157 44.312042 300.257297 43.625952 301.624437 42.939861 M513.043302 150.112237 C514.595572 150.138929 515.994931 151.019503 517.506467 151.373784 C522.074908 152.444565 526.676483 147.967995 526.715514 143.275906 C526.754546 138.583816 523.201745 134.406984 518.902123 132.528029 C519.885631 134.607655 520.887274 136.757698 520.987092 139.055995 C521.086910 141.354293 520.054021 143.862606 517.952696 144.798858 C515.181163 146.033724 512.012327 144.108840 509.974895 141.860472 C503.989585 135.255503 501.369468 124.717967 492.894086 121.957994 C494.418827 131.305403 499.598518 140.007241 507.088236 145.804051 C510.267418 148.264640 511.516425 152.929816 509.991943 156.649715 C512.802529 157.733997 516.596872 155.366677 516.129446 152.390677 C514.870018 152.039740 513.749520 151.212498 513.043302 150.112237 M212.068562 5.035791 C205.782450 9.202057 197.034029 2.585082 189.970641 5.227342 C183.960093 7.475758 182.243601 15.001697 181.404490 21.363925 C181.204512 22.880183 181.474896 25.011605 183.002043 25.094388 C185.099485 20.533442 189.561523 17.431932 194.279453 15.716527 C198.997383 14.001122 204.045978 13.470899 209.003544 12.680951 C211.490394 12.284691 214.293583 11.593288 215.485638 9.375079 C216.677692 7.156870 214.167618 3.644597 212.068565 5.035791 M138.969188 34.428628 C137.858254 33.819747 136.747321 33.210866 135.636388 32.601986 C134.043728 37.305476 131.524507 41.693227 128.265475 45.439972 C126.080418 47.952021 123.555780 50.194030 121.735559 52.981800 C119.915338 55.769570 118.865251 59.332742 120.025977 62.453252 C121.094539 62.448906 122.163097 62.444559 123.231656 62.440213 C124.323664 55.445053 133.857794 53.438332 137.512347 47.374590 C139.795788 43.585845 139.419453 38.829305 138.969189 34.428628 M168.053777 22.570582 C166.299743 21.073682 163.548665 21.590800 161.610495 22.840135 C159.672325 24.089471 158.177543 25.934360 156.252033 27.203122 C153.498880 29.017239 150.113216 29.508751 146.992671 30.573209 C144.127692 31.550490 140.988007 33.931083 141.655979 36.883539 C142.496575 40.599005 147.924332 40.455449 151.378823 38.849903 C158.559329 35.512618 164.545068 29.668897 168.053777 22.570582 M86.730396 47.174255 C89.762271 46.245256 92.910310 45.250293 95.214180 43.071420 C97.518050 40.892548 98.679833 37.154006 96.975852 34.479730 C87.220148 37.216981 78.138688 42.325082 70.733160 49.240606 C72.633678 51.169744 75.832052 50.513622 78.421282 49.720257 C81.190986 48.871588 83.960691 48.022921 86.730396 47.174254 M230.037526 80.133372 C233.359894 73.938219 235.656297 67.194388 236.805095 60.259093 C237.377783 56.801781 237.247111 52.454160 234.152910 50.808893 C230.085134 58.485683 227.756404 67.077583 227.390811 75.757804 C227.308413 77.714151 228.099072 80.409939 230.037523 80.133374 M348.983780 345.387915 C348.178503 346.066267 348.356325 343.736719 349.316629 344.168516 C350.276934 344.600313 350.227208 345.939539 350.270161 346.991579 C350.376814 349.603792 352.158900 352.071214 354.605147 352.993668 C357.053789 346.545637 351.925028 338.456258 345.048557 337.920460 C344.527207 337.879837 343.954621 337.891653 343.548754 338.221393 C343.056134 338.621616 342.985514 339.334162 342.952895 339.968030 C342.752287 343.866286 342.551678 347.764542 342.351070 351.662798 C345.450667 351.802989 348.375243 349.024872 348.394343 345.922165 M375.692303 64.479442 C381.668581 65.057341 387.644859 65.635239 393.621137 66.213137 C394.899872 66.336789 396.387365 66.383884 397.240576 65.423423 C392.459533 60.740660 385.511113 58.367874 378.864489 59.148252 C377.414732 59.318466 375.860497 59.701441 374.951471 60.843561 C374.042445 61.985682 374.292323 64.066125 375.692301 64.479442 M309.718922 69.387348 C310.376456 71.171675 313.153451 71.270018 314.465851 69.893871 C315.778250 68.517724 315.895919 66.384132 315.570243 64.510604 C314.825502 60.226340 312.076509 56.334071 308.287896 54.199607 C307.062200 54.641615 305.836504 55.083625 304.610809 55.525634 C306.313513 60.146205 308.016218 64.766777 309.718922 69.387348 M116.533402 80.179046 C117.461397 80.781923 118.590670 81.068887 119.693900 80.982173 C124.711482 75.429560 129.729065 69.876948 134.746648 64.324335 C130.851944 62.453867 126.333219 65.327971 123.466116 68.560167 C120.455684 71.953956 118.090409 75.918034 116.533401 80.179045 M158.120236 65.289747 C154.065572 66.993652 149.941405 68.739469 146.583033 71.579352 C143.224661 74.419235 140.690061 78.576383 140.881282 82.970360 C148.023118 78.694945 154.026819 72.537430 158.120238 65.289748 M471.720392 126.079680 C469.228731 122.333321 472.324456 117.058008 470.700683 112.861945 C470.022502 111.109419 468.501965 109.705173 466.701127 109.168272 C465.573711 112.458426 464.430147 115.907393 464.951071 119.346114 C465.471996 122.784835 468.243202 126.152549 471.720392 126.079680 M77.374719 74.285059 C77.765581 74.809297 78.156442 75.333534 78.547304 75.857771 C78.909366 76.343380 79.271426 76.828988 79.633486 77.314595 C81.727798 75.255780 83.863500 73.140059 85.133746 70.492166 C86.403991 67.844272 86.657694 64.512913 85.017269 62.076960 C80.920822 64.843799 78.073890 69.391447 77.374719 74.285059 M301.908712 286.475688 C301.176512 284.058677 298.912591 282.182713 296.401625 281.912326 C295.665381 286.811692 296.900774 291.979148 299.773352 296.015745 C303.104434 294.412315 304.214947 289.476433 301.891593 286.600824 M265.202972 21.507488 C266.394359 19.993580 266.547745 17.741252 265.572604 16.079801 C262.796813 15.291074 259.552429 17.034155 258.677826 19.784097 C257.803222 22.534038 259.444642 25.831022 262.166076 26.790658 C263.471286 25.214005 264.438348 23.358813 264.983419 21.385920 M345.368455 354.448809 C345.390779 356.546583 345.413103 358.644358 345.435428 360.742133 C346.752230 360.756950 348.068823 360.277890 349.068189 359.420303 C349.242268 357.240311 348.245690 355.001280 346.509462 353.671550 M409.267381 198.692949 C411.520676 197.524175 413.257002 195.398002 413.951934 192.956600 C411.433994 193.435974 409.080848 194.743777 407.344210 196.628961 C406.483155 197.478144 408.152904 199.102231 408.977892 198.217968 M168.114322 33.424169 C168.109884 34.485793 168.105445 35.547417 168.101007 36.609041 C170.241089 36.755705 172.213705 34.575406 171.854260 32.460634 C171.480927 31.585358 170.564049 30.970612 169.612568 30.957630 C168.812616 31.534234 168.265680 32.449810 168.137147 33.427495 M554.264274 270.499963 C553.734057 269.896145 552.634978 270.351112 552.355897 271.104664 C552.076816 271.858216 552.340771 272.692683 552.604262 273.451826 C554.529338 274.647282 557.459488 272.607477 557.006669 270.387121 C556.111947 270.202536 555.217224 270.017951 554.322501 269.833367 M528.396842 159.375405 C527.973958 157.673858 526.919776 156.136895 525.484700 155.129596 C524.958109 155.869090 523.575073 155.619900 523.339696 154.743118 C522.505027 157.404224 525.490047 160.392090 528.151948 159.559957 M217.557759 45.852579 C218.964055 44.133958 217.665053 41.042377 215.453274 40.843977 C214.442998 42.162627 214.065706 43.945128 214.455051 45.560027 C215.510612 45.541650 216.566173 45.523271 217.621735 45.504892 M364.403459 396.602030 C365.825883 397.027890 367.248307 397.453749 368.670731 397.879609 C369.393419 396.687637 369.377734 395.086832 368.631828 393.909250 C367.073922 393.632473 365.384044 394.532510 364.744349 395.979738 M480.114321 115.423666 C480.113325 114.419389 480.112330 113.415111 480.111334 112.410833 C479.258594 112.621148 478.318765 112.447737 477.597233 111.946948 C477.057322 113.356362 476.900390 114.910379 477.147611 116.399280 C477.992251 117.460095 480.075545 116.785835 480.138454 115.431292 M367.029547 64.399226 C366.198353 63.910031 366.367472 62.410082 367.286727 62.118250 C365.428210 61.697060 363.343859 62.720601 362.540810 64.448781 C363.563036 66.101583 366.328991 66.217250 367.485641 64.655566 M117.266839 42.400286 C117.087063 41.235774 116.907288 40.071262 116.727512 38.906750 C115.542218 40.072813 114.356924 41.238875 113.171629 42.404938 C113.749103 44.113408 116.663223 44.204452 117.346219 42.535362 M249.114324 24.423341 C249.115420 23.421877 249.116516 22.420413 249.117613 21.418948 C248.385263 20.948926 247.470586 20.771627 246.615658 20.933974 C246.052526 22.357283 245.877696 23.932050 246.114932 25.444216 C247.181447 25.389679 248.230015 25.021279 249.096276 24.396762 M294.416333 84.895835 C294.288088 85.743983 294.159844 86.592132 294.031599 87.440281 C295.255601 88.208947 296.924598 88.198602 298.138977 87.414821 C297.249863 87.168471 297.281862 85.594847 298.180255 85.384846 C297.089101 84.844984 295.811445 84.691642 294.623530 84.957971 M473.066339 104.410147 C473.307047 103.555557 473.144786 102.596522 472.636345 101.868682 C471.594238 101.934758 470.552131 102.000837 469.510025 102.066915 C469.493636 102.888801 469.477248 103.710690 469.460861 104.532578 C470.564225 105.218935 472.076422 105.176243 473.139308 104.428730 M266.114315 251.423682 C266.113886 250.423760 266.113456 249.423837 266.113027 248.423915 C264.920714 247.572704 262.967247 248.969214 263.386870 250.372813 C263.664785 251.115396 264.002267 251.925880 264.715402 252.272444 C265.428536 252.619008 266.532580 252.051576 266.330447 251.284889 M350.495222 320.842476 C351.760567 319.002956 351.459154 316.254008 349.825271 314.732379 C348.524143 316.611376 348.845504 319.434461 350.535658 320.972953 M412.532101 79.812005 C413.438480 80.004442 413.892855 78.527933 413.259687 77.851432 C412.626519 77.174932 411.579652 77.151046 410.653374 77.174797 C409.606471 78.464135 411.169646 80.759074 412.752783 80.256989 M295.264568 70.371888 C295.592198 71.496848 297.108589 72.075007 298.102012 71.453730 C298.389976 69.818678 297.323946 67.738180 295.673386 67.916961 C295.579295 68.762683 295.485204 69.608406 295.391114 70.454129 M481.194575 129.009830 C482.741722 128.054299 480.263001 126.057669 478.448889 126.182969 C478.462189 126.938220 478.475492 127.693471 478.488794 128.448722 C479.158359 129.229401 480.559177 129.185842 481.178945 128.365072 z"/></svg>